<svg width="700" height="700" viewBox="0 0 700 700" fill="none" xmlns="http://www.w3.org/2000/svg">
<g clip-path="url(#clip0_436_52)">
<path d="M253 540L167.5 538H134.5C96.8333 538 69 539.333 51 542C49.3333 540 48.5 537.167 48.5 533.5L49 529.5C66.3333 525.5 77.6667 519.333 83 511C87.3333 504.333 90.6667 491.667 93 473C95.6667 454 97 417.5 97 363.5V262.5C97 216.833 94.8333 193.833 90.5 193.5C84.1667 192.5 74.1667 192 60.5 192C59.5 189.667 59 187 59 184C59 181 59.5 178.5 60.5 176.5L108.5 178C139.167 178 162.833 176.667 179.5 174C181.5 176.667 182.5 179.333 182.5 182L181.5 186.5C167.833 190.167 158.833 194.833 154.5 200.5C150.167 205.833 147.5 213.667 146.5 224C142.5 265 140.5 309.5 140.5 357.5V452C140.5 483.333 141.5 505.333 143.5 518C155.5 519.333 169.5 520 185.5 520C219.833 520 253.833 515.5 287.5 506.5C292.833 498.833 297.667 488.667 302 476C306.667 463 309.5 455.167 310.5 452.5C312.167 452.167 314.667 452 318 452C321.333 452 325 453.5 329 456.5C327.667 463.5 325.5 478.167 322.5 500.5C319.5 522.833 317.667 534.333 317 535C312.667 538.333 291.333 540 253 540Z" fill="#FBFBF2"/>
<path d="M413.35 501.4C413.35 523.6 400.45 536.8 374.65 541C364.05 541 355.1 537.25 347.8 529.75C340.6 522.15 337 512.7 337 501.4C337 479 349.95 465.75 375.85 461.65C386.35 461.65 395.2 465.5 402.4 473.2C409.7 480.9 413.35 490.3 413.35 501.4ZM377.95 534.55C392.35 534.55 399.55 525.35 399.55 506.95C399.55 496.55 397.15 487.45 392.35 479.65C387.55 471.85 381.2 467.95 373.3 467.95C365.4 467.95 359.65 470.5 356.05 475.6C352.55 480.6 350.8 487.8 350.8 497.2C350.8 506.5 353.25 515.05 358.15 522.85C363.05 530.65 369.65 534.55 377.95 534.55ZM428.18 471.55L422.93 471.85C422.53 471.15 422.33 470.25 422.33 469.15L422.48 467.8C429.48 466.6 434.68 464.9 438.08 462.7L439.88 461.65C441.38 461.65 443.08 462.95 444.98 465.55C446.88 468.05 447.93 471.15 448.13 474.85C453.83 471.25 457.98 468.8 460.58 467.5C463.28 466.2 467.93 464.25 474.53 461.65C481.83 463.05 488.33 467.55 494.03 475.15C499.83 482.65 502.73 491.4 502.73 501.4C502.73 507.1 501.83 512.25 500.03 516.85C498.23 521.35 495.83 525 492.83 527.8C489.83 530.5 486.73 532.8 483.53 534.7C480.33 536.6 477.03 538 473.63 538.9C467.83 540.3 463.48 541 460.58 541C457.78 541 453.38 540.25 447.38 538.75V547.15C447.38 573.85 447.98 587.25 449.18 587.35C452.18 587.65 457.78 587.8 465.98 587.8C466.18 588.5 466.28 589.3 466.28 590.2C466.28 591.1 466.18 591.85 465.98 592.45L444.38 592C435.78 592 428.78 592.4 423.38 593.2C422.78 592.6 422.48 591.75 422.48 590.65L422.78 589.45C426.88 588.45 429.63 587.05 431.03 585.25C432.53 583.45 433.48 581.15 433.88 578.35C434.88 571.35 435.38 554.95 435.38 529.15V492.55C435.38 484.55 434.88 479.05 433.88 476.05C432.98 473.05 431.08 471.55 428.18 471.55ZM447.38 526.15C447.38 527.65 450.23 529.45 455.93 531.55C461.63 533.55 465.63 534.55 467.93 534.55C474.33 534.55 479.63 531.85 483.83 526.45C488.03 521.05 490.13 514.2 490.13 505.9C490.13 497.5 487.68 489.8 482.78 482.8C477.88 475.7 472.68 472.15 467.18 472.15C461.68 472.15 455.18 475.3 447.68 481.6C447.48 489.9 447.38 504.75 447.38 526.15ZM553.686 530.2C561.886 530.2 569.136 528 575.436 523.6C576.836 524.1 577.636 525.15 577.836 526.75L561.636 538.15C559.236 540.05 553.886 541 545.586 541C537.286 541 530.236 537.3 524.436 529.9C518.636 522.4 515.736 512.95 515.736 501.55C515.736 490.15 518.886 481.15 525.186 474.55C531.486 467.95 538.986 463.65 547.686 461.65C555.286 461.65 561.986 464.2 567.786 469.3C571.286 472.3 573.736 476.2 575.136 481C575.436 482.2 576.836 482.85 579.336 482.95C579.936 483.65 580.236 484.4 580.236 485.2C580.236 485.9 580.136 486.65 579.936 487.45C562.336 491.55 545.036 494.4 528.036 496C528.036 508.8 531.586 518.4 538.686 524.8C542.686 528.4 547.686 530.2 553.686 530.2ZM563.136 484.45C563.636 484.15 563.886 483.8 563.886 483.4C563.886 482.9 563.236 481.5 561.936 479.2C560.736 476.8 558.586 474.3 555.486 471.7C552.386 469 549.136 467.65 545.736 467.65C542.336 467.65 539.836 468.15 538.236 469.15C532.636 472.95 529.436 479.85 528.636 489.85C534.036 489.85 540.186 489.3 547.086 488.2C553.986 487 559.336 485.75 563.136 484.45ZM638.376 538.45L614.976 538C604.676 538 596.826 538.25 591.426 538.75C590.626 537.95 590.226 536.95 590.226 535.75V535.15C592.026 533.35 593.726 531.3 595.326 529C611.326 506.2 624.426 486.35 634.626 469.45H622.026C611.626 469.45 604.276 470.1 599.976 471.4L598.176 482.95C597.676 483.35 596.976 483.55 596.076 483.55C595.176 483.55 594.326 483.45 593.526 483.25C593.226 480.25 592.626 476.5 591.726 472C590.926 467.5 590.526 465.1 590.526 464.8C590.526 463.9 591.326 463.45 592.926 463.45L620.826 464.05H627.126C637.726 464.05 645.726 463.75 651.126 463.15C651.826 463.95 652.176 465.25 652.176 467.05C650.076 468.95 648.276 471 646.776 473.2L608.226 532.6H618.126C623.426 532.6 629.126 532.15 635.226 531.25C641.326 530.35 645.626 529.45 648.126 528.55L652.176 518.2C653.076 517.9 653.776 517.75 654.276 517.75C654.776 517.75 655.626 518.05 656.826 518.65C655.326 529.65 654.576 535.5 654.576 536.2C654.576 536.9 653.926 537.45 652.626 537.85C651.426 538.25 646.676 538.45 638.376 538.45Z" fill="#FBFBF2"/>
<path d="M225.35 391.45L211.85 391C204.85 391 198.25 391.4 192.05 392.2C191.45 391.4 191.15 390.55 191.15 389.65L191.45 388.45C195.75 387.45 198.65 385.9 200.15 383.8C201.25 382.2 202.1 380.3 202.7 378.1C203.3 375.8 203.6 369.3 203.6 358.6V344.2C203.6 338 203.3 333.7 202.7 331.3C202.2 328.9 201.4 327.3 200.3 326.5C199.2 325.7 197.75 325.2 195.95 325L190.4 324.55C190.1 324.15 189.95 323.5 189.95 322.6L190.4 320.65C195.6 319.55 199.8 318.45 203 317.35C206.3 316.15 210.15 314.45 214.55 312.25C215.65 312.25 216.4 312.85 216.8 314.05C215.6 320.85 215 337.05 215 362.65C215 367.25 215.15 372.35 215.45 377.95C215.85 383.45 216.35 386.25 216.95 386.35C218.45 386.65 221.25 386.8 225.35 386.8C225.65 387.5 225.8 388.3 225.8 389.2C225.8 390.1 225.65 390.85 225.35 391.45ZM211.25 295.15C207.65 292.65 205.1 289.35 203.6 285.25C204.8 283.85 206.4 282.4 208.4 280.9C210.5 279.3 212.3 278.2 213.8 277.6C217.6 280.4 220.05 283.75 221.15 287.65C218.35 291.25 215.05 293.75 211.25 295.15ZM273.857 391.45L257.357 391C248.757 391 241.307 391.4 235.007 392.2C234.507 391.6 234.257 390.75 234.257 389.65L234.407 388.45C239.107 387.55 242.207 386.2 243.707 384.4C245.307 382.6 246.457 379.55 247.157 375.25C247.957 370.95 248.357 355.25 248.357 328.15V289.75C248.357 280.65 247.307 275.1 245.207 273.1C244.107 272 242.707 271.35 241.007 271.15L235.607 270.55C235.307 270.05 235.157 269.45 235.157 268.75C235.157 267.95 235.307 267.3 235.607 266.8C242.707 265.5 248.207 263.9 252.107 262C254.707 260.7 257.657 258.95 260.957 256.75C261.957 256.75 262.757 257.25 263.357 258.25C261.257 271.35 260.207 294.8 260.207 328.6V346.15C260.207 372.45 260.857 385.8 262.157 386.2C263.957 386.6 267.857 386.8 273.857 386.8C274.057 387.5 274.157 388.3 274.157 389.2C274.157 390.1 274.057 390.85 273.857 391.45ZM359.782 354.4C359.782 376.6 346.882 389.8 321.082 394C310.482 394 301.532 390.25 294.232 382.75C287.032 375.15 283.432 365.7 283.432 354.4C283.432 332 296.382 318.75 322.282 314.65C332.782 314.65 341.632 318.5 348.832 326.2C356.132 333.9 359.782 343.3 359.782 354.4ZM324.382 387.55C338.782 387.55 345.982 378.35 345.982 359.95C345.982 349.55 343.582 340.45 338.782 332.65C333.982 324.85 327.632 320.95 319.732 320.95C311.832 320.95 306.082 323.5 302.482 328.6C298.982 333.6 297.232 340.8 297.232 350.2C297.232 359.5 299.682 368.05 304.582 375.85C309.482 383.65 316.082 387.55 324.382 387.55ZM439.112 313.6C440.012 313.8 440.762 314.4 441.362 315.4C440.462 322.2 440.012 333.4 440.012 349L440.162 370.45C440.162 379.45 442.412 383.95 446.912 383.95L452.312 383.8C452.712 384.5 452.912 385.3 452.912 386.2L452.762 387.85C447.862 388.65 444.362 389.6 442.262 390.7L438.362 392.5C437.862 392.8 437.112 393.3 436.112 394C433.912 393.2 432.062 391.45 430.562 388.75C429.062 385.95 428.212 383.15 428.012 380.35C419.512 385.65 409.762 390.2 398.762 394C392.362 394 387.562 391.65 384.362 386.95C381.262 382.15 379.712 375.65 379.712 367.45V338.8C379.712 332 379.412 327.7 378.812 325.9C378.212 324 376.462 322.75 373.562 322.15L368.612 321.55C368.312 320.95 368.162 320.3 368.162 319.6L368.612 317.8C370.312 317.5 374.162 316.85 380.162 315.85L390.812 313.6C391.612 313.8 392.312 314.4 392.912 315.4C392.112 320.9 391.712 335.35 391.712 358.75C391.712 375.15 396.112 383.35 404.912 383.35C408.012 383.35 411.112 382.8 414.212 381.7C417.412 380.6 419.812 379.55 421.412 378.55C423.012 377.45 425.062 375.95 427.562 374.05C427.862 367.45 428.012 362.7 428.012 359.8V341.65C428.012 335.55 427.712 331.3 427.112 328.9C426.612 326.5 425.812 324.9 424.712 324.1C423.712 323.2 422.312 322.55 420.512 322.15L415.562 321.55L415.112 319.6L415.562 317.8C416.562 317.6 418.362 317.35 420.962 317.05C423.662 316.75 427.212 316.15 431.612 315.25C436.012 314.35 438.512 313.8 439.112 313.6Z" fill="#FBFBF2"/>
</g>
<defs>
<clipPath id="clip0_436_52">
<rect width="700" height="700" fill="white"/>
</clipPath>
</defs>
</svg>
