<svg width="127" height="127" viewBox="0 0 127 127" fill="none" xmlns="http://www.w3.org/2000/svg">
<path d="M117.929 95.25V111.515L95.25 88.8365V58.9643C95.2495 58.1222 95.0147 57.2968 94.5717 56.5806C94.1287 55.8645 93.495 55.2858 92.7418 54.9094L68.0357 42.5495V17.3627L79.7651 29.0921L86.1786 22.6786L63.5 0L40.8214 22.6786L47.2349 29.0921L58.9643 17.3627V42.5541L34.2583 54.9048C33.5043 55.2816 32.8702 55.861 32.4271 56.578C31.9841 57.2951 31.7496 58.1214 31.75 58.9643V88.8365L9.07143 111.515V95.25H0V127H31.75V117.929H15.4849L37.1792 96.2342L61.4725 108.381C62.1022 108.695 62.7963 108.859 63.5 108.859C64.2037 108.859 64.8978 108.695 65.5275 108.381L89.8207 96.2342L111.515 117.929H95.25V127H127V95.25H117.929ZM58.9643 96.9826L40.8214 87.9112V66.3031L58.9643 75.3745V96.9826ZM63.5 67.5005L46.4276 58.9643L63.5 50.4281L80.5724 58.9643L63.5 67.5005ZM86.1786 87.9112L68.0357 96.9826V75.3745L86.1786 66.3031V87.9112Z" fill="#C08552"/>
</svg>
