<svg width="150" height="120" viewBox="0 0 150 120" fill="none" xmlns="http://www.w3.org/2000/svg">
<path d="M122.214 86.75V100.71L102.75 81.2455V55.6071C102.75 54.8844 102.548 54.176 102.168 53.5613C101.788 52.9467 101.244 52.45 100.597 52.1269L79.3929 41.5189V19.9019L89.4598 29.9688L94.9643 24.4643L75.5 5L56.0357 24.4643L61.5402 29.9688L71.6071 19.9019V41.5228L50.4028 52.123C49.7556 52.4464 49.2114 52.9437 48.8312 53.5591C48.4509 54.1745 48.2497 54.8837 48.25 55.6071V81.2455L28.7857 100.71V86.75H21V114H48.25V106.214H34.2902L52.9097 87.5947L73.7599 98.0198C74.3003 98.2895 74.896 98.4299 75.5 98.4299C76.104 98.4299 76.6997 98.2895 77.2401 98.0198L98.0902 87.5947L116.71 106.214H102.75V114H130V86.75H122.214ZM71.6071 88.2371L56.0357 80.4514V61.9058L71.6071 69.6915V88.2371ZM75.5 62.9335L60.8473 55.6071L75.5 48.2808L90.1527 55.6071L75.5 62.9335ZM94.9643 80.4514L79.3929 88.2371V69.6915L94.9643 61.9058V80.4514Z" fill="#FFC233"/>
</svg>
