<svg width="120" height="120" viewBox="0 0 120 120" fill="none" xmlns="http://www.w3.org/2000/svg">
<path d="M111.429 90V105.369L90 83.94V55.7143C89.9996 54.9186 89.7776 54.1387 89.3591 53.462C88.9405 52.7853 88.3418 52.2385 87.63 51.8829L64.2857 40.2043V16.4057L75.3686 27.4886L81.4286 21.4286L60 0L38.5714 21.4286L44.6314 27.4886L55.7143 16.4057V40.2086L32.37 51.8786C31.6576 52.2346 31.0584 52.782 30.6398 53.4596C30.2212 54.1371 29.9996 54.9179 30 55.7143V83.94L8.57143 105.369V90H0V120H30V111.429H14.6314L35.13 90.93L58.0843 102.407C58.6792 102.704 59.3351 102.859 60 102.859C60.6649 102.859 61.3208 102.704 61.9157 102.407L84.87 90.93L105.369 111.429H90V120H120V90H111.429ZM55.7143 91.6371L38.5714 83.0657V62.6486L55.7143 71.22V91.6371ZM60 63.78L43.8686 55.7143L60 47.6486L76.1314 55.7143L60 63.78ZM81.4286 83.0657L64.2857 91.6371V71.22L81.4286 62.6486V83.0657Z" fill="#C08552"/>
</svg>
