<svg width="75" height="75" viewBox="0 0 75 75" fill="none" xmlns="http://www.w3.org/2000/svg">
<path d="M0 0V74.094H74.094V0H0ZM3.08648 3.16582H71.0052V70.9258H3.08648V3.16582ZM19.4404 17.342C19.4404 17.1306 19.489 16.9715 19.753 16.9715C22.3966 16.861 25.0422 16.8111 27.688 16.8218C36.2505 16.8218 39.9645 21.6335 39.9645 27.7942C39.9645 35.8334 34.2963 39.2866 27.3129 39.2866C26.1436 39.2866 25.7338 39.2367 24.9141 39.2367V51.4084C24.9141 51.6673 24.8169 51.767 24.5645 51.767H19.8016C19.5353 51.767 19.4404 51.6673 19.4404 51.4084V17.342ZM24.9141 34.1638C25.6388 34.2137 26.1922 34.2137 27.4217 34.2137C31.0269 34.2137 34.4167 32.9146 34.4167 27.8939C34.4167 23.8731 32.004 21.833 27.8686 21.833C26.6507 21.833 25.4814 21.8948 24.9141 21.9446V34.1638ZM44.681 31.2949C44.681 30.9244 44.681 29.9839 44.5236 28.2145C44.5236 27.9557 44.5606 27.8939 44.7644 27.7942C48.3675 26.3723 52.1916 25.6304 56.0521 25.6044C56.3045 25.6044 56.4133 25.6543 56.4133 25.9132V30.5159C56.4133 30.7747 56.33 30.8246 56.0753 30.8246C54.1088 30.6987 52.1356 30.9122 50.2381 31.4563V51.4084C50.2381 51.6673 50.1292 51.767 49.8768 51.767H45.0283C44.7759 51.767 44.6787 51.6673 44.6787 51.4084L44.681 31.2949Z" fill="#FFC233"/>
</svg>
