<svg width="100" height="100" viewBox="0 0 100 100" fill="none" xmlns="http://www.w3.org/2000/svg">
<path d="M0 1.25293V98.7467H100V1.25293H0ZM4.16562 5.41855H95.8313V94.5779H4.16562V5.41855ZM24.1688 24.0873C24.1688 23.8092 24.7563 23.5998 25.0969 23.5998C28.6761 23.4484 32.2582 23.3775 35.8406 23.3873C47.3969 23.3873 51.8875 29.7186 51.8875 37.8248C51.8875 48.4217 44.2062 52.9623 34.7969 52.9623C33.2031 52.9623 32.6656 52.8811 31.5594 52.8811V68.8967C31.5594 69.2373 31.4281 69.3842 31.0875 69.3842H24.6406C24.3 69.3842 24.1688 69.2529 24.1688 68.9123V24.0873ZM31.5594 46.2248C32.5187 46.2904 33.2844 46.2904 34.9438 46.2904C39.8094 46.2904 44.4 44.5654 44.4 37.9748C44.4 32.6842 41.1125 29.9998 35.5469 29.9998C33.9031 29.9998 32.325 30.0654 31.5594 30.1311V46.2248ZM67.4312 41.2592C64.1281 41.2592 63.0219 42.9186 63.0219 44.2873C63.0219 45.7998 63.7719 46.8279 68.1813 49.1061C74.7094 52.2811 76.775 55.2904 76.775 59.7654C76.775 66.4217 71.6813 70.0029 64.8125 70.0029C61.1656 70.0029 58.0594 69.2373 56.2688 68.2123C56.0094 68.0811 55.9438 67.8717 55.9438 67.5279V61.4092C55.9438 61.0029 56.1406 60.8561 56.4156 61.0686C58.9096 62.6902 61.822 63.5502 64.7969 63.5436C68.1 63.5436 69.4688 62.1748 69.4688 60.3061C69.4688 58.7936 68.5094 57.4904 64.325 55.2936C58.4 52.4623 55.925 49.5811 55.925 44.7623C55.925 39.3904 60.125 34.9311 67.4 34.9311C70.9813 34.9311 73.5031 35.4842 74.8875 36.0873C75.2281 36.2998 75.2937 36.6404 75.2937 36.9186V42.6311C75.2937 42.9717 75.0813 43.1842 74.675 43.0373C72.8187 41.9467 70.0844 41.2467 67.4156 41.2467L67.4312 41.2592Z" fill="#C08552"/>
</svg>
