<svg width="75" height="75" viewBox="0 0 75 75" fill="none" xmlns="http://www.w3.org/2000/svg">
<path d="M0.511719 0V74.094H74.6057V0H0.511719ZM3.5982 3.16582H71.5169V70.9258H3.5982V3.16582ZM26.2108 41.9584L23.7633 51.4464C23.7147 51.7195 23.6175 51.767 23.3165 51.767H18.7828C18.4703 51.767 18.4216 51.6673 18.4703 51.3086L27.2365 19.8167C27.394 19.2467 27.4889 18.7408 27.5375 17.1686C27.5375 16.9572 27.6463 16.8598 27.8038 16.8598H34.2685C34.4746 16.8598 34.5811 16.9097 34.6297 17.1686L44.4587 51.3585C44.5189 51.6174 44.4587 51.767 44.2063 51.767H39.117C38.8507 51.767 38.7072 51.7053 38.6586 51.4939L36.1023 41.956H26.2015L26.2108 41.9584ZM34.8219 36.8119C33.9536 33.3112 31.916 25.6424 31.1565 21.9304H31.0963C30.4457 25.6282 28.8041 31.9005 27.5398 36.8119H34.8219ZM48.7145 19.2111C48.7145 17.171 50.0899 15.9692 51.8751 15.9692C53.7575 15.9692 55.0356 17.2802 55.0356 19.2111C55.0356 21.301 53.7089 22.4529 51.8149 22.4529C49.9695 22.4529 48.7029 21.3034 48.7029 19.2111H48.7145ZM49.0641 26.4096C49.0641 26.1626 49.1614 26.0628 49.4138 26.0628H54.2623C54.5401 26.0628 54.6351 26.1626 54.6351 26.4333V51.4321C54.6351 51.691 54.5865 51.7908 54.2739 51.7908H49.4971C49.1845 51.7908 49.0873 51.6411 49.0873 51.3823V26.4072L49.0641 26.4096Z" fill="#FFC233"/>
</svg>
