<svg width="100" height="100" viewBox="0 0 100 100" fill="none" xmlns="http://www.w3.org/2000/svg">
<path d="M0 1.25293V98.7467H100V1.25293H0ZM4.16562 5.41855H95.8313V94.5779H4.16562V5.41855ZM26.2375 24.0717C26.2375 23.7936 26.3031 23.5842 26.6594 23.5842C30.2273 23.4388 33.7979 23.3732 37.3688 23.3873C48.925 23.3873 53.9375 29.7186 53.9375 37.8248C53.9375 48.4029 46.2875 52.9467 36.8625 52.9467C35.2844 52.9467 34.7313 52.8811 33.625 52.8811V68.8967C33.625 69.2373 33.4938 69.3686 33.1531 69.3686H26.725C26.3656 69.3686 26.2375 69.2373 26.2375 68.8967V24.0717ZM33.625 46.2061C34.6031 46.2717 35.35 46.2717 37.0094 46.2717C41.875 46.2717 46.45 44.5623 46.45 37.9561C46.45 32.6654 43.1938 29.9811 37.6125 29.9811C35.9688 29.9811 34.3906 30.0623 33.625 30.1279V46.2061ZM60.3031 42.4311C60.3031 41.9436 60.3031 40.7061 60.0906 38.3779C60.0906 38.0373 60.1406 37.9561 60.4156 37.8248C65.2785 35.9539 70.4397 34.9777 75.65 34.9436C75.9906 34.9436 76.1375 35.0092 76.1375 35.3498V41.4061C76.1375 41.7467 76.025 41.8123 75.6813 41.8123C73.0272 41.6466 70.3642 41.9276 67.8031 42.6436V68.8967C67.8031 69.2373 67.6562 69.3686 67.3156 69.3686H60.7719C60.4313 69.3686 60.3 69.2373 60.3 68.8967L60.3031 42.4311Z" fill="#C08552"/>
</svg>
