<svg width="100" height="100" viewBox="0 0 100 100" fill="none" xmlns="http://www.w3.org/2000/svg">
<path d="M0 1.25293V98.7436H100V1.25293H0ZM4.16562 5.42168H95.8313V94.5811H4.16562V5.42168ZM27.7 69.2717C27.2125 69.2717 27.0844 69.0592 27.0844 68.6561V23.8936C27.0844 23.5342 27.2125 23.3436 27.5719 23.3436H34.1625C34.5219 23.3436 34.5875 23.4904 34.5875 23.8467V62.4186H51.775C52.1156 62.4186 52.2125 62.5686 52.15 62.9092L51.1094 68.8186C51.0437 69.1592 50.8312 69.3061 50.4875 69.3061H27.7V69.2717ZM58.5469 42.2842C58.5469 41.7811 58.5469 40.5592 58.3344 38.2186C58.3344 37.8779 58.4187 37.7936 58.6937 37.6654C61.2312 36.6404 67.2562 34.7873 73.9938 34.7873C74.3344 34.7873 74.4656 34.8498 74.4656 35.2092V41.2467C74.4656 41.6061 74.3375 41.6717 73.9781 41.6717C71.375 41.5436 67.4656 41.8842 66.0187 42.4998V68.7873C66.0187 69.1279 65.8844 69.2592 65.5438 69.2592H59.0031C58.6625 69.2592 58.5312 69.1311 58.5312 68.7873V42.2873L58.5469 42.2842Z" fill="#C08552"/>
</svg>
