<svg width="100" height="100" viewBox="0 0 100 100" fill="none" xmlns="http://www.w3.org/2000/svg">
<path d="M0 1.25293V98.7467H100V1.25293H0ZM4.16562 5.41855H95.8313V94.5779H4.16562V5.41855ZM34.6844 56.4623L31.3812 68.9467C31.3156 69.3061 31.1844 69.3686 30.7781 69.3686H24.6594C24.2375 69.3686 24.1719 69.2373 24.2375 68.7654L36.0687 27.3279C36.2812 26.5779 36.4094 25.9123 36.475 23.8436C36.475 23.5654 36.6219 23.4373 36.8344 23.4373H45.5594C45.8375 23.4373 45.9813 23.5029 46.0469 23.8436L59.3125 68.8311C59.3937 69.1717 59.3125 69.3686 58.9719 69.3686H52.1031C51.7438 69.3686 51.55 69.2873 51.4844 69.0092L48.0344 56.4592H34.6719L34.6844 56.4623ZM46.3062 49.6904C45.1344 45.0842 42.3844 34.9936 41.3594 30.1092H41.2781C40.4 34.9748 38.1844 43.2279 36.4781 49.6904H46.3062ZM65.0563 26.5311C65.0563 23.8467 66.9125 22.2654 69.3219 22.2654C71.8625 22.2654 73.5875 23.9904 73.5875 26.5311C73.5875 29.2811 71.7969 30.7967 69.2406 30.7967C66.75 30.7967 65.0406 29.2842 65.0406 26.5311H65.0563ZM65.5281 36.0029C65.5281 35.6779 65.6594 35.5467 66 35.5467H72.5438C72.9188 35.5467 73.0469 35.6779 73.0469 36.0342V68.9279C73.0469 69.2686 72.9812 69.3998 72.5594 69.3998H66.1125C65.6906 69.3998 65.5594 69.2029 65.5594 68.8623V35.9998L65.5281 36.0029Z" fill="#C08552"/>
</svg>
