<svg width="74" height="75" viewBox="0 0 74 75" fill="none" xmlns="http://www.w3.org/2000/svg">
<path d="M0.96875 0V74.094H73.1129V0H0.96875ZM3.974 3.16582H70.1054V70.9258H3.974V3.16582ZM18.4051 17.3538C18.4051 17.1425 18.8289 16.9833 19.0747 16.9833C21.6569 16.8683 24.2412 16.8144 26.8257 16.8218C35.1628 16.8218 38.4025 21.6335 38.4025 27.7942C38.4025 35.8476 32.861 39.2985 26.0727 39.2985C24.9229 39.2985 24.5351 39.2367 23.737 39.2367V51.4084C23.737 51.6673 23.6423 51.7789 23.3966 51.7789H18.7455C18.4998 51.7789 18.4051 51.6791 18.4051 51.4203V17.3538ZM23.737 34.1781C24.4291 34.2279 24.9815 34.2279 26.1786 34.2279C29.6889 34.2279 33.0007 32.9169 33.0007 27.9082C33.0007 23.8874 30.629 21.8473 26.6137 21.8473C25.4279 21.8473 24.2893 21.8971 23.737 21.947V34.1781ZM49.6164 30.4042C47.2334 30.4042 46.4353 31.6653 46.4353 32.7056C46.4353 33.8551 46.9764 34.6364 50.1575 36.3678C54.8672 38.7807 56.3574 41.0678 56.3574 44.4688C56.3574 49.5274 52.6826 52.2491 47.7272 52.2491C45.0962 52.2491 42.8552 51.6673 41.5634 50.8883C41.3762 50.7885 41.3289 50.6294 41.3289 50.3682V45.718C41.3289 45.4092 41.4709 45.2976 41.6693 45.4591C43.4686 46.6915 45.5697 47.3451 47.7159 47.3401C50.0989 47.3401 51.0864 46.2999 51.0864 44.8796C51.0864 43.7301 50.3942 42.7398 47.3755 41.0702C43.1009 38.9185 41.3154 36.7288 41.3154 33.0666C41.3154 28.984 44.3454 25.5949 49.5939 25.5949C52.1776 25.5949 53.9969 26.0153 54.9957 26.4737C55.2414 26.6352 55.2888 26.894 55.2888 27.1054V31.4468C55.2888 31.7057 55.1355 31.8672 54.8424 31.7556C53.5032 30.9267 51.5305 30.3947 49.6052 30.3947L49.6164 30.4042Z" fill="#FFC233"/>
</svg>
