<svg width="75" height="75" viewBox="0 0 75 75" fill="none" xmlns="http://www.w3.org/2000/svg">
<path d="M0.0390625 0V74.094H74.1331V0H0.0390625ZM3.12554 3.1683H71.0443V70.9305H3.12554V3.1683ZM20.5631 51.695C20.2019 51.695 20.107 51.5335 20.107 51.2272V17.2071C20.107 16.934 20.2019 16.7891 20.4682 16.7891H25.3514C25.6177 16.7891 25.6663 16.9008 25.6663 17.1715V46.4866H38.4012C38.6536 46.4866 38.7254 46.6006 38.6791 46.8595L37.908 51.3507C37.8594 51.6095 37.702 51.7212 37.4473 51.7212H20.5631V51.695ZM43.4188 31.1842C43.4188 30.8018 43.4188 29.8732 43.2613 28.0943C43.2613 27.8354 43.3239 27.7713 43.5276 27.6739C45.4077 26.8949 49.8719 25.4865 54.864 25.4865C55.1164 25.4865 55.2136 25.534 55.2136 25.8071V30.3957C55.2136 30.6688 55.1187 30.7187 54.8524 30.7187C52.9237 30.6213 50.027 30.8802 48.955 31.3481V51.3269C48.955 51.5858 48.8554 51.6855 48.6031 51.6855H43.7568C43.5045 51.6855 43.4072 51.5882 43.4072 51.3269V31.1866L43.4188 31.1842Z" fill="#FFC233"/>
</svg>
