<svg width="73" height="75" viewBox="0 0 73 75" fill="none" xmlns="http://www.w3.org/2000/svg">
<path d="M0 0V74.094H72.1441V0H0ZM3.00525 3.16582H69.1366V70.9258H3.00525V3.16582Z" fill="#FFC233"/>
<path d="M53.119 17V31.3377V31.3519C52.0127 28.9627 50.0629 27.9348 48.0218 27.9348C43.6478 27.9348 39.4505 32.2577 39.4505 42.2867C39.4505 51.6196 42.8338 57.6638 47.616 57.6638C50.5884 57.6638 52.2442 56.1156 53.119 54.1328V57.0943H57.6752C57.6168 55.4614 57.6752 52.868 57.6752 50.9435V17H53.119ZM14 18.8225L23.9915 37.9584L14 57.0943H18.4921L26.2483 42.2832L33.9831 57.0943H38.5392L28.5157 37.9584L38.5392 18.8225H33.9831L26.2483 33.6336L18.4921 18.8225H14ZM49.0113 31.7826C51.1691 31.7826 52.8608 34.359 53.0941 37.275C53.1524 37.9146 53.0941 38.63 53.0941 39.2113V47.5263C53.0941 47.5263 53.0412 48.5961 52.8663 49.121C51.8748 53.2015 50.0657 53.9299 48.666 53.9299C45.4002 53.9299 43.939 48.2353 43.939 42.2867C43.939 36.6316 45.2789 31.7826 49.0113 31.7826Z" fill="#FFC233"/>
</svg>
