<svg width="100" height="100" viewBox="0 0 100 100" fill="none" xmlns="http://www.w3.org/2000/svg">
<path d="M0 1.25293V98.7467H100V1.25293H0ZM4.16562 5.41855H95.8313V94.5779H4.16562V5.41855ZM28.2719 56.4623L24.9688 68.8967C24.9031 69.2373 24.7562 69.3686 24.35 69.3686H18.2313C17.825 69.3686 17.7594 69.2217 17.825 68.7498L29.6562 27.3592C29.8531 26.6092 29.9969 26.0092 30.0625 23.9404C30.0625 23.6623 30.1938 23.5186 30.4031 23.5186H39.1437C39.4219 23.5186 39.55 23.5998 39.6156 23.9404L52.8813 68.8123C52.9469 69.1529 52.8812 69.3498 52.5406 69.3498H45.6719C45.3312 69.3498 45.1187 69.2373 45.0531 68.9592L41.6187 56.4436H28.2719V56.4623ZM39.9562 49.6904C38.7844 45.0842 35.9531 34.9779 34.9281 30.1092H34.8625C33.9688 34.9748 31.7219 43.2279 29.9969 49.6904H39.9562ZM62.2875 53.9561C62.3687 59.6029 65.0375 63.3811 71.3688 63.3811C73.8438 63.3811 75.9594 63.0561 78.1562 62.0779C78.4344 61.9467 78.6438 62.0279 78.6438 62.3717V67.5967C78.6438 68.0029 78.5125 68.2154 78.2219 68.4279C76.025 69.5186 73.2906 70.0061 69.8562 70.0061C58.8531 70.0061 54.7344 61.8998 54.7344 52.8186C54.7344 42.9873 59.8125 34.9467 68.7656 34.9467C77.8312 34.9467 80.9875 42.5811 80.9875 48.7654C80.9875 50.7686 80.8406 52.4123 80.6469 53.1748C80.5656 53.5154 80.4344 53.6311 80.0938 53.6967C79.2625 53.8436 76.7906 53.9748 73.1438 53.9748H62.2875V53.9561ZM70.7531 48.2248C72.8844 48.2248 73.6344 48.2248 73.8469 48.1592C73.8469 47.8811 73.9125 47.6373 73.9125 47.4436C73.9125 45.1654 72.8063 40.9967 68.475 40.9967C64.4875 40.9967 62.7625 44.5123 62.3563 48.2248H70.7531Z" fill="#C08552"/>
</svg>
