<svg width="73" height="75" viewBox="0 0 73 75" fill="none" xmlns="http://www.w3.org/2000/svg">
<path d="M0.183594 0V74.094H72.3277V0H0.183594ZM3.18885 3.16582H69.3202V70.9258H3.18885V3.16582ZM20.5801 41.9584L18.1971 51.4084C18.1497 51.6673 18.0438 51.767 17.7507 51.767H13.3364C13.0433 51.767 12.9959 51.6554 13.0433 51.2968L21.5788 19.8404C21.7209 19.2704 21.8246 18.8144 21.8719 17.2422C21.8719 17.0308 21.9666 16.9216 22.1177 16.9216H28.4235C28.6242 16.9216 28.7166 16.9833 28.7639 17.2422L38.3343 51.3443C38.3817 51.6031 38.3343 51.7528 38.0886 51.7528H33.1332C32.8874 51.7528 32.7341 51.6673 32.6868 51.4559L30.2091 41.9442H20.5801V41.9584ZM29.0097 36.8119C28.1642 33.3112 26.1217 25.6306 25.3822 21.9304H25.3348C24.6901 25.6282 23.0691 31.9005 21.8246 36.8119H29.0097ZM45.1204 40.0537C45.179 44.3453 47.1043 47.2166 51.672 47.2166C53.4575 47.2166 54.9838 46.9696 56.5687 46.2262C56.7694 46.1265 56.9204 46.1882 56.9204 46.4495V50.4204C56.9204 50.7292 56.8258 50.8906 56.6161 51.0521C55.0312 51.881 53.0585 52.2515 50.5808 52.2515C42.6427 52.2515 39.6712 46.0909 39.6712 39.1892C39.6712 31.7176 43.3348 25.6068 49.794 25.6068C56.3343 25.6068 58.6113 31.4088 58.6113 36.1089C58.6113 37.6312 58.5054 38.8805 58.3656 39.46C58.307 39.7188 58.2123 39.8067 57.9665 39.8566C57.3668 39.9682 55.5835 40.068 52.9525 40.068H45.1204V40.0537ZM51.2278 35.698C52.7654 35.698 53.3065 35.698 53.4598 35.6482C53.4598 35.4368 53.5071 35.2515 53.5071 35.1043C53.5071 33.3729 52.709 30.2047 49.5843 30.2047C46.7075 30.2047 45.4631 32.8766 45.17 35.698H51.2278Z" fill="#FFC233"/>
</svg>
