<svg width="120" height="112" viewBox="0 0 120 112" fill="none" xmlns="http://www.w3.org/2000/svg">
<path d="M68.5713 85.7142H51.4289V68.5713H68.5716V85.7142H68.5713ZM85.7142 71.0876L75.8876 61.2553C75.4901 60.8567 75.0177 60.5406 74.4976 60.3252C73.9776 60.1098 73.42 59.9993 72.8571 60H47.1429C44.7757 60 42.8571 61.9186 42.8571 64.2855V90C42.8571 91.1156 43.2834 92.1314 43.9816 92.8938L53.9473 102.857H38.5711C36.2041 102.857 34.2855 100.939 34.2855 98.5713V55.7142C34.2855 53.347 36.2041 51.4284 38.5711 51.4284H81.4289C83.7959 51.4284 85.7145 53.3473 85.7145 55.7142V71.0876H85.7142ZM111.429 85.7142L102.857 77.1429L102.868 59.9887L111.429 51.4282V85.7142ZM64.2759 18.2962C58.5748 21.5834 58.5748 29.8451 64.2759 33.1322C69.9773 36.4191 77.1429 32.288 77.1429 25.7142C77.1429 19.1405 69.9773 15.0094 64.2759 18.2962V18.2962ZM111.429 42.8571L94.286 60V51.4284C94.286 47.3269 91.4044 43.9003 87.5559 43.0575C91.7358 38.4848 94.286 32.3977 94.286 25.7145C94.286 11.5127 82.7735 0 68.5716 0C55.0284 0 43.9308 10.4702 42.9309 23.7579C38.3728 19.6465 32.3362 17.1429 25.7145 17.1429C11.5127 17.1429 0 28.6554 0 42.8573C0 57.0588 11.5127 68.5713 25.7142 68.5713H17.1429V85.7142H25.7142V102.857C25.7142 107.591 29.5516 111.428 34.2858 111.428H85.7142C90.4484 111.428 94.2858 107.591 94.2858 102.857V94.2853L111.429 111.428H120V42.8571H111.429H111.429ZM34.2858 42.8571C34.2858 36.2834 27.2229 32.337 21.4188 35.4391C15.0152 38.8622 15.4345 50.7673 25.7145 51.4284V59.9995C6.80039 59.3962 2.96883 36.0267 17.1234 28.0216C28.5802 21.5421 42.8571 29.7096 42.8571 42.8573H34.2855L34.2858 42.8571ZM59.981 40.5499C48.5782 33.9762 48.5782 17.4523 59.981 10.8785C71.3836 4.30453 85.7145 12.5665 85.7145 25.7142C85.7145 38.862 71.3836 47.1239 59.9808 40.5502L59.981 40.5499Z" fill="#C08552"/>
</svg>
