<svg width="150" height="120" viewBox="0 0 150 120" fill="none" xmlns="http://www.w3.org/2000/svg">
<path d="M82.6551 87.7693H66.4917V71.6154H82.6553V87.7693H82.6551ZM98.8189 73.9865L89.5535 64.7214C89.1787 64.3458 88.7333 64.048 88.2429 63.845C87.7525 63.642 87.2269 63.5378 86.6961 63.5385H62.4505C60.2185 63.5385 58.4095 65.3464 58.4095 67.5768V91.8078C58.4095 92.8591 58.8114 93.8162 59.4698 94.5347L68.8662 103.923H54.3682C52.1364 103.923 50.3274 102.115 50.3274 99.8846V59.5C50.3274 57.2694 52.1364 55.4615 54.3682 55.4615H94.7783C97.0101 55.4615 98.8191 57.2696 98.8191 59.5V73.9865H98.8189ZM123.065 87.7693L114.983 79.6924L114.993 63.5279L123.065 55.4613V87.7693ZM78.605 24.2407C73.2294 27.3382 73.2294 35.1233 78.605 38.2208C83.9808 41.318 90.7371 37.4252 90.7371 31.2307C90.7371 25.0362 83.9808 21.1435 78.605 24.2407V24.2407ZM123.065 47.3846L106.901 63.5385V55.4615C106.901 51.5965 104.184 48.3677 100.555 47.5735C104.497 43.2646 106.901 37.5286 106.901 31.231C106.901 17.8486 96.0461 7 82.6553 7C69.8856 7 59.4218 16.8662 58.4791 29.3873C54.1813 25.5131 48.4895 23.1539 42.2458 23.1539C28.8552 23.1539 18 34.0022 18 47.3849C18 60.767 28.8552 71.6154 42.2456 71.6154H34.1638V87.7693H42.2456V103.923C42.2456 108.384 45.8639 112 50.3276 112H98.8189C103.283 112 106.901 108.384 106.901 103.923V95.8459L123.065 112H131.147V47.3846H123.065H123.065ZM50.3276 47.3846C50.3276 41.1901 43.6681 37.4714 38.1956 40.3946C32.1577 43.6202 32.553 54.8384 42.2458 55.4615V63.5381C24.412 62.9696 20.7993 40.9483 34.1455 33.405C44.9479 27.2993 58.4095 34.9956 58.4095 47.3849H50.3274L50.3276 47.3846ZM74.5554 45.2106C63.8038 39.016 63.8038 23.4454 74.5554 17.2509C85.3067 11.0562 98.8191 18.8415 98.8191 31.2307C98.8191 43.62 85.3067 51.4053 74.5552 45.2108L74.5554 45.2106Z" fill="#FFC233"/>
</svg>
