<svg width="125" height="116" viewBox="0 0 125 116" fill="none" xmlns="http://www.w3.org/2000/svg">
<path d="M71.4285 89.2308H53.5718V71.3846H71.4287V89.2308H71.4285ZM89.2856 74.0041L79.0496 63.7684C78.6355 63.3535 78.1434 63.0244 77.6017 62.8002C77.06 62.5759 76.4792 62.4608 75.8928 62.4616H49.1072C46.6414 62.4616 44.6428 64.4589 44.6428 66.923V93.6924C44.6428 94.8538 45.0869 95.9113 45.8142 96.705L56.1951 107.077H40.1782C37.7126 107.077 35.7141 105.08 35.7141 102.615V58C35.7141 55.5357 37.7126 53.5384 40.1782 53.5384H84.8218C87.2874 53.5384 89.2859 55.5359 89.2859 58V74.0041H89.2856ZM116.072 89.2308L107.143 80.3078L107.155 62.4499L116.072 53.5381V89.2308ZM66.9541 19.0469C61.0154 22.4689 61.0154 31.0695 66.9541 34.4915C72.8931 37.9132 80.3572 33.6126 80.3572 26.7692C80.3572 19.9257 72.8931 15.6252 66.9541 19.0469V19.0469ZM116.072 44.6154L98.2146 62.4616V53.5384C98.2146 49.2686 95.2129 45.7014 91.2041 44.824C95.5581 40.0638 98.2146 33.7268 98.2146 26.7694C98.2146 11.9851 86.2224 0 71.4287 0C57.3213 0 45.7612 10.8998 44.7197 24.7326C39.9717 20.4525 33.6836 17.8462 26.7859 17.8462C11.9924 17.8462 0 29.831 0 44.6156C0 59.3998 11.9924 71.3846 26.7856 71.3846H17.8572V89.2308H26.7856V107.077C26.7856 112.005 30.783 116 35.7144 116H89.2856C94.217 116 98.2144 112.005 98.2144 107.077V98.1535L116.072 116H125V44.6154H116.072H116.072ZM35.7144 44.6154C35.7144 37.772 28.3572 33.6636 22.3113 36.8931C15.6409 40.4566 16.0776 52.8501 26.7859 53.5384V62.4611C7.08374 61.8331 3.09253 37.5048 17.8369 29.1713C29.771 22.4259 44.6428 30.9285 44.6428 44.6156H35.7141L35.7144 44.6154ZM62.4802 42.2136C50.6023 35.3701 50.6023 18.1683 62.4802 11.3248C74.3579 4.48113 89.2859 13.082 89.2859 26.7692C89.2859 40.4563 74.3579 49.0573 62.48 42.2138L62.4802 42.2136Z" fill="#C08552"/>
</svg>
