<svg width="75" height="60" viewBox="0 0 75 60" fill="none" xmlns="http://www.w3.org/2000/svg">
<path d="M31.8331 27.6163C32.3174 27.2656 32.5512 26.6867 32.5512 25.8907C32.5679 25.5122 32.4899 25.1393 32.323 24.7997C32.1727 24.527 31.95 24.2987 31.6772 24.1373C31.3944 23.9658 31.0803 23.8523 30.7532 23.8033C30.397 23.7365 30.0352 23.7031 29.6789 23.7087H25.7657V28.1451H30.0018C30.731 28.1507 31.3488 27.9726 31.8331 27.6163ZM32.4899 31.6241C31.9444 31.2066 31.2152 31.0007 30.3079 31.0007H25.7546V36.2331H30.2188C30.6363 36.2331 31.0204 36.1941 31.3934 36.1162C31.7462 36.0472 32.0826 35.9112 32.3842 35.7154C32.6681 35.5317 32.8963 35.2813 33.0688 34.9584C33.2358 34.6355 33.3193 34.2236 33.3193 33.7282C33.3193 32.743 33.041 32.0472 32.4899 31.6241ZM36.9375 5C23.1662 5 12 16.1662 12 29.9375C12 43.7088 23.1662 54.875 36.9375 54.875C50.7088 54.875 61.875 43.7088 61.875 29.9375C61.875 16.1662 50.7088 5 36.9375 5ZM41.7524 20.97H49.4563V22.8459H41.7524V20.97ZM36.9375 36.4391C36.5772 37.1231 36.0626 37.7138 35.4346 38.1646C34.7777 38.6211 34.0485 38.9551 33.2748 39.1499C32.4653 39.3668 31.6302 39.4736 30.7922 39.4672H21.5742V20.4802H30.5361C31.4435 20.4802 32.2673 20.5637 33.0188 20.7195C33.7646 20.8754 34.3992 21.1426 34.9336 21.5044C35.4624 21.8662 35.8799 22.3505 36.1749 22.9517C36.4644 23.5473 36.6146 24.2932 36.6146 25.1782C36.6146 26.1356 36.3976 26.9261 35.9634 27.5662C35.5236 28.2063 34.8891 28.724 34.0263 29.1304C35.2008 29.4644 36.0636 30.06 36.6313 30.8949C37.2103 31.741 37.4941 32.7541 37.4941 33.9453C37.4941 34.9139 37.3104 35.7433 36.9375 36.4391ZM52.4566 33.5H42.5262C42.5262 34.5799 42.8991 35.6152 43.4613 36.1719C44.0291 36.7229 44.8418 37.0013 45.905 37.0013C46.6731 37.0013 47.3244 36.8064 47.8811 36.4224C48.4321 36.0383 48.7661 35.6319 48.8886 35.2089H52.2173C51.6829 36.8621 50.8702 38.0422 49.7681 38.7547C48.6771 39.4672 47.3411 39.8234 45.7881 39.8234C44.7026 39.8234 43.7285 39.6453 42.8546 39.3058C42.0141 38.9773 41.257 38.4764 40.6336 37.8307C40.0189 37.1676 39.5438 36.3877 39.2364 35.5373C38.8969 34.5966 38.7299 33.6058 38.741 32.6094C38.741 31.5796 38.9136 30.6222 39.2476 29.7315C39.8877 28.0004 41.2181 26.6144 42.9158 25.8963C43.8231 25.5178 44.7973 25.3285 45.7825 25.3396C46.9515 25.3396 47.9646 25.5623 48.844 26.0188C49.6907 26.4546 50.4259 27.0793 50.9927 27.8445C51.5549 28.6071 51.9501 29.4755 52.2006 30.4552C52.4399 31.4182 52.5234 32.4312 52.4566 33.5ZM45.6656 28.1785C45.0645 28.1785 44.5579 28.2843 44.1683 28.4902C43.7786 28.6962 43.4558 28.9522 43.2108 29.2473C42.9776 29.5321 42.8052 29.8617 42.7043 30.2158C42.6152 30.5108 42.554 30.8114 42.5317 31.1176H48.6826C48.5936 30.1546 48.2596 29.4421 47.8143 28.9411C47.3467 28.4457 46.5952 28.1785 45.6656 28.1785Z" fill="black"/>
</svg>
