<svg width="100" height="100" viewBox="0 0 100 100" fill="none" xmlns="http://www.w3.org/2000/svg">
<g clip-path="url(#clip0_441_537)">
<path d="M52.1347 55.0627C52.3128 51.7252 53.9566 48.7783 56.4128 46.6971C59.007 44.5508 62.2742 43.3869 65.641 43.4096C69.1753 43.4096 72.4285 44.6627 74.8535 46.6971C77.3128 48.7815 78.9378 51.7252 79.1316 55.0627C79.3097 58.4783 77.9441 61.6721 75.5191 64.0283C72.8607 66.5675 69.317 67.97 65.641 67.9377C61.9544 67.972 58.3992 66.5699 55.7285 64.0283C53.3191 61.669 51.9378 58.4783 52.1316 55.0627H52.1347ZM30.6347 61.8002C30.6472 63.1033 31.0722 65.6408 31.6878 67.6252C33.0366 71.8894 35.3033 75.8062 38.3285 79.1002C41.5687 82.6655 45.5218 85.5102 49.9316 87.4502C54.7378 89.5626 59.9349 90.639 65.1847 90.6096C70.4367 90.6256 75.633 89.5341 80.4347 87.4064C84.841 85.4449 88.7921 82.5898 92.0378 79.0221C95.0511 75.7088 97.3112 71.7824 98.6628 67.5127C99.9649 63.3748 100.321 58.9972 99.7035 54.7033C99.1216 50.5911 97.6787 46.648 95.4691 43.1315C93.4326 39.8511 90.8185 36.967 87.7535 34.619L56.441 10.5596C54.391 8.98145 50.941 8.99708 48.6941 10.5596C46.416 12.1565 46.1535 14.794 48.1691 16.469L61.1941 27.0658L21.4316 27.1158C18.141 27.1158 15.0035 29.2627 14.366 32.0002C13.7316 34.7658 15.9441 37.0627 19.3628 37.0752L39.4972 37.0471L3.4316 64.7127C0.0472221 67.3002 -1.0434 71.6283 1.09097 74.3502C3.25347 77.1346 7.86285 77.1346 11.2941 74.3658L30.891 58.3315C30.891 58.3315 30.6003 60.4971 30.6316 61.7971L30.6347 61.8002ZM81.0035 69.0408C76.9535 73.1627 71.3035 75.5033 65.1878 75.5033C59.066 75.519 53.4003 73.2065 49.366 69.1065C47.4579 67.1852 45.986 64.8755 45.0504 62.3346C44.1942 59.9467 43.8561 57.4039 44.0587 54.8752C44.2613 52.3466 44.9999 49.8901 46.2253 47.669C47.4488 45.4778 49.0777 43.5392 51.0253 41.9565C54.9503 38.769 59.9472 37.044 65.1878 37.0283C70.4097 37.0283 75.4097 38.7377 79.3285 41.9252C81.285 43.4939 82.9156 45.4303 84.1285 47.6252C85.3503 49.8033 86.1003 52.2283 86.3129 54.7377C86.5396 57.2914 86.2014 59.8638 85.3222 62.2721C84.3802 64.8099 82.9091 67.1183 81.0066 69.044L81.0035 69.0408Z" fill="#C08552"/>
</g>
<defs>
<clipPath id="clip0_441_537">
<rect width="100" height="100" fill="white"/>
</clipPath>
</defs>
</svg>
