<svg width="82" height="82" viewBox="0 0 82 82" fill="none" xmlns="http://www.w3.org/2000/svg">
<g clip-path="url(#clip0_341_229)">
<path fill-rule="evenodd" clip-rule="evenodd" d="M17.0099 6.82422C12.3352 6.82422 8.87861 10.9155 9.03557 15.348C9.1823 19.6132 8.99121 25.1308 7.60244 29.6315C6.20342 34.1425 3.84899 37.0019 0 37.3705V41.5163C3.84899 41.8814 6.20684 44.7409 7.59902 49.2552C8.99121 53.756 9.1823 59.2735 9.03216 63.5354C8.87861 67.9713 12.3352 72.0625 17.0099 72.0625H64.8903C69.565 72.0625 73.0216 67.9713 72.8646 63.5354C72.7179 59.2735 72.909 53.756 74.2978 49.2552C75.6934 44.7409 78.0444 41.8848 81.8934 41.5163V37.3705C78.0444 37.0019 75.6934 34.1425 74.2978 29.6315C72.909 25.1274 72.7179 19.6098 72.8646 15.348C73.0216 10.9121 69.5616 6.82422 64.8903 6.82422H17.0099ZM55.5169 46.9827C55.5169 53.0906 50.9616 56.7928 43.4035 56.7928H30.536C30.1677 56.7928 29.8144 56.6465 29.554 56.3861C29.2935 56.1256 29.1472 55.7724 29.1472 55.4041V23.4793C29.1481 23.1116 29.2948 22.7592 29.5552 22.4995C29.8155 22.2398 30.1683 22.0939 30.536 22.0939H43.3318C49.6342 22.0939 53.7732 25.5061 53.7732 30.7507C53.7732 34.4291 50.9889 37.7219 47.4436 38.302V38.4931C52.2719 39.022 55.5203 42.3659 55.5203 46.9827H55.5169ZM42.0045 26.4923H34.6682V36.8586H40.8477C45.6249 36.8586 48.2591 34.9341 48.2591 31.4946C48.2591 28.2735 45.9934 26.4923 42.0045 26.4923ZM34.6682 40.9703V52.3911H42.2775C47.2491 52.3911 49.8867 50.3949 49.8867 46.6449C49.8867 42.8914 47.1774 40.9703 41.9567 40.9703H34.6682V40.9703Z" fill="#FFC233"/>
</g>
<defs>
<clipPath id="clip0_341_229">
<rect width="81.8934" height="81.8934" fill="white"/>
</clipPath>
</defs>
</svg>
