<svg width="100" height="41" viewBox="0 0 100 41" fill="none" xmlns="http://www.w3.org/2000/svg">
<rect x="1.5" y="1.5" width="97" height="37.4762" rx="3.5" fill="#FBFBF2" stroke="#C08552" stroke-width="3"/>
<path d="M28.121 25.6667L25.881 22.5167C25.629 22.5447 25.3677 22.5587 25.097 22.5587H22.465V25.6667H21.429V15.8667H25.097C26.3477 15.8667 27.3277 16.1654 28.037 16.7627C28.7463 17.3601 29.101 18.1814 29.101 19.2267C29.101 19.9921 28.905 20.6407 28.513 21.1727C28.1303 21.6954 27.5797 22.0734 26.861 22.3067L29.255 25.6667H28.121ZM25.069 21.6767C26.0397 21.6767 26.7817 21.4621 27.295 21.0327C27.8083 20.6034 28.065 20.0014 28.065 19.2267C28.065 18.4334 27.8083 17.8267 27.295 17.4067C26.7817 16.9774 26.0397 16.7627 25.069 16.7627H22.465V21.6767H25.069ZM38.4762 24.7707V25.6667H31.5462V15.8667H38.2662V16.7627H32.5822V20.2487H37.6502V21.1307H32.5822V24.7707H38.4762ZM42.8154 16.7627H39.3714V15.8667H47.2954V16.7627H43.8514V25.6667H42.8154V16.7627ZM53.0978 25.7507C52.1271 25.7507 51.2451 25.5361 50.4518 25.1067C49.6678 24.6681 49.0518 24.0707 48.6038 23.3147C48.1651 22.5587 47.9458 21.7094 47.9458 20.7667C47.9458 19.8241 48.1651 18.9747 48.6038 18.2187C49.0518 17.4627 49.6678 16.8701 50.4518 16.4407C51.2451 16.0021 52.1271 15.7827 53.0978 15.7827C54.0684 15.7827 54.9411 15.9974 55.7158 16.4267C56.4998 16.8561 57.1158 17.4534 57.5638 18.2187C58.0118 18.9747 58.2358 19.8241 58.2358 20.7667C58.2358 21.7094 58.0118 22.5634 57.5638 23.3287C57.1158 24.0847 56.4998 24.6774 55.7158 25.1067C54.9411 25.5361 54.0684 25.7507 53.0978 25.7507ZM53.0978 24.8267C53.8724 24.8267 54.5724 24.6541 55.1978 24.3087C55.8231 23.9541 56.3131 23.4687 56.6678 22.8527C57.0224 22.2274 57.1998 21.5321 57.1998 20.7667C57.1998 20.0014 57.0224 19.3107 56.6678 18.6947C56.3131 18.0694 55.8231 17.5841 55.1978 17.2387C54.5724 16.8841 53.8724 16.7067 53.0978 16.7067C52.3231 16.7067 51.6184 16.8841 50.9838 17.2387C50.3584 17.5841 49.8638 18.0694 49.4998 18.6947C49.1451 19.3107 48.9678 20.0014 48.9678 20.7667C48.9678 21.5321 49.1451 22.2274 49.4998 22.8527C49.8638 23.4687 50.3584 23.9541 50.9838 24.3087C51.6184 24.6541 52.3231 24.8267 53.0978 24.8267ZM64.5059 25.7507C63.2366 25.7507 62.2472 25.3867 61.5379 24.6587C60.8286 23.9307 60.4739 22.8714 60.4739 21.4807V15.8667H61.5099V21.4387C61.5099 22.5774 61.7666 23.4267 62.2799 23.9867C62.7932 24.5467 63.5352 24.8267 64.5059 24.8267C65.4859 24.8267 66.2326 24.5467 66.7459 23.9867C67.2592 23.4267 67.5159 22.5774 67.5159 21.4387V15.8667H68.5239V21.4807C68.5239 22.8714 68.1692 23.9307 67.4599 24.6587C66.7599 25.3867 65.7752 25.7507 64.5059 25.7507ZM78.3378 25.6667L76.0978 22.5167C75.8458 22.5447 75.5845 22.5587 75.3138 22.5587H72.6818V25.6667H71.6458V15.8667H75.3138C76.5645 15.8667 77.5445 16.1654 78.2538 16.7627C78.9631 17.3601 79.3178 18.1814 79.3178 19.2267C79.3178 19.9921 79.1218 20.6407 78.7298 21.1727C78.3471 21.6954 77.7965 22.0734 77.0778 22.3067L79.4718 25.6667H78.3378ZM75.2858 21.6767C76.2565 21.6767 76.9985 21.4621 77.5118 21.0327C78.0251 20.6034 78.2818 20.0014 78.2818 19.2267C78.2818 18.4334 78.0251 17.8267 77.5118 17.4067C76.9985 16.9774 76.2565 16.7627 75.2858 16.7627H72.6818V21.6767H75.2858Z" fill="#A22522"/>
</svg>
