<svg width="117" height="47" viewBox="0 0 117 47" fill="none" xmlns="http://www.w3.org/2000/svg">
<path d="M0 5C0 2.23858 2.23858 0 5 0H112C114.761 0 117 2.23858 117 5V42C117 44.7614 114.761 47 112 47H5C2.23858 47 0 44.7614 0 42V5Z" fill="#FBFBF2"/>
<path d="M5 3H112V-3H5V3ZM114 5V42H120V5H114ZM112 44H5V50H112V44ZM3 42V5H-3V42H3ZM5 44C3.89543 44 3 43.1046 3 42H-3C-3 46.4183 0.581721 50 5 50V44ZM114 42C114 43.1046 113.105 44 112 44V50C116.418 50 120 46.4183 120 42H114ZM112 3C113.105 3 114 3.89543 114 5H120C120 0.581723 116.418 -3 112 -3V3ZM5 -3C0.581723 -3 -3 0.581721 -3 5H3C3 3.89543 3.89543 3 5 3V-3Z" fill="#FFC233"/>
<path d="M11.3245 33.492V16.644H14.6185V17.706H12.6025V32.43H14.6185V33.492H11.3245ZM21.7659 30V17.4H26.4819C27.5499 17.4 28.4679 17.574 29.2359 17.922C30.0039 18.258 30.5919 18.75 30.9999 19.398C31.4199 20.034 31.6299 20.808 31.6299 21.72C31.6299 22.608 31.4199 23.376 30.9999 24.024C30.5919 24.66 30.0039 25.152 29.2359 25.5C28.4679 25.836 27.5499 26.004 26.4819 26.004H22.5039L23.0979 25.392V30H21.7659ZM30.3699 30L27.1299 25.428H28.5699L31.8279 30H30.3699ZM23.0979 25.5L22.5039 24.87H26.4459C27.7059 24.87 28.6599 24.594 29.3079 24.042C29.9679 23.49 30.2979 22.716 30.2979 21.72C30.2979 20.712 29.9679 19.932 29.3079 19.38C28.6599 18.828 27.7059 18.552 26.4459 18.552H22.5039L23.0979 17.922V25.5ZM35.9617 23.034H42.6217V24.168H35.9617V23.034ZM36.1057 28.848H43.6837V30H34.7737V17.4H43.4137V18.552H36.1057V28.848ZM49.2627 30V18.552H44.8347V17.4H55.0227V18.552H50.5947V30H49.2627ZM62.4829 30.108C61.5349 30.108 60.6529 29.952 59.8369 29.64C59.0329 29.316 58.3309 28.866 57.7309 28.29C57.1429 27.702 56.6809 27.024 56.3449 26.256C56.0209 25.476 55.8589 24.624 55.8589 23.7C55.8589 22.776 56.0209 21.93 56.3449 21.162C56.6809 20.382 57.1429 19.704 57.7309 19.128C58.3309 18.54 59.0329 18.09 59.8369 17.778C60.6409 17.454 61.5229 17.292 62.4829 17.292C63.4309 17.292 64.3069 17.454 65.1109 17.778C65.9149 18.09 66.6109 18.534 67.1989 19.11C67.7989 19.686 68.2609 20.364 68.5849 21.144C68.9209 21.924 69.0889 22.776 69.0889 23.7C69.0889 24.624 68.9209 25.476 68.5849 26.256C68.2609 27.036 67.7989 27.714 67.1989 28.29C66.6109 28.866 65.9149 29.316 65.1109 29.64C64.3069 29.952 63.4309 30.108 62.4829 30.108ZM62.4829 28.92C63.2389 28.92 63.9349 28.794 64.5709 28.542C65.2189 28.278 65.7769 27.912 66.2449 27.444C66.7249 26.964 67.0969 26.412 67.3609 25.788C67.6249 25.152 67.7569 24.456 67.7569 23.7C67.7569 22.944 67.6249 22.254 67.3609 21.63C67.0969 20.994 66.7249 20.442 66.2449 19.974C65.7769 19.494 65.2189 19.128 64.5709 18.876C63.9349 18.612 63.2389 18.48 62.4829 18.48C61.7269 18.48 61.0249 18.612 60.3769 18.876C59.7289 19.128 59.1649 19.494 58.6849 19.974C58.2169 20.442 57.8449 20.994 57.5689 21.63C57.3049 22.254 57.1729 22.944 57.1729 23.7C57.1729 24.444 57.3049 25.134 57.5689 25.77C57.8449 26.406 58.2169 26.964 58.6849 27.444C59.1649 27.912 59.7289 28.278 60.3769 28.542C61.0249 28.794 61.7269 28.92 62.4829 28.92ZM77.1505 30.108C75.5425 30.108 74.2765 29.646 73.3525 28.722C72.4285 27.798 71.9665 26.43 71.9665 24.618V17.4H73.2985V24.564C73.2985 26.052 73.6345 27.15 74.3065 27.858C74.9785 28.566 75.9265 28.92 77.1505 28.92C78.3865 28.92 79.3405 28.566 80.0125 27.858C80.6845 27.15 81.0205 26.052 81.0205 24.564V17.4H82.3165V24.618C82.3165 26.43 81.8545 27.798 80.9305 28.722C80.0185 29.646 78.7585 30.108 77.1505 30.108ZM86.3303 30V17.4H91.0463C92.1143 17.4 93.0323 17.574 93.8003 17.922C94.5683 18.258 95.1563 18.75 95.5643 19.398C95.9843 20.034 96.1943 20.808 96.1943 21.72C96.1943 22.608 95.9843 23.376 95.5643 24.024C95.1563 24.66 94.5683 25.152 93.8003 25.5C93.0323 25.836 92.1143 26.004 91.0463 26.004H87.0683L87.6623 25.392V30H86.3303ZM94.9343 30L91.6943 25.428H93.1343L96.3923 30H94.9343ZM87.6623 25.5L87.0683 24.87H91.0103C92.2703 24.87 93.2243 24.594 93.8723 24.042C94.5323 23.49 94.8623 22.716 94.8623 21.72C94.8623 20.712 94.5323 19.932 93.8723 19.38C93.2243 18.828 92.2703 18.552 91.0103 18.552H87.0683L87.6623 17.922V25.5ZM105.669 33.492H102.375V32.43H104.391V17.706H102.375V16.644H105.669V33.492Z" fill="black"/>
</svg>
