<svg width="74" height="73" viewBox="0 0 74 73" fill="none" xmlns="http://www.w3.org/2000/svg">
<g clip-path="url(#clip0_507_189)">
<path d="M36.922 0.0742188C16.786 0.0742188 0.472656 16.3876 0.472656 36.5236C0.472656 56.6596 16.786 72.9729 36.922 72.9729C57.058 72.9729 73.3714 56.6596 73.3714 36.5236C73.3714 16.3876 57.058 0.0742188 36.922 0.0742188ZM21.6156 23.4018C23.905 23.4018 25.6865 25.0716 25.887 27.0445C26.1034 28.8236 25.3653 30.3796 23.397 31.3159C22.3514 31.8376 21.9368 31.8376 21.7226 31.5277C21.6156 31.3159 21.7226 31.1154 21.9345 30.899C23.8116 29.3476 23.8116 28.0901 23.5952 26.3223C23.4881 25.1719 22.6589 24.4452 21.8274 24.4452C18.1734 24.4452 12.9771 32.562 13.6992 38.5055C14.0204 40.795 15.3736 43.5013 18.2804 43.5013C19.219 43.5013 20.2647 43.1915 21.1987 42.7792C22.7182 41.9705 23.6317 41.3554 24.5338 40.3462C24.3083 37.6512 26.6684 34.1293 30.1561 34.1293C31.7234 34.1293 32.9695 34.7581 33.0743 35.9085C33.2771 37.4644 31.9239 37.6763 31.5093 37.6763C31.0924 37.6763 30.3589 37.5692 30.3589 37.1546C30.2654 36.7377 31.2951 36.9427 31.1995 36.0042C31.0924 35.3754 30.4636 35.1749 29.8486 35.1749C27.6525 35.1749 26.4064 38.2002 26.7162 40.0614C26.8233 40.9021 27.2356 41.7358 28.0808 41.7358C28.6981 41.7358 29.6367 40.7973 29.942 39.4464C30.1538 38.5078 30.9876 37.879 31.7211 37.879C32.031 37.879 32.2314 37.9861 32.3385 38.4007V38.8176C32.2451 39.2345 31.9216 40.492 32.031 40.7973C32.031 41.0137 32.138 41.3189 32.5504 41.3189C32.8237 41.3189 33.8694 40.7722 34.9127 39.9179C35.2567 38.1251 35.6713 35.9791 35.6713 35.8014C35.7784 35.0656 36.0882 34.3412 37.5462 34.3412C37.8651 34.3412 38.0679 34.4482 38.175 34.8629V35.2797L37.7581 37.1546C39.1135 35.3868 41.0932 34.1407 42.3393 34.1407C42.861 34.1407 43.2779 34.4482 43.2779 34.9699C43.2779 35.2797 43.2779 35.8014 43.0615 36.3254C42.6491 37.4644 42.1252 39.2436 41.8153 40.7973C41.8153 41.2142 41.9224 41.6288 42.4441 41.6288C42.9658 41.6288 44.5217 41.0114 45.7678 39.3393L45.7929 39.3279C45.7929 39.1251 45.7678 38.9247 45.7678 38.7242C45.7678 37.4667 45.8749 36.4347 46.089 35.6989C46.3009 34.8674 47.3351 34.143 47.9639 34.143C48.2714 34.143 48.5926 34.3434 48.5926 34.6533C48.5926 34.7603 48.5926 34.9722 48.4856 35.0702C48.0687 36.4347 47.7475 37.6786 47.7475 38.9247C47.7475 39.6605 47.8568 40.6925 48.0687 41.3212C48.0687 41.4283 48.1621 41.5331 48.2692 41.5331C48.4856 41.5331 49.9435 40.1822 50.9755 38.4007C50.0369 37.7834 49.5153 36.74 49.5153 35.4939C49.5153 33.3001 50.8821 32.1588 52.1282 32.1588C53.1739 32.1588 54.0031 32.8855 54.0031 34.3434C54.0031 35.282 53.6933 36.3277 53.1739 37.2617H53.4814C54.1466 37.2867 54.8004 37.0134 55.2492 36.5395C55.3483 36.381 55.4939 36.2569 55.6661 36.1841C56.6867 34.8902 58.1811 33.9311 59.9489 33.9311C61.4069 33.9311 62.7487 34.5599 62.8557 35.6989C63.0676 37.264 61.7053 37.5738 61.2884 37.5738C60.8761 37.5738 60.1403 37.4667 60.1403 37.0521C60.1403 36.6375 61.0765 36.8402 60.9809 35.913C60.8738 35.2843 60.245 35.0724 59.6163 35.0724C57.5387 35.0724 56.1878 37.7765 56.493 39.9726C56.6001 40.8018 57.0147 41.7404 57.8485 41.7404C58.4773 41.7404 59.4135 40.8018 59.8282 39.4509C60.0286 38.6217 60.8738 37.8836 61.5959 37.8836C61.9149 37.8836 62.1176 37.9907 62.2247 38.4053C62.2247 38.6217 62.2247 39.034 61.8078 40.3895C61.2861 41.3258 61.2861 41.8475 61.3955 42.2643C61.4889 43.0936 61.9058 43.7223 62.3318 44.0321C62.4079 44.1288 62.4757 44.2316 62.5345 44.3397C62.5345 44.5561 62.4252 44.768 62.1176 44.768C62.0106 44.768 61.9149 44.768 61.8078 44.6609C60.2428 44.0321 59.614 42.9865 59.4113 41.9431C58.7825 42.679 58.0604 43.0936 57.2175 43.0936C55.862 43.0936 54.5225 41.8475 54.3106 40.2801C54.2459 39.6155 54.3227 38.9446 54.5362 38.3119C53.9188 38.7037 53.2536 38.9292 52.6385 38.9292H52.1282C50.7637 40.9089 49.3034 42.2643 48.2714 42.8817C47.916 43.0711 47.5232 43.18 47.121 43.2006C46.9205 43.2006 46.6016 43.0936 46.5036 42.8817C46.2098 42.4193 46.0298 41.6948 45.9113 40.8656C44.4511 42.4534 42.4327 43.3077 41.4987 43.3077C40.453 43.3077 39.838 42.679 39.7309 41.6379V40.4988C40.0384 38.2094 40.8813 36.8448 40.8813 36.4279C40.8752 36.373 40.8504 36.322 40.8109 36.2834C40.7715 36.2447 40.7199 36.221 40.6649 36.216C39.9428 36.216 37.5462 38.7196 37.1293 40.3918L36.8104 41.7427C36.6076 42.679 35.6713 43.3077 35.0426 43.3077C34.7328 43.3077 34.5209 43.2006 34.4252 42.7883V42.3714L34.5551 41.6607C33.2361 42.5969 31.9193 43.2006 31.2906 43.2006C30.3543 43.2006 29.8326 42.679 29.7392 41.9431C29.1105 42.7883 28.3838 43.2006 27.4497 43.2006C26.3676 43.2006 25.3266 42.4648 24.8277 41.3987C24.0782 42.2393 23.2353 43.0822 22.2398 43.7223C20.7818 44.6609 19.1211 45.383 17.1368 45.383C15.3691 45.383 13.804 44.4445 12.9725 43.6153C11.715 42.4648 10.9929 40.697 10.8858 39.034C10.2684 33.9334 13.3894 27.3702 18.1688 24.452C19.3193 23.8233 20.472 23.4109 21.611 23.4109L21.6156 23.4018ZM51.2899 33.4049C50.9823 33.4049 50.7705 33.9266 50.7705 34.4346C50.7705 35.2797 51.1828 36.2138 51.7068 36.7377C51.9157 36.1676 52.0244 35.5657 52.028 34.9585C52.028 33.9288 51.6111 33.4072 51.2899 33.4072V33.4049Z" fill="#FFC233"/>
</g>
<defs>
<clipPath id="clip0_507_189">
<rect width="72.8987" height="72.8987" fill="white" transform="translate(0.472656 0.0742188)"/>
</clipPath>
</defs>
</svg>
