<svg width="150" height="120" viewBox="0 0 150 120" fill="none" xmlns="http://www.w3.org/2000/svg">
<path d="M115 57.2501C115.015 63.1895 113.628 69.0486 110.95 74.3501C107.775 80.703 102.894 86.0464 96.8535 89.7819C90.8132 93.5174 83.8521 95.4974 76.75 95.5001C70.8106 95.5156 64.9515 94.1279 59.65 91.4501L34 100L42.55 74.3501C39.8722 69.0486 38.4845 63.1895 38.5 57.2501C38.5027 50.148 40.4828 43.187 44.2182 37.1466C47.9537 31.1062 53.2971 26.2252 59.65 23.0501C64.9515 20.3723 70.8106 18.9846 76.75 19.0001H79C88.3796 19.5176 97.2387 23.4766 103.881 30.119C110.524 36.7614 114.483 45.6206 115 55.0001V57.2501Z" stroke="#FFC233" stroke-width="9" stroke-linecap="round" stroke-linejoin="round"/>
</svg>
