<svg width="83" height="83" viewBox="0 0 83 83" fill="none" xmlns="http://www.w3.org/2000/svg">
<g clip-path="url(#clip0_341_259)">
<path d="M26.3203 0.779297H35.0891V4.45767H29.987V8.13605H35.0891V11.8144H26.3203V0.779297Z" fill="#FFC233"/>
<path d="M36.8398 0.779297H45.612V3.97996H40.5099V4.61805H45.612V11.9748H36.8398V8.61718H41.9419V7.97568H36.8398V0.779297Z" fill="#FFC233"/>
<path d="M47.3672 0.779297H56.1326V3.97996H51.0305V4.61805H56.1326V11.9748H47.3672V8.61718H52.4693V7.97568H47.3672V0.779297Z" fill="#FFC233"/>
<path fill-rule="evenodd" clip-rule="evenodd" d="M41.5897 82.6729L17.9705 76.0941L11.0078 16.875H72.2329L65.2736 76.0873L41.5897 82.6729ZM24.7732 43.6814L25.4229 50.9426H50.515L49.6748 60.3604L41.5999 62.551H41.5931L33.5318 60.3672L33.0148 54.5767H25.746L26.7597 65.9803L41.5897 70.1091L56.4436 65.9803L58.2531 45.6298L58.43 43.6814L59.7362 28.9782H23.4705L24.1304 36.2428H51.8041L51.1442 43.6814H24.7732V43.6814Z" fill="#FFC233"/>
</g>
<defs>
<clipPath id="clip0_341_259">
<rect width="81.6334" height="81.8934" fill="white" transform="translate(0.804688 0.78125)"/>
</clipPath>
</defs>
</svg>
