<svg width="100" height="100" viewBox="0 0 100 100" fill="none" xmlns="http://www.w3.org/2000/svg">
<g clip-path="url(#clip0_441_563)">
<path d="M31.2588 0H42.0005V4.49167H35.7505V8.98333H42.0005V13.475H31.2588V0Z" fill="#C08552"/>
<path d="M44.1455 0H54.8913V3.90833H48.6413V4.6875H54.8913V13.6708H44.1455V9.57083H50.3955V8.7875H44.1455V0Z" fill="#C08552"/>
<path d="M57.042 0H67.7795V3.90833H61.5295V4.6875H67.7795V13.6708H57.042V9.57083H63.292V8.7875H57.042V0Z" fill="#C08552"/>
<path fill-rule="evenodd" clip-rule="evenodd" d="M49.9625 100L21.0292 91.9668L12.5 19.6543H87.5L78.975 91.9585L49.9625 100ZM29.3625 52.3876L30.1583 61.2543H60.8958L59.8667 72.7543L49.975 75.4293H49.9667L40.0917 72.7626L39.4583 65.6918H30.5542L31.7958 79.6168L49.9625 84.6585L68.1583 79.6168L70.375 54.7668L70.5917 52.3876L72.1917 34.4335H27.7667L28.575 43.3043H62.475L61.6667 52.3876H29.3625Z" fill="#C08552"/>
</g>
<defs>
<clipPath id="clip0_441_563">
<rect width="100" height="100" fill="white"/>
</clipPath>
</defs>
</svg>
