<svg width="100" height="100" viewBox="0 0 100 100" fill="none" xmlns="http://www.w3.org/2000/svg">
<path d="M50 4C24.6186 4 4 24.6186 4 50C4 75.3814 24.6186 96 50 96C75.3814 96 96 75.3814 96 50C96 24.6186 75.3814 4 50 4ZM50 8C73.2197 8 92 26.7803 92 50C92 73.2197 73.2197 92 50 92C26.7803 92 8 73.2197 8 50C8 26.7803 26.7803 8 50 8ZM50 16C42.367 16 36 21.8796 36 29.2305C36 36.8183 42.6004 44.39 48.7148 49.5273C49.075 49.8293 49.53 49.9948 50 49.9948C50.47 49.9948 50.925 49.8293 51.2852 49.5273C57.3977 44.3919 64 36.8187 64 29.2305C64 21.8807 57.631 16.0023 50 16ZM50 20C55.601 20.0017 60 24.2002 60 29.2305C60 33.8045 55.127 40.3259 50 45.0508C44.8716 40.3246 40 33.8048 40 29.2305C40 24.1974 44.397 20 50 20ZM31.0586 49.9102C27.9342 49.9836 24.9757 50.6014 22.4883 52.0234C16.0619 55.6997 14.1248 64.1797 17.9844 70.8008C21.8464 77.4221 30.19 79.9868 36.6172 76.3125V76.3164C43.2507 72.5265 46.56 63.0005 47.9688 55.1211C48.0519 54.6559 47.9676 54.1764 47.731 53.7674C47.4943 53.3584 47.1205 53.0464 46.6758 52.8867C42.8816 51.5221 38.4958 50.3567 34.2266 50.0078C33.1593 49.9206 32.1001 49.8857 31.0586 49.9102ZM68.9453 49.9141C67.9042 49.8898 66.8446 49.9246 65.7773 50.0117C61.5085 50.3604 57.1194 51.5221 53.3242 52.8867C52.8795 53.0464 52.5057 53.3584 52.269 53.7674C52.0324 54.1764 51.9481 54.6559 52.0312 55.1211C53.4399 62.9981 56.7479 72.5247 63.3828 76.3164C69.81 79.9884 78.1536 77.4221 82.0156 70.8008C85.8775 64.1797 83.9407 55.6975 77.5117 52.0234C75.0245 50.6024 72.0687 49.9868 68.9453 49.9141ZM31.1562 54.0938C32.048 54.0825 32.9744 54.1155 33.9219 54.1875C37.0859 54.428 40.3735 55.2931 43.4414 56.2422C41.8956 63.0542 38.6545 70.5422 34.6328 72.8398C30.208 75.3695 24.2754 73.6439 21.4414 68.7852C18.609 63.9262 20.051 58.0239 24.4766 55.4922V55.4961C26.1216 54.5556 28.4809 54.1274 31.1562 54.0938ZM68.8438 54.0977C71.5201 54.1304 73.8821 54.5561 75.5273 55.4961C79.9544 58.0261 81.3927 63.9262 78.5586 68.7852C75.7246 73.6439 69.792 75.3717 65.3672 72.8438C61.3433 70.5442 58.1042 63.0566 56.5586 56.2461C59.6271 55.2971 62.9142 54.4317 66.0781 54.1914C67.0255 54.1194 67.9516 54.0868 68.8438 54.0977Z" fill="#C08552"/>
</svg>
