<svg width="118" height="118" viewBox="0 0 118 118" fill="none" xmlns="http://www.w3.org/2000/svg">
<path d="M33.7479 85.3277L44.1378 82.3307L106.695 19.0274C107.189 18.5218 107.464 17.8423 107.46 17.1359C107.457 16.4294 107.176 15.7526 106.678 15.2516L102.931 11.464C102.689 11.2153 102.4 11.0173 102.08 10.8815C101.761 10.7457 101.418 10.675 101.071 10.6733C100.723 10.6717 100.379 10.7392 100.059 10.8719C99.738 11.0046 99.4469 11.1999 99.2024 11.4463L36.81 74.5844L33.742 85.3218L33.7479 85.3277ZM110.348 3.95967L114.094 7.75315C119.262 12.9861 119.31 21.4286 114.188 26.6084L49.7251 91.8468L27.5176 98.2421C26.1617 98.6215 24.7107 98.4477 23.4829 97.7586C22.2551 97.0695 21.3509 95.9215 20.9686 94.5666C20.6841 93.5924 20.68 92.5577 20.9568 91.5813L27.4173 68.9267L91.7095 3.85938C92.932 2.62846 94.3874 1.65327 95.9908 0.990687C97.5941 0.328101 99.3134 -0.00861887 101.048 0.000167626C102.783 0.00895412 104.499 0.363071 106.096 1.04186C107.692 1.72066 109.138 2.71054 110.348 3.95378V3.95967ZM42.3855 10.762C45.3119 10.762 47.6837 13.1631 47.6837 16.1248C47.6884 16.8249 47.555 17.519 47.2912 18.1675C47.0274 18.8161 46.6383 19.4062 46.1463 19.9043C45.6542 20.4023 45.0688 20.7985 44.4235 21.0702C43.7782 21.3419 43.0857 21.4837 42.3855 21.4875H21.1928C15.34 21.4875 10.5964 26.2899 10.5964 32.2072V96.5489C10.5964 102.472 15.34 107.274 21.1928 107.274H84.7711C90.6239 107.274 95.3734 102.472 95.3734 96.5489V75.1036C95.3734 72.142 97.7451 69.7408 100.672 69.7408C103.598 69.7408 105.97 72.142 105.97 75.1095V96.5489C105.97 108.395 96.4767 118 84.7711 118H21.1928C9.48719 118 0 108.395 0 96.5489V32.2072C0 20.3666 9.48719 10.762 21.1928 10.762H42.3855V10.762Z" fill="#C08552"/>
</svg>
