<svg width="150" height="120" viewBox="0 0 150 120" fill="none" xmlns="http://www.w3.org/2000/svg">
<path d="M53.458 82.481L62.5271 79.8649L117.132 24.6087C117.563 24.1673 117.803 23.5743 117.8 22.9576C117.797 22.3409 117.552 21.7501 117.117 21.3128L113.847 18.0067C113.635 17.7896 113.383 17.6168 113.104 17.4982C112.825 17.3797 112.526 17.318 112.223 17.3165C111.92 17.3151 111.619 17.374 111.339 17.4899C111.059 17.6057 110.805 17.7762 110.592 17.9913L56.1308 73.1034L53.4528 82.4758L53.458 82.481ZM120.32 11.4563L123.591 14.7676C128.102 19.3354 128.143 26.7046 123.673 31.226L67.4041 88.1714L48.0196 93.7537C46.8361 94.0849 45.5695 93.9331 44.4978 93.3316C43.4261 92.7302 42.6368 91.7281 42.3031 90.5454C42.0547 89.695 42.0512 88.7919 42.2928 87.9396L47.932 68.1648L104.051 11.3688C105.119 10.2943 106.389 9.44311 107.789 8.86475C109.188 8.28639 110.689 7.99248 112.203 8.00015C113.718 8.00782 115.215 8.31692 116.609 8.90942C118.002 9.50193 119.264 10.366 120.32 11.4512V11.4563ZM60.9975 17.3939C63.5519 17.3939 65.6222 19.4899 65.6222 22.075C65.6263 22.6861 65.5099 23.292 65.2796 23.8581C65.0493 24.4242 64.7097 24.9393 64.2802 25.3741C63.8507 25.8088 63.3397 26.1546 62.7764 26.3918C62.2132 26.6289 61.6087 26.7527 60.9975 26.7561H42.4988C37.39 26.7561 33.2494 30.9479 33.2494 36.1131V92.2757C33.2494 97.446 37.39 101.638 42.4988 101.638H97.9951C103.104 101.638 107.25 97.446 107.25 92.2757V73.5565C107.25 70.9714 109.32 68.8755 111.874 68.8755C114.429 68.8755 116.499 70.9714 116.499 73.5617V92.2757C116.499 102.616 108.213 111 97.9951 111H42.4988C32.2812 111 24 102.616 24 92.2757V36.1131C24 25.7776 32.2812 17.3939 42.4988 17.3939H60.9975V17.3939Z" fill="#FFC233"/>
</svg>
