<svg width="68" height="67" viewBox="0 0 68 67" fill="none" xmlns="http://www.w3.org/2000/svg">
<path d="M57.7487 7.34961H10.1964C9.05282 7.34961 8.12891 8.27352 8.12891 9.4171V56.9694C8.12891 58.1129 9.05282 59.0368 10.1964 59.0368H57.7487C58.8922 59.0368 59.8161 58.1129 59.8161 56.9694V9.4171C59.8161 8.27352 58.8922 7.34961 57.7487 7.34961ZM51.7788 22.4358H47.6503C44.4133 22.4358 43.7866 23.9735 43.7866 26.2348V31.2162H51.5139L50.506 39.0145H43.7866V59.0368H35.7299V39.021H28.9912V31.2162H35.7299V25.466C35.7299 18.7919 39.8067 15.1544 45.7637 15.1544C48.6194 15.1544 51.0681 15.3676 51.7852 15.4645V22.4358H51.7788Z" fill="#FFC233"/>
</svg>
