<svg width="74" height="74" viewBox="0 0 74 74" fill="none" xmlns="http://www.w3.org/2000/svg">
<g clip-path="url(#clip0_341_231)">
<path fill-rule="evenodd" clip-rule="evenodd" d="M26.3474 0.660156C18.9519 0.660156 13.0041 6.86485 13.0041 14.4658C13.0041 19.0869 15.2043 23.1911 18.5862 25.6965C16.8432 27.0024 15.4304 28.6985 14.461 30.6488C13.4916 32.5991 12.9927 34.7493 13.0041 36.9272C13.0041 41.5513 15.2043 45.6525 18.5862 48.1579C16.8432 49.4638 15.4304 51.1599 14.461 53.1102C13.4916 55.0605 12.9927 57.2107 13.0041 59.3886C13.0041 66.9896 18.9519 73.1943 26.3474 73.1943C33.7398 73.1943 39.6906 66.9896 39.6906 59.3886V47.7167C42.0278 49.6654 44.9739 50.7337 48.0169 50.7359C55.4124 50.7329 61.3602 44.5282 61.3602 36.9272C61.3602 32.3032 59.163 28.202 55.7781 25.6965C57.5211 24.3907 58.9339 22.6946 59.9033 20.7443C60.8727 18.794 61.3716 16.6437 61.3602 14.4658C61.3602 6.86485 55.4124 0.660156 48.0169 0.660156H26.3474V0.660156ZM18.018 14.4658C18.018 9.65741 21.7717 5.80706 26.3474 5.80706H34.6737V23.1246H26.3474C21.7717 23.1246 18.018 19.2712 18.018 14.4658V14.4658ZM48.0169 23.1216H39.6906V5.80404H48.0169C52.5957 5.80404 56.3463 9.65741 56.3463 14.4658C56.3463 19.2712 52.5957 23.1216 48.0169 23.1216ZM18.021 36.9272C18.021 32.1218 21.7747 28.2685 26.3504 28.2685H34.6767V45.586H26.3474C21.7686 45.586 18.018 41.7326 18.018 36.9272H18.021ZM39.6906 36.9272C39.6906 32.1218 43.4443 28.2685 48.02 28.2685C52.5987 28.2685 56.3493 32.1188 56.3493 36.9272C56.3493 41.7326 52.5987 45.586 48.02 45.586C43.4443 45.586 39.6936 41.7356 39.6936 36.9272H39.6906ZM18.021 59.3886C18.021 54.5832 21.7747 50.7329 26.3504 50.7329H34.6767V59.3886C34.6767 64.197 30.9291 68.0474 26.3504 68.0474C21.7747 68.0474 18.021 64.197 18.021 59.3886Z" fill="#FFC233"/>
</g>
<defs>
<clipPath id="clip0_341_231">
<rect width="72.5341" height="72.5341" fill="white" transform="translate(0.917969 0.660156)"/>
</clipPath>
</defs>
</svg>
