<svg width="100" height="100" viewBox="0 0 100 100" fill="none" xmlns="http://www.w3.org/2000/svg">
<g clip-path="url(#clip0_441_523)">
<path fill-rule="evenodd" clip-rule="evenodd" d="M35.0621 0C24.8663 0 16.6663 8.55416 16.6663 19.0333C16.6663 25.4042 19.6996 31.0625 24.3621 34.5167C21.9591 36.317 20.0113 38.6553 18.6749 41.3441C17.3384 44.0329 16.6505 46.9974 16.6663 50C16.6663 56.375 19.6996 62.0292 24.3621 65.4833C21.9591 67.2837 20.0113 69.622 18.6749 72.3108C17.3384 74.9996 16.6505 77.9641 16.6663 80.9667C16.6663 91.4458 24.8663 100 35.0621 100C45.2538 100 53.4579 91.4458 53.4579 80.9667V64.875C56.6802 67.5616 60.7418 69.0344 64.9371 69.0375C75.1329 69.0333 83.3329 60.4792 83.3329 50C83.3329 43.625 80.3038 37.9708 75.6371 34.5167C78.0401 32.7163 79.9879 30.378 81.3243 27.6892C82.6608 25.0004 83.3487 22.0359 83.3329 19.0333C83.3329 8.55416 75.1329 0 64.9371 0H35.0621ZM23.5788 19.0333C23.5788 12.4042 28.7538 7.09583 35.0621 7.09583H46.5413V30.9708H35.0621C28.7538 30.9708 23.5788 25.6583 23.5788 19.0333ZM64.9371 30.9667H53.4579V7.09167H64.9371C71.2496 7.09167 76.4204 12.4042 76.4204 19.0333C76.4204 25.6583 71.2496 30.9667 64.9371 30.9667ZM23.5829 50C23.5829 43.375 28.7579 38.0625 35.0663 38.0625H46.5454V61.9375H35.0621C28.7496 61.9375 23.5788 56.625 23.5788 50H23.5829ZM53.4579 50C53.4579 43.375 58.6329 38.0625 64.9413 38.0625C71.2538 38.0625 76.4246 43.3708 76.4246 50C76.4246 56.625 71.2538 61.9375 64.9413 61.9375C58.6329 61.9375 53.4621 56.6292 53.4621 50H53.4579ZM23.5829 80.9667C23.5829 74.3417 28.7579 69.0333 35.0663 69.0333H46.5454V80.9667C46.5454 87.5958 41.3788 92.9042 35.0663 92.9042C28.7579 92.9042 23.5829 87.5958 23.5829 80.9667Z" fill="#C08552"/>
</g>
<defs>
<clipPath id="clip0_441_523">
<rect width="100" height="100" fill="white"/>
</clipPath>
</defs>
</svg>
