<svg width="83" height="82" viewBox="0 0 83 82" fill="none" xmlns="http://www.w3.org/2000/svg">
<g clip-path="url(#clip0_341_265)">
<path fill-rule="evenodd" clip-rule="evenodd" d="M41.2826 0C18.6596 0 0.335938 18.3236 0.335938 40.9467C0.335938 59.0656 12.0569 74.3694 28.3332 79.7949C30.3806 80.1532 31.1483 78.9248 31.1483 77.8499C31.1483 76.8774 31.0971 73.6529 31.0971 70.2236C20.8093 72.1174 18.1477 67.7156 17.3288 65.4123C16.8682 64.2351 14.872 60.6011 13.1318 59.6286C11.6986 58.8609 9.65131 56.9671 13.0806 56.9159C16.3051 56.8647 18.6084 59.8845 19.3762 61.1129C23.0614 67.3061 28.9474 65.5659 31.3019 64.491C31.6602 61.8295 32.735 60.0381 33.9122 59.0144C24.8016 57.9908 15.2815 54.4591 15.2815 38.797C15.2815 34.344 16.8682 30.6588 19.4785 27.7926C19.0691 26.7689 17.6359 22.5719 19.888 16.9417C19.888 16.9417 23.3173 15.8668 31.1483 21.1387C34.4241 20.2174 37.9045 19.7568 41.385 19.7568C44.8655 19.7568 48.3459 20.2174 51.6217 21.1387C59.4527 15.8157 62.882 16.9417 62.882 16.9417C65.1341 22.5719 63.7009 26.7689 63.2915 27.7926C65.9018 30.6588 67.4885 34.2929 67.4885 38.797C67.4885 54.5103 57.9172 57.9908 48.8066 59.0144C50.2909 60.294 51.5705 62.7508 51.5705 66.5896C51.5705 72.0662 51.5193 76.468 51.5193 77.8499C51.5193 78.9248 52.2871 80.2043 54.3344 79.7949C62.4629 77.0505 69.5262 71.8262 74.5302 64.8574C79.5342 57.8886 82.2269 49.526 82.2293 40.9467C82.2293 18.3236 63.9057 0 41.2826 0Z" fill="#FFC233"/>
</g>
<defs>
<clipPath id="clip0_341_265">
<rect width="81.8934" height="81.8934" fill="white" transform="translate(0.335938)"/>
</clipPath>
</defs>
</svg>
