<svg width="75" height="60" viewBox="0 0 75 60" fill="none" xmlns="http://www.w3.org/2000/svg">
<path d="M38 51C49.5983 51 59 41.5983 59 30C59 18.4017 49.5983 9 38 9C26.4017 9 17 18.4017 17 30C17 41.5983 26.4017 51 38 51Z" stroke="black" stroke-width="4" stroke-linecap="round" stroke-linejoin="round"/>
<path d="M42.8978 44.6992V40.7869C42.9503 40.1359 42.86 39.4849 42.6332 38.8696C42.4048 38.2539 42.0467 37.6946 41.5832 37.2295C45.9785 36.7528 50.5985 35.1295 50.5985 27.6871C50.5985 25.7845 49.8467 23.9533 48.4985 22.5757C49.1372 20.9127 49.0919 19.0646 48.3725 17.4349C48.3725 17.4349 46.7198 16.9582 42.8978 19.453C39.6864 18.6064 36.3105 18.6064 33.0992 19.453C29.2772 16.9582 27.6245 17.437 27.6245 17.437C26.9062 19.0655 26.8609 20.9119 27.4985 22.5736C26.1471 23.947 25.3925 25.7982 25.3985 27.7249C25.3985 35.1148 30.0185 36.736 34.4138 37.2673C33.9552 37.7283 33.6002 38.2817 33.3722 38.8906C33.1458 39.495 33.0527 40.1411 33.0992 40.7848V44.6992" stroke="black" stroke-width="3" stroke-linecap="round" stroke-linejoin="round"/>
<path d="M33.1015 41.9736C28.9015 43.2987 25.4008 41.9736 23.3008 37.8828" stroke="black" stroke-width="3" stroke-linecap="round" stroke-linejoin="round"/>
</svg>
