<svg width="46" height="46" viewBox="0 0 46 46" fill="none" xmlns="http://www.w3.org/2000/svg">
<path d="M23 44C34.5983 44 44 34.5983 44 23C44 11.4017 34.5983 2 23 2C11.4017 2 2 11.4017 2 23C2 34.5983 11.4017 44 23 44Z" stroke="#A22522" stroke-width="4" stroke-linecap="round" stroke-linejoin="round"/>
<path d="M27.8988 37.7002V33.7879C27.9513 33.1369 27.861 32.4859 27.6342 31.8706C27.4058 31.2549 27.0477 30.6955 26.5842 30.2305C30.9795 29.7538 35.5995 28.1305 35.5995 20.6881C35.5995 18.7855 34.8477 16.9543 33.4995 15.5767C34.1382 13.9137 34.0929 12.0655 33.3735 10.4359C33.3735 10.4359 31.7208 9.95916 27.8988 12.454C24.6874 11.6074 21.3115 11.6074 18.1001 12.454C14.2781 9.95916 12.6254 10.438 12.6254 10.438C11.9072 12.0664 11.8619 13.9128 12.4994 15.5746C11.1481 16.9479 10.3934 18.7991 10.3994 20.7259C10.3994 28.1158 15.0195 29.737 19.4148 30.2683C18.9562 30.7293 18.6011 31.2826 18.3732 31.8916C18.1468 32.4959 18.0537 33.1421 18.1001 33.7858V37.7002" stroke="#A22522" stroke-width="3" stroke-linecap="round" stroke-linejoin="round"/>
<path d="M18.1005 34.9741C13.9005 36.2992 10.3998 34.9741 8.2998 30.8833" stroke="#A22522" stroke-width="3" stroke-linecap="round" stroke-linejoin="round"/>
</svg>
