<svg width="56" height="56" viewBox="0 0 56 56" fill="none" xmlns="http://www.w3.org/2000/svg">
<path d="M27.9998 51.3337C40.8868 51.3337 51.3332 40.8873 51.3332 28.0003C51.3332 15.1133 40.8868 4.66699 27.9998 4.66699C15.1128 4.66699 4.6665 15.1133 4.6665 28.0003C4.6665 40.8873 15.1128 51.3337 27.9998 51.3337Z" stroke="#A22522" stroke-width="3.125" stroke-linecap="round" stroke-linejoin="round"/>
<path d="M33.4437 44.3332V39.9862C33.502 39.2628 33.4017 38.5395 33.1497 37.8559C32.896 37.1718 32.4981 36.5503 31.983 36.0335C36.8667 35.5039 42 33.7002 42 25.4308C42 23.3168 41.1647 21.2822 39.6667 19.7515C40.3764 17.9038 40.326 15.8503 39.5267 14.0395C39.5267 14.0395 37.6904 13.5098 33.4437 16.2818C29.8756 15.3412 26.1245 15.3412 22.5564 16.2818C18.3097 13.5098 16.4734 14.0418 16.4734 14.0418C15.6753 15.8513 15.625 17.9028 16.3334 19.7492C14.8319 21.2752 13.9934 23.3321 14 25.4728C14 33.6838 19.1334 35.4852 24.017 36.0755C23.5076 36.5877 23.113 37.2026 22.8597 37.8792C22.6082 38.5507 22.5048 39.2686 22.5564 39.9839V44.3332" stroke="#A22522" stroke-width="3.125" stroke-linecap="round" stroke-linejoin="round"/>
<path d="M22.5562 41.3051C17.8895 42.7774 13.9998 41.3051 11.6665 36.7598" stroke="#A22522" stroke-width="3.125" stroke-linecap="round" stroke-linejoin="round"/>
</svg>
