<svg width="75" height="60" viewBox="0 0 75 60" fill="none" xmlns="http://www.w3.org/2000/svg">
<path d="M38 51C49.5983 51 59 41.5983 59 30C59 18.4017 49.5983 9 38 9C26.4017 9 17 18.4017 17 30C17 41.5983 26.4017 51 38 51Z" stroke="#A22522" stroke-width="4" stroke-linecap="round" stroke-linejoin="round"/>
<path d="M42.8988 44.7002V40.7879C42.9513 40.1369 42.861 39.4859 42.6342 38.8706C42.4058 38.2549 42.0477 37.6955 41.5842 37.2305C45.9795 36.7538 50.5995 35.1305 50.5995 27.6881C50.5995 25.7855 49.8477 23.9543 48.4995 22.5767C49.1382 20.9137 49.0929 19.0655 48.3735 17.4359C48.3735 17.4359 46.7208 16.9592 42.8988 19.454C39.6874 18.6074 36.3115 18.6074 33.1001 19.454C29.2781 16.9592 27.6254 17.438 27.6254 17.438C26.9072 19.0664 26.8619 20.9128 27.4994 22.5746C26.1481 23.9479 25.3934 25.7991 25.3994 27.7259C25.3994 35.1158 30.0195 36.737 34.4148 37.2683C33.9562 37.7293 33.6011 38.2826 33.3732 38.8916C33.1468 39.4959 33.0537 40.1421 33.1001 40.7858V44.7002" stroke="#A22522" stroke-width="3" stroke-linecap="round" stroke-linejoin="round"/>
<path d="M33.1005 41.9741C28.9005 43.2992 25.3998 41.9741 23.2998 37.8833" stroke="#A22522" stroke-width="3" stroke-linecap="round" stroke-linejoin="round"/>
</svg>
