<svg width="130" height="130" viewBox="0 0 130 130" fill="none" xmlns="http://www.w3.org/2000/svg">
<path d="M65 5C31.862 5 5 31.862 5 65C5 98.138 31.862 125 65 125C98.138 125 125 98.138 125 65C125 31.862 98.138 5 65 5Z" stroke="#C08552" stroke-width="9" stroke-linecap="round" stroke-linejoin="round"/>
<path d="M41 120.008V77L65 35L89 77V120.008" stroke="#C08552" stroke-width="9" stroke-linecap="round" stroke-linejoin="round"/>
<path d="M41 77C41 77 47.762 83 53 83C58.238 83 65 77 65 77C65 77 71.762 83 77 83C82.238 83 89 77 89 77" stroke="#C08552" stroke-width="9" stroke-linecap="round" stroke-linejoin="round"/>
</svg>
