<svg width="123" height="123" viewBox="0 0 123 123" fill="none" xmlns="http://www.w3.org/2000/svg">
<path d="M61.5 5C30.2951 5 5 30.2951 5 61.5C5 92.705 30.2951 118 61.5 118C92.705 118 118 92.705 118 61.5C118 30.2951 92.705 5 61.5 5Z" stroke="#C08552" stroke-width="9" stroke-linecap="round" stroke-linejoin="round"/>
<path d="M38.8994 113.299V72.8L61.4994 33.25L84.0994 72.8V113.299" stroke="#C08552" stroke-width="9" stroke-linecap="round" stroke-linejoin="round"/>
<path d="M38.8994 72.8003C38.8994 72.8003 45.267 78.4503 50.1994 78.4503C55.1319 78.4503 61.4994 72.8003 61.4994 72.8003C61.4994 72.8003 67.867 78.4503 72.7994 78.4503C77.7319 78.4503 84.0994 72.8003 84.0994 72.8003" stroke="#C08552" stroke-width="9" stroke-linecap="round" stroke-linejoin="round"/>
</svg>
