<svg width="83" height="83" viewBox="0 0 83 83" fill="none" xmlns="http://www.w3.org/2000/svg">
<g clip-path="url(#clip0_341_251)">
<path d="M18.0703 0.558594H21.7506V4.19468H25.118V0.558594H28.7983V11.5655H25.118V7.88179H21.7506V11.5655H18.0737V0.558594H18.0703Z" fill="#FFC233"/>
<path d="M33.6366 4.20829H30.3984V0.558594H40.5584V4.20829H37.3169V11.5655H33.6366V4.20829Z" fill="#FFC233"/>
<path d="M42.1719 0.558594H46.0086L48.3692 4.42598L50.7264 0.558594H54.5631V11.5655H50.8998V6.10966L48.3692 10.0247H48.3046L45.7705 6.11307V11.5655H42.1719V0.558594V0.558594Z" fill="#FFC233"/>
<path d="M56.3906 0.558594H60.0743V7.92941H65.2444V11.5689H56.3906V0.558594V0.558594Z" fill="#FFC233"/>
<path fill-rule="evenodd" clip-rule="evenodd" d="M17.9553 75.6347L10.9961 16.6035H72.2211L65.2585 75.6279L41.5746 82.1926L17.9553 75.6347ZM32.0269 43.3214L31.367 35.9064H59.0714L59.7176 28.6683H23.4588L25.4112 50.563H50.5033L49.6631 59.9509L41.5882 62.1346H41.5814L33.5201 59.9577L33.0031 54.1855H25.7309L26.7445 65.5529L41.5746 69.6686L56.4285 65.5529L58.238 45.267L58.4149 43.3249H32.0269V43.3214Z" fill="#FFC233"/>
</g>
<defs>
<clipPath id="clip0_341_251">
<rect width="81.6334" height="81.6334" fill="white" transform="translate(0.792969 0.560547)"/>
</clipPath>
</defs>
</svg>
