<svg width="100" height="100" viewBox="0 0 100 100" fill="none" xmlns="http://www.w3.org/2000/svg">
<g clip-path="url(#clip0_441_555)">
<path d="M21.167 0H25.6753V4.45417H29.8003V0H34.3087V13.4833H29.8003V8.97083H25.6753V13.4833H21.1712V0H21.167Z" fill="#C08552"/>
<path d="M40.2333 4.47083H36.2666V0H48.7124V4.47083H44.7416V13.4833H40.2333V4.47083Z" fill="#C08552"/>
<path d="M50.6875 0H55.3875L58.2792 4.7375L61.1667 0H65.8667V13.4833H61.3792V6.8L58.2792 11.5958H58.2L55.0958 6.80417V13.4833H50.6875V0Z" fill="#C08552"/>
<path d="M68.1084 0H72.6209V9.02917H78.9542V13.4875H68.1084V0Z" fill="#C08552"/>
<path fill-rule="evenodd" clip-rule="evenodd" d="M21.025 91.9668L12.5 19.6543H87.5L78.9708 91.9585L49.9583 100L21.025 91.9668ZM38.2625 52.3835L37.4542 43.3001H71.3917L72.1833 34.4335H27.7667L30.1583 61.2543H60.8958L59.8667 72.7543L49.975 75.4293H49.9667L40.0917 72.7626L39.4583 65.6918H30.55L31.7917 79.6168L49.9583 84.6585L68.1542 79.6168L70.3708 54.7668L70.5875 52.3876H38.2625V52.3835Z" fill="#C08552"/>
</g>
<defs>
<clipPath id="clip0_441_555">
<rect width="100" height="100" fill="white"/>
</clipPath>
</defs>
</svg>
