<svg width="50" height="50" viewBox="0 0 50 50" fill="none" xmlns="http://www.w3.org/2000/svg">
<path fill-rule="evenodd" clip-rule="evenodd" d="M15.5518 2.221C17.9955 2.1085 18.7747 2.0835 24.9997 2.0835C31.2247 2.0835 32.0038 2.11058 34.4455 2.221C36.8872 2.33141 38.5538 2.721 40.0122 3.28558C41.5393 3.86266 42.9247 4.76475 44.0705 5.93141C45.2372 7.07516 46.1372 8.4585 46.7122 9.98766C47.2788 11.446 47.6663 13.1127 47.7788 15.5502C47.8913 17.9981 47.9163 18.7772 47.9163 25.0002C47.9163 31.2252 47.8893 32.0043 47.7788 34.4481C47.6684 36.8856 47.2788 38.5522 46.7122 40.0106C46.1372 41.5399 45.2357 42.9256 44.0705 44.071C42.9247 45.2377 41.5393 46.1377 40.0122 46.7127C38.5538 47.2793 36.8872 47.6668 34.4497 47.7793C32.0038 47.8918 31.2247 47.9168 24.9997 47.9168C18.7747 47.9168 17.9955 47.8897 15.5518 47.7793C13.1143 47.6689 11.4476 47.2793 9.98926 46.7127C8.45993 46.1376 7.0743 45.2361 5.92884 44.071C4.76297 42.9266 3.86075 41.5416 3.28509 40.0127C2.72051 38.5543 2.33301 36.8877 2.22051 34.4502C2.10801 32.0022 2.08301 31.2231 2.08301 25.0002C2.08301 18.7752 2.11009 17.996 2.22051 15.5543C2.33092 13.1127 2.72051 11.446 3.28509 9.98766C3.8616 8.45867 4.76451 7.07373 5.93092 5.92933C7.07476 4.76371 8.45899 3.8615 9.98717 3.28558C11.4455 2.721 13.1122 2.3335 15.5497 2.221H15.5518ZM34.2601 6.346C31.8434 6.23558 31.1184 6.21266 24.9997 6.21266C18.8809 6.21266 18.1559 6.23558 15.7393 6.346C13.5038 6.44808 12.2913 6.821 11.483 7.13558C10.4143 7.55225 9.64967 8.046 8.84759 8.84808C8.08727 9.58777 7.50213 10.4883 7.13509 11.4835C6.82051 12.2918 6.44759 13.5043 6.34551 15.7397C6.23509 18.1564 6.21217 18.8814 6.21217 25.0002C6.21217 31.1189 6.23509 31.8439 6.34551 34.2606C6.44759 36.496 6.82051 37.7085 7.13509 38.5168C7.50176 39.5106 8.08717 40.4127 8.84759 41.1522C9.58717 41.9127 10.4893 42.4981 11.483 42.8647C12.2913 43.1793 13.5038 43.5522 15.7393 43.6543C18.1559 43.7647 18.8788 43.7877 24.9997 43.7877C31.1205 43.7877 31.8434 43.7647 34.2601 43.6543C36.4955 43.5522 37.708 43.1793 38.5163 42.8647C39.5851 42.4481 40.3497 41.9543 41.1518 41.1522C41.9122 40.4127 42.4976 39.5106 42.8643 38.5168C43.1788 37.7085 43.5518 36.496 43.6538 34.2606C43.7643 31.8439 43.7872 31.1189 43.7872 25.0002C43.7872 18.8814 43.7643 18.1564 43.6538 15.7397C43.5518 13.5043 43.1788 12.2918 42.8643 11.4835C42.4476 10.4147 41.9538 9.65016 41.1518 8.84808C40.412 8.08781 39.5116 7.50269 38.5163 7.13558C37.708 6.821 36.4955 6.44808 34.2601 6.346ZM22.0726 32.0647C23.7073 32.7452 25.5275 32.8371 27.2224 32.3246C28.9173 31.8121 30.3817 30.7271 31.3655 29.2548C32.3493 27.7826 32.7915 26.0145 32.6164 24.2525C32.4414 22.4905 31.6601 20.8439 30.4059 19.5939C29.6064 18.7949 28.6397 18.1831 27.5754 17.8026C26.511 17.422 25.3756 17.2822 24.2507 17.3931C23.1258 17.5041 22.0396 17.863 21.0701 18.4442C20.1006 19.0253 19.2721 19.8142 18.6441 20.754C18.0161 21.6938 17.6042 22.7612 17.4382 23.8792C17.2723 24.9973 17.3562 26.1383 17.6841 27.22C18.012 28.3017 18.5757 29.2973 19.3345 30.135C20.0933 30.9727 21.0285 31.6318 22.0726 32.0647ZM16.6705 16.671C17.7643 15.5772 19.0628 14.7095 20.492 14.1176C21.9211 13.5256 23.4528 13.2209 24.9997 13.2209C26.5465 13.2209 28.0783 13.5256 29.5074 14.1176C30.9365 14.7095 32.235 15.5772 33.3288 16.671C34.4226 17.7648 35.2903 19.0633 35.8823 20.4924C36.4742 21.9216 36.7789 23.4533 36.7789 25.0002C36.7789 26.547 36.4742 28.0788 35.8823 29.5079C35.2903 30.937 34.4226 32.2355 33.3288 33.3293C31.1198 35.5384 28.1237 36.7794 24.9997 36.7794C21.8756 36.7794 18.8795 35.5384 16.6705 33.3293C14.4615 31.1203 13.2205 28.1242 13.2205 25.0002C13.2205 21.8761 14.4615 18.88 16.6705 16.671ZM39.3913 14.9752C39.6624 14.7195 39.8794 14.412 40.0295 14.0709C40.1796 13.7299 40.2597 13.3622 40.2651 12.9896C40.2706 12.617 40.2012 12.2471 40.0611 11.9018C39.921 11.5566 39.7131 11.2429 39.4496 10.9794C39.1861 10.7159 38.8724 10.508 38.5272 10.3679C38.1819 10.2278 37.812 10.1584 37.4394 10.1639C37.0668 10.1693 36.6991 10.2494 36.3581 10.3995C36.017 10.5496 35.7095 10.7666 35.4538 11.0377C34.9566 11.5648 34.6843 12.265 34.6949 12.9896C34.7054 13.7142 34.998 14.4062 35.5104 14.9186C36.0228 15.431 36.7148 15.7236 37.4394 15.7341C38.164 15.7447 38.8642 15.4724 39.3913 14.9752Z" fill="#A22522"/>
</svg>
