<svg width="68" height="67" viewBox="0 0 68 67" fill="none" xmlns="http://www.w3.org/2000/svg">
<path fill-rule="evenodd" clip-rule="evenodd" d="M21.4624 3.55303C24.6959 3.40417 25.7269 3.37109 33.9638 3.37109C42.2007 3.37109 43.2317 3.40693 46.4625 3.55303C49.6933 3.69914 51.8986 4.21463 53.8282 4.96168C55.8489 5.72528 57.682 6.91891 59.1982 8.46263C60.7419 9.97603 61.9328 11.8065 62.6936 13.8298C63.4435 15.7595 63.9562 17.9648 64.105 21.1901C64.2539 24.4292 64.287 25.4602 64.287 33.6943C64.287 41.9312 64.2512 42.9621 64.105 46.1957C63.9589 49.421 63.4435 51.6263 62.6936 53.556C61.9328 55.5796 60.7399 57.4131 59.1982 58.9287C57.682 60.4724 55.8489 61.6633 53.8282 62.4241C51.8986 63.1739 49.6933 63.6867 46.468 63.8355C43.2317 63.9844 42.2007 64.0175 33.9638 64.0175C25.7269 64.0175 24.6959 63.9816 21.4624 63.8355C18.2371 63.6894 16.0318 63.1739 14.1021 62.4241C12.0785 61.6632 10.2451 60.4703 8.72941 58.9287C7.18673 57.4144 5.99292 55.5818 5.23121 53.5587C4.48416 51.6291 3.97142 49.4237 3.82256 46.1985C3.6737 42.9594 3.64062 41.9284 3.64062 33.6943C3.64062 25.4574 3.67646 24.4264 3.82256 21.1956C3.96867 17.9648 4.48416 15.7595 5.23121 13.8298C5.99404 11.8067 7.18876 9.97414 8.73216 8.45987C10.2457 6.91753 12.0773 5.72374 14.0994 4.96168C16.029 4.21463 18.2343 3.70189 21.4596 3.55303H21.4624ZM46.2171 9.01121C43.0194 8.8651 42.0601 8.83478 33.9638 8.83478C25.8675 8.83478 24.9082 8.8651 21.7105 9.01121C18.7526 9.14628 17.1482 9.63972 16.0786 10.056C14.6645 10.6073 13.6528 11.2606 12.5915 12.3219C11.5854 13.3007 10.8112 14.4922 10.3255 15.8091C9.90925 16.8787 9.41581 18.4831 9.28074 21.441C9.13463 24.6387 9.10431 25.598 9.10431 33.6943C9.10431 41.7906 9.13463 42.7499 9.28074 45.9476C9.41581 48.9055 9.90925 50.5099 10.3255 51.5794C10.8107 52.8944 11.5853 54.088 12.5915 55.0666C13.5701 56.0728 14.7637 56.8474 16.0786 57.3326C17.1482 57.7488 18.7526 58.2423 21.7105 58.3773C24.9082 58.5234 25.8648 58.5538 33.9638 58.5538C42.0629 58.5538 43.0194 58.5234 46.2171 58.3773C49.175 58.2423 50.7794 57.7488 51.849 57.3326C53.2631 56.7812 54.2748 56.1279 55.3361 55.0666C56.3423 54.088 57.1169 52.8944 57.6021 51.5794C58.0184 50.5099 58.5118 48.9055 58.6469 45.9476C58.793 42.7499 58.8233 41.7906 58.8233 33.6943C58.8233 25.598 58.793 24.6387 58.6469 21.441C58.5118 18.4831 58.0184 16.8787 57.6021 15.8091C57.0508 14.3949 56.3974 13.3833 55.3361 12.3219C54.3573 11.316 53.1658 10.5417 51.849 10.056C50.7794 9.63972 49.175 9.14628 46.2171 9.01121V9.01121ZM30.0907 43.0421C32.2537 43.9425 34.6623 44.064 36.905 43.3859C39.1476 42.7078 41.0853 41.2721 42.3871 39.324C43.6888 37.376 44.2738 35.0364 44.0423 32.7049C43.8107 30.3734 42.7768 28.1947 41.1173 26.5408C40.0594 25.4835 38.7803 24.674 37.3719 24.1704C35.9636 23.6669 34.4612 23.4819 32.9728 23.6287C31.4844 23.7755 30.047 24.2505 28.7642 25.0194C27.4814 25.7884 26.3851 26.8323 25.5541 28.0758C24.7231 29.3194 24.1782 30.7317 23.9586 32.2111C23.7389 33.6905 23.8501 35.2002 24.2839 36.6315C24.7178 38.0629 25.4636 39.3802 26.4677 40.4887C27.4718 41.5971 28.7091 42.4692 30.0907 43.0421ZM22.9427 22.6732C24.39 21.2259 26.1082 20.0778 27.9992 19.2945C29.8902 18.5112 31.917 18.1081 33.9638 18.1081C36.0106 18.1081 38.0374 18.5112 39.9284 19.2945C41.8194 20.0778 43.5376 21.2259 44.9849 22.6732C46.4322 24.1205 47.5803 25.8387 48.3636 27.7297C49.1468 29.6207 49.55 31.6475 49.55 33.6943C49.55 35.7411 49.1468 37.7678 48.3636 39.6589C47.5803 41.5499 46.4322 43.2681 44.9849 44.7154C42.0619 47.6384 38.0975 49.2805 33.9638 49.2805C29.8301 49.2805 25.8657 47.6384 22.9427 44.7154C20.0197 41.7924 18.3776 37.828 18.3776 33.6943C18.3776 29.5606 20.0197 25.5962 22.9427 22.6732V22.6732ZM53.0068 20.4293C53.3654 20.0909 53.6525 19.6841 53.8511 19.2328C54.0497 18.7815 54.1558 18.295 54.163 17.802C54.1701 17.309 54.0783 16.8196 53.893 16.3627C53.7076 15.9058 53.4325 15.4907 53.0838 15.1421C52.7352 14.7935 52.3202 14.5183 51.8633 14.333C51.4064 14.1476 50.917 14.0558 50.424 14.063C49.931 14.0702 49.4444 14.1762 48.9932 14.3748C48.5419 14.5734 48.135 14.8605 47.7967 15.2192C47.1387 15.9167 46.7785 16.8432 46.7924 17.802C46.8064 18.7608 47.1935 19.6764 47.8716 20.3544C48.5496 21.0324 49.4652 21.4195 50.424 21.4335C51.3828 21.4475 52.3093 21.0872 53.0068 20.4293V20.4293Z" fill="#FFC233"/>
</svg>
