<svg width="46" height="46" viewBox="0 0 46 46" fill="none" xmlns="http://www.w3.org/2000/svg">
<path fill-rule="evenodd" clip-rule="evenodd" d="M13.4687 0.1375C15.9125 0.025 16.6917 0 22.9167 0C29.1417 0 29.9208 0.0270833 32.3625 0.1375C34.8042 0.247917 36.4708 0.6375 37.9292 1.20208C39.4562 1.77917 40.8417 2.68125 41.9875 3.84792C43.1542 4.99167 44.0542 6.375 44.6292 7.90417C45.1958 9.3625 45.5833 11.0292 45.6958 13.4667C45.8083 15.9146 45.8333 16.6937 45.8333 22.9167C45.8333 29.1417 45.8062 29.9208 45.6958 32.3646C45.5854 34.8021 45.1958 36.4687 44.6292 37.9271C44.0541 39.4564 43.1527 40.8421 41.9875 41.9875C40.8417 43.1542 39.4562 44.0542 37.9292 44.6292C36.4708 45.1958 34.8042 45.5833 32.3667 45.6958C29.9208 45.8083 29.1417 45.8333 22.9167 45.8333C16.6917 45.8333 15.9125 45.8062 13.4687 45.6958C11.0312 45.5854 9.36458 45.1958 7.90625 44.6292C6.37692 44.0541 4.99129 43.1526 3.84583 41.9875C2.67996 40.8431 1.77774 39.4581 1.20208 37.9292C0.6375 36.4708 0.25 34.8042 0.1375 32.3667C0.025 29.9187 0 29.1396 0 22.9167C0 16.6917 0.0270833 15.9125 0.1375 13.4708C0.247917 11.0292 0.6375 9.3625 1.20208 7.90417C1.77859 6.37517 2.6815 4.99024 3.84792 3.84583C4.99175 2.68021 6.37598 1.77801 7.90417 1.20208C9.3625 0.6375 11.0292 0.25 13.4667 0.1375H13.4687ZM32.1771 4.2625C29.7604 4.15208 29.0354 4.12917 22.9167 4.12917C16.7979 4.12917 16.0729 4.15208 13.6562 4.2625C11.4208 4.36458 10.2083 4.7375 9.4 5.05208C8.33125 5.46875 7.56667 5.9625 6.76458 6.76458C6.00426 7.50427 5.41913 8.40475 5.05208 9.4C4.7375 10.2083 4.36458 11.4208 4.2625 13.6562C4.15208 16.0729 4.12917 16.7979 4.12917 22.9167C4.12917 29.0354 4.15208 29.7604 4.2625 32.1771C4.36458 34.4125 4.7375 35.625 5.05208 36.4333C5.41875 37.4271 6.00417 38.3292 6.76458 39.0687C7.50417 39.8292 8.40625 40.4146 9.4 40.7813C10.2083 41.0958 11.4208 41.4687 13.6562 41.5708C16.0729 41.6812 16.7958 41.7042 22.9167 41.7042C29.0375 41.7042 29.7604 41.6812 32.1771 41.5708C34.4125 41.4687 35.625 41.0958 36.4333 40.7813C37.5021 40.3646 38.2667 39.8708 39.0687 39.0687C39.8292 38.3292 40.4146 37.4271 40.7813 36.4333C41.0958 35.625 41.4687 34.4125 41.5708 32.1771C41.6812 29.7604 41.7042 29.0354 41.7042 22.9167C41.7042 16.7979 41.6812 16.0729 41.5708 13.6562C41.4687 11.4208 41.0958 10.2083 40.7813 9.4C40.3646 8.33125 39.8708 7.56667 39.0687 6.76458C38.329 6.00432 37.4285 5.41919 36.4333 5.05208C35.625 4.7375 34.4125 4.36458 32.1771 4.2625V4.2625ZM19.9896 29.9812C21.6243 30.6617 23.4445 30.7536 25.1394 30.2411C26.8343 29.7286 28.2987 28.6436 29.2825 27.1713C30.2663 25.6991 30.7084 23.931 30.5334 22.169C30.3584 20.407 29.5771 18.7604 28.3229 17.5104C27.5234 16.7114 26.5567 16.0996 25.4924 15.7191C24.428 15.3385 23.2926 15.1987 22.1677 15.3096C21.0428 15.4206 19.9566 15.7795 18.9871 16.3607C18.0176 16.9418 17.189 17.7307 16.561 18.6705C15.933 19.6103 15.5212 20.6777 15.3552 21.7958C15.1893 22.9138 15.2732 24.0548 15.6011 25.1365C15.929 26.2182 16.4927 27.2138 17.2515 28.0515C18.0103 28.8892 18.9455 29.5483 19.9896 29.9812ZM14.5875 14.5875C15.6813 13.4937 16.9798 12.626 18.409 12.0341C19.8381 11.4421 21.3698 11.1374 22.9167 11.1374C24.4635 11.1374 25.9953 11.4421 27.4244 12.0341C28.8535 12.626 30.152 13.4937 31.2458 14.5875C32.3396 15.6813 33.2073 16.9798 33.7992 18.409C34.3912 19.8381 34.6959 21.3698 34.6959 22.9167C34.6959 24.4635 34.3912 25.9953 33.7992 27.4244C33.2073 28.8535 32.3396 30.152 31.2458 31.2458C29.0368 33.4549 26.0407 34.6959 22.9167 34.6959C19.7926 34.6959 16.7965 33.4549 14.5875 31.2458C12.3785 29.0368 11.1374 26.0407 11.1374 22.9167C11.1374 19.7926 12.3785 16.7965 14.5875 14.5875V14.5875ZM37.3083 12.8917C37.5794 12.636 37.7964 12.3285 37.9465 11.9874C38.0966 11.6464 38.1767 11.2787 38.1821 10.9061C38.1875 10.5335 38.1182 10.1636 37.9781 9.81835C37.838 9.47307 37.6301 9.1594 37.3666 8.89591C37.1031 8.63243 36.7894 8.42449 36.4441 8.28441C36.0989 8.14433 35.729 8.07495 35.3564 8.08038C34.9838 8.08581 34.6161 8.16595 34.2751 8.31603C33.934 8.46612 33.6265 8.68311 33.3708 8.95417C32.8736 9.48131 32.6013 10.1815 32.6119 10.9061C32.6224 11.6307 32.915 12.3227 33.4274 12.8351C33.9398 13.3475 34.6318 13.6401 35.3564 13.6506C36.081 13.6612 36.7812 13.3889 37.3083 12.8917V12.8917Z" fill="#A22522"/>
</svg>
