<svg width="75" height="60" viewBox="0 0 75 60" fill="none" xmlns="http://www.w3.org/2000/svg">
<path fill-rule="evenodd" clip-rule="evenodd" d="M28.4687 7.1375C30.9125 7.025 31.6917 7 37.9167 7C44.1417 7 44.9208 7.02708 47.3625 7.1375C49.8042 7.24792 51.4708 7.6375 52.9292 8.20208C54.4562 8.77917 55.8417 9.68125 56.9875 10.8479C58.1542 11.9917 59.0542 13.375 59.6292 14.9042C60.1958 16.3625 60.5833 18.0292 60.6958 20.4667C60.8083 22.9146 60.8333 23.6937 60.8333 29.9167C60.8333 36.1417 60.8062 36.9208 60.6958 39.3646C60.5854 41.8021 60.1958 43.4687 59.6292 44.9271C59.0541 46.4564 58.1527 47.8421 56.9875 48.9875C55.8417 50.1542 54.4562 51.0542 52.9292 51.6292C51.4708 52.1958 49.8042 52.5833 47.3667 52.6958C44.9208 52.8083 44.1417 52.8333 37.9167 52.8333C31.6917 52.8333 30.9125 52.8062 28.4687 52.6958C26.0312 52.5854 24.3646 52.1958 22.9062 51.6292C21.3769 51.0541 19.9913 50.1526 18.8458 48.9875C17.68 47.8431 16.7777 46.4581 16.2021 44.9292C15.6375 43.4708 15.25 41.8042 15.1375 39.3667C15.025 36.9187 15 36.1396 15 29.9167C15 23.6917 15.0271 22.9125 15.1375 20.4708C15.2479 18.0292 15.6375 16.3625 16.2021 14.9042C16.7786 13.3752 17.6815 11.9902 18.8479 10.8458C19.9918 9.68021 21.376 8.77801 22.9042 8.20208C24.3625 7.6375 26.0292 7.25 28.4667 7.1375H28.4687ZM47.1771 11.2625C44.7604 11.1521 44.0354 11.1292 37.9167 11.1292C31.7979 11.1292 31.0729 11.1521 28.6562 11.2625C26.4208 11.3646 25.2083 11.7375 24.4 12.0521C23.3312 12.4687 22.5667 12.9625 21.7646 13.7646C21.0043 14.5043 20.4191 15.4048 20.0521 16.4C19.7375 17.2083 19.3646 18.4208 19.2625 20.6562C19.1521 23.0729 19.1292 23.7979 19.1292 29.9167C19.1292 36.0354 19.1521 36.7604 19.2625 39.1771C19.3646 41.4125 19.7375 42.625 20.0521 43.4333C20.4187 44.4271 21.0042 45.3292 21.7646 46.0687C22.5042 46.8292 23.4062 47.4146 24.4 47.7813C25.2083 48.0958 26.4208 48.4687 28.6562 48.5708C31.0729 48.6812 31.7958 48.7042 37.9167 48.7042C44.0375 48.7042 44.7604 48.6812 47.1771 48.5708C49.4125 48.4687 50.625 48.0958 51.4333 47.7813C52.5021 47.3646 53.2667 46.8708 54.0687 46.0687C54.8292 45.3292 55.4146 44.4271 55.7813 43.4333C56.0958 42.625 56.4687 41.4125 56.5708 39.1771C56.6812 36.7604 56.7042 36.0354 56.7042 29.9167C56.7042 23.7979 56.6812 23.0729 56.5708 20.6562C56.4687 18.4208 56.0958 17.2083 55.7813 16.4C55.3646 15.3312 54.8708 14.5667 54.0687 13.7646C53.329 13.0043 52.4285 12.4192 51.4333 12.0521C50.625 11.7375 49.4125 11.3646 47.1771 11.2625V11.2625ZM34.9896 36.9812C36.6243 37.6617 38.4445 37.7536 40.1394 37.2411C41.8343 36.7286 43.2987 35.6436 44.2825 34.1713C45.2663 32.6991 45.7084 30.931 45.5334 29.169C45.3584 27.407 44.5771 25.7604 43.3229 24.5104C42.5234 23.7114 41.5567 23.0996 40.4924 22.7191C39.428 22.3385 38.2926 22.1987 37.1677 22.3096C36.0428 22.4206 34.9566 22.7795 33.9871 23.3607C33.0176 23.9418 32.189 24.7307 31.561 25.6705C30.933 26.6103 30.5212 27.6777 30.3552 28.7958C30.1893 29.9138 30.2732 31.0548 30.6011 32.1365C30.929 33.2182 31.4927 34.2138 32.2515 35.0515C33.0103 35.8892 33.9455 36.5483 34.9896 36.9812ZM29.5875 21.5875C30.6813 20.4937 31.9798 19.626 33.409 19.0341C34.8381 18.4421 36.3698 18.1374 37.9167 18.1374C39.4635 18.1374 40.9953 18.4421 42.4244 19.0341C43.8535 19.626 45.152 20.4937 46.2458 21.5875C47.3396 22.6813 48.2073 23.9798 48.7992 25.409C49.3912 26.8381 49.6959 28.3698 49.6959 29.9167C49.6959 31.4635 49.3912 32.9953 48.7992 34.4244C48.2073 35.8535 47.3396 37.152 46.2458 38.2458C44.0368 40.4549 41.0407 41.6959 37.9167 41.6959C34.7926 41.6959 31.7965 40.4549 29.5875 38.2458C27.3785 36.0368 26.1374 33.0407 26.1374 29.9167C26.1374 26.7926 27.3785 23.7965 29.5875 21.5875V21.5875ZM52.3083 19.8917C52.5794 19.636 52.7964 19.3285 52.9465 18.9874C53.0966 18.6464 53.1767 18.2787 53.1821 17.9061C53.1875 17.5335 53.1182 17.1636 52.9781 16.8184C52.838 16.4731 52.6301 16.1594 52.3666 15.8959C52.1031 15.6324 51.7894 15.4245 51.4441 15.2844C51.0989 15.1443 50.729 15.0749 50.3564 15.0804C49.9838 15.0858 49.6161 15.1659 49.2751 15.316C48.934 15.4661 48.6265 15.6831 48.3708 15.9542C47.8736 16.4813 47.6013 17.1815 47.6119 17.9061C47.6224 18.6307 47.915 19.3227 48.4274 19.8351C48.9398 20.3475 49.6318 20.6401 50.3564 20.6506C51.081 20.6612 51.7812 20.3889 52.3083 19.8917V19.8917Z" fill="black"/>
</svg>
