<svg width="120" height="120" viewBox="0 0 120 120" fill="none" xmlns="http://www.w3.org/2000/svg">
<path d="M109.572 58.3194C105.26 38.824 98.8637 26.3881 88.6121 23.3576C86.6266 22.7784 84.5678 22.4895 82.4996 22.4998C76.1972 22.4998 71.2238 26.2498 59.9996 26.2498C48.7754 26.2498 43.7925 22.4998 37.4996 22.4998C35.3451 22.4887 33.1995 22.7774 31.1246 23.3576C20.8589 26.3881 14.5168 38.8358 10.155 58.3194C5.70191 78.2201 6.50816 93.9444 15.2129 96.9631C21.3066 99.0725 26.7558 94.7108 31.9168 88.2912C37.7761 80.9787 44.9925 78.7287 59.9996 78.7287C75.0066 78.7287 81.9418 80.9787 87.8105 88.2912C92.9668 94.7154 98.6176 99.0233 104.55 97.0006C114.164 93.717 114.028 78.4545 109.572 58.3194Z" stroke="#C08552" stroke-width="9.375" stroke-miterlimit="10"/>
<path d="M68.4375 57.1875C71.0263 57.1875 73.125 55.0888 73.125 52.5C73.125 49.9112 71.0263 47.8125 68.4375 47.8125C65.8487 47.8125 63.75 49.9112 63.75 52.5C63.75 55.0888 65.8487 57.1875 68.4375 57.1875Z" fill="#C08552"/>
<path d="M78.75 67.5C77.8224 67.5 76.9156 67.2248 76.1445 66.7092C75.3734 66.1936 74.7726 65.4608 74.4182 64.6036C74.0638 63.7464 73.9716 62.8033 74.1534 61.8937C74.3353 60.9841 74.7829 60.1489 75.4396 59.4938C76.0963 58.8387 76.9327 58.3932 77.8427 58.2136C78.7528 58.0341 79.6956 58.1286 80.552 58.4852C81.4083 58.8418 82.1395 59.4444 82.6532 60.2168C83.1669 60.9892 83.4398 61.8966 83.4375 62.8242C83.4344 64.0654 82.9392 65.2547 82.0604 66.1312C81.1817 67.0078 79.9912 67.5 78.75 67.5V67.5Z" fill="#C08552"/>
<path d="M78.75 46.875C81.3388 46.875 83.4375 44.7763 83.4375 42.1875C83.4375 39.5987 81.3388 37.5 78.75 37.5C76.1612 37.5 74.0625 39.5987 74.0625 42.1875C74.0625 44.7763 76.1612 46.875 78.75 46.875Z" fill="#C08552"/>
<path d="M89.0625 57.1875C91.6513 57.1875 93.75 55.0888 93.75 52.5C93.75 49.9112 91.6513 47.8125 89.0625 47.8125C86.4737 47.8125 84.375 49.9112 84.375 52.5C84.375 55.0888 86.4737 57.1875 89.0625 57.1875Z" fill="#C08552"/>
<path d="M37.5 41.25V63.75" stroke="#C08552" stroke-width="9.375" stroke-linecap="round" stroke-linejoin="round"/>
<path d="M48.75 52.5H26.25" stroke="#C08552" stroke-width="9.375" stroke-linecap="round" stroke-linejoin="round"/>
</svg>
