<svg width="150" height="127" viewBox="0 0 150 127" fill="none" xmlns="http://www.w3.org/2000/svg">
<path d="M96.9062 71.4239C95.8472 71.4239 94.812 71.1327 93.9317 70.5871C93.0513 70.0415 92.3654 69.2662 91.9608 68.3591C91.5561 67.4521 91.4509 66.4542 91.6585 65.4917C91.8661 64.5292 92.3771 63.6454 93.1269 62.9523C93.8766 62.2591 94.8314 61.7877 95.8704 61.5977C96.9094 61.4077 97.9858 61.5077 98.9635 61.885C99.9411 62.2623 100.776 62.9 101.362 63.7173C101.949 64.5346 102.26 65.4948 102.258 66.4763C102.254 67.7896 101.689 69.048 100.686 69.9755C99.6824 70.903 98.3232 71.4239 96.9062 71.4239V71.4239Z" fill="#FFC233"/>
<path d="M96.9062 49.5997C99.8618 49.5997 102.258 47.379 102.258 44.6397C102.258 41.9003 99.8618 39.6797 96.9062 39.6797C93.9507 39.6797 91.5547 41.9003 91.5547 44.6397C91.5547 47.379 93.9507 49.5997 96.9062 49.5997Z" fill="#FFC233"/>
<path d="M108.68 60.5118C111.635 60.5118 114.031 58.2911 114.031 55.5518C114.031 52.8125 111.635 50.5918 108.68 50.5918C105.724 50.5918 103.328 52.8125 103.328 55.5518C103.328 58.2911 105.724 60.5118 108.68 60.5118Z" fill="#FFC233"/>
<path d="M132.094 61.7087C127.17 41.0801 119.868 27.9213 108.164 24.7146C105.898 24.1018 103.547 23.7961 101.186 23.807C93.9907 23.807 88.3127 27.775 75.4984 27.775C62.6841 27.775 56.9954 23.807 49.8109 23.807C47.3512 23.7952 44.9016 24.1007 42.5328 24.7146C30.8129 27.9213 23.5722 41.0925 18.5926 61.7087C13.5086 82.7663 14.429 99.4046 24.3669 102.599C31.3239 104.831 37.5451 100.216 43.4372 93.4228C50.1266 85.6853 58.3654 83.3045 75.4984 83.3045C92.6314 83.3045 100.549 85.6853 107.249 93.4228C113.136 100.22 119.587 104.779 126.36 102.638C137.336 99.164 137.181 83.0143 132.094 61.7087Z" stroke="#FFC233" stroke-width="7.83155" stroke-miterlimit="10"/>
<path d="M85.1328 60.5098C88.0884 60.5098 90.4844 58.2892 90.4844 55.5498C90.4844 52.8105 88.0884 50.5898 85.1328 50.5898C82.1772 50.5898 79.7812 52.8105 79.7812 55.5498C79.7812 58.2892 82.1772 60.5098 85.1328 60.5098Z" fill="#FFC233"/>
<path d="M49.8125 43.6465V67.4544" stroke="#FFC233" stroke-width="7.83155" stroke-linecap="round" stroke-linejoin="round"/>
<path d="M62.6562 55.5508H36.9688" stroke="#FFC233" stroke-width="7.83155" stroke-linecap="round" stroke-linejoin="round"/>
</svg>
