<svg width="164" height="152" viewBox="0 0 164 152" fill="none" xmlns="http://www.w3.org/2000/svg">
<path d="M107.625 85.5C106.357 85.5 105.118 85.1514 104.064 84.4983C103.01 83.8452 102.189 82.917 101.705 81.8312C101.22 80.7454 101.095 79.5508 101.343 78.3987C101.592 77.2465 102.203 76.1886 103.101 75.3588C103.998 74.529 105.141 73.9647 106.385 73.7373C107.629 73.5099 108.917 73.6296 110.088 74.0812C111.258 74.5329 112.257 75.2962 112.959 76.2746C113.661 77.253 114.034 78.4024 114.031 79.5773C114.027 81.1495 113.35 82.6559 112.149 83.7662C110.948 84.8765 109.321 85.5 107.625 85.5V85.5Z" fill="#C08552"/>
<path d="M107.625 59.375C111.163 59.375 114.031 56.7167 114.031 53.4375C114.031 50.1583 111.163 47.5 107.625 47.5C104.087 47.5 101.219 50.1583 101.219 53.4375C101.219 56.7167 104.087 59.375 107.625 59.375Z" fill="#C08552"/>
<path d="M121.719 72.4375C125.257 72.4375 128.125 69.7792 128.125 66.5C128.125 63.2208 125.257 60.5625 121.719 60.5625C118.181 60.5625 115.312 63.2208 115.312 66.5C115.312 69.7792 118.181 72.4375 121.719 72.4375Z" fill="#C08552"/>
<path d="M149.749 73.8713C143.856 49.1773 135.114 33.4251 121.104 29.5865C118.39 28.8528 115.577 28.4868 112.75 28.4999C104.137 28.4999 97.3398 33.2499 82 33.2499C66.6603 33.2499 59.8504 28.4999 51.25 28.4999C48.3055 28.4858 45.3733 28.8515 42.5375 29.5865C28.5078 33.4251 19.8402 49.1921 13.8792 73.8713C7.79323 99.079 8.89511 118.996 20.7915 122.82C29.1196 125.492 36.5669 119.967 43.6202 111.836C51.628 102.573 61.4904 99.7232 82 99.7232C102.51 99.7232 111.988 102.573 120.008 111.836C127.055 119.973 134.778 125.43 142.885 122.868C156.024 118.708 155.838 99.3758 149.749 73.8713Z" stroke="#C08552" stroke-width="9.375" stroke-miterlimit="10"/>
<path d="M93.5312 72.4375C97.0693 72.4375 99.9375 69.7792 99.9375 66.5C99.9375 63.2208 97.0693 60.5625 93.5312 60.5625C89.9932 60.5625 87.125 63.2208 87.125 66.5C87.125 69.7792 89.9932 72.4375 93.5312 72.4375Z" fill="#C08552"/>
<path d="M51.25 52.25V80.75" stroke="#C08552" stroke-width="9.375" stroke-linecap="round" stroke-linejoin="round"/>
<path d="M66.625 66.5H35.875" stroke="#C08552" stroke-width="9.375" stroke-linecap="round" stroke-linejoin="round"/>
</svg>
