<svg width="83" height="82" viewBox="0 0 83 82" fill="none" xmlns="http://www.w3.org/2000/svg">
<path d="M6.01172 5.11719V76.7739H77.6684V5.11719H6.01172ZM45.0083 61.0017C45.0083 67.9755 40.9137 71.1591 34.9482 71.1591C29.5586 71.1591 26.439 68.3773 24.8395 65.0017L30.3264 61.6902C31.3833 63.5609 32.343 65.145 34.6616 65.145C36.8676 65.145 38.2752 64.28 38.2752 60.9071V38.0179H45.0083V61.0017ZM60.9366 71.1591C54.682 71.1591 50.6359 68.1853 48.6679 64.28L54.1548 61.1143C55.5956 63.4662 57.4817 65.209 60.7933 65.209C63.5751 65.209 65.3691 63.8168 65.3691 61.8821C65.3691 59.5788 63.5444 58.7625 60.458 57.4036L58.7792 56.6844C53.9168 54.6217 50.7025 52.0139 50.7025 46.5271C50.7025 41.4727 54.5566 37.634 60.5553 37.634C64.8419 37.634 67.9129 39.1209 70.1214 43.0236L64.8751 46.3838C63.7235 44.3211 62.4746 43.5047 60.5399 43.5047C58.5745 43.5047 57.3256 44.7536 57.3256 46.3838C57.3256 48.4004 58.5745 49.2142 61.4689 50.4784L63.1477 51.1976C68.8751 53.6441 72.0894 56.1572 72.0894 61.7848C72.0894 67.8322 67.3217 71.1565 60.9391 71.1565L60.9366 71.1591Z" fill="#FFC233"/>
</svg>
