<svg width="75" height="60" viewBox="0 0 75 60" fill="none" xmlns="http://www.w3.org/2000/svg">
<path d="M45.8016 22.1992C49.3024 22.1992 52.6599 23.5899 55.1354 26.0654C57.6109 28.5409 59.0016 31.8984 59.0016 35.3992V50.7992H50.2016V35.3992C50.2016 34.2323 49.738 33.1131 48.9128 32.2879C48.0877 31.4628 46.9685 30.9992 45.8016 30.9992C44.6346 30.9992 43.5155 31.4628 42.6903 32.2879C41.8651 33.1131 41.4016 34.2323 41.4016 35.3992V50.7992H32.6016V35.3992C32.6016 31.8984 33.9923 28.5409 36.4678 26.0654C38.9432 23.5899 42.3007 22.1992 45.8016 22.1992V22.1992Z" stroke="black" stroke-width="4" stroke-linecap="round" stroke-linejoin="round"/>
<path d="M15 24.4004H23.8V50.8004H15V24.4004Z" stroke="black" stroke-width="4" stroke-linecap="round" stroke-linejoin="round"/>
<path d="M19.4 17.8C21.8301 17.8 23.8 15.8301 23.8 13.4C23.8 10.9699 21.8301 9 19.4 9C16.9699 9 15 10.9699 15 13.4C15 15.8301 16.9699 17.8 19.4 17.8Z" stroke="black" stroke-width="4" stroke-linecap="round" stroke-linejoin="round"/>
</svg>
