<svg width="75" height="60" viewBox="0 0 75 60" fill="none" xmlns="http://www.w3.org/2000/svg">
<path d="M45.8006 22.2002C49.3014 22.2002 52.6589 23.5909 55.1344 26.0664C57.6099 28.5419 59.0006 31.8993 59.0006 35.4002V50.8002H50.2006V35.4002C50.2006 34.2332 49.737 33.1141 48.9119 32.2889C48.0867 31.4638 46.9675 31.0002 45.8006 31.0002C44.6336 31.0002 43.5145 31.4638 42.6893 32.2889C41.8642 33.1141 41.4006 34.2332 41.4006 35.4002V50.8002H32.6006V35.4002C32.6006 31.8993 33.9913 28.5419 36.4668 26.0664C38.9423 23.5909 42.2997 22.2002 45.8006 22.2002V22.2002Z" stroke="#A22522" stroke-width="4" stroke-linecap="round" stroke-linejoin="round"/>
<path d="M15 24.4004H23.8V50.8004H15V24.4004Z" stroke="#A22522" stroke-width="4" stroke-linecap="round" stroke-linejoin="round"/>
<path d="M19.4 17.8C21.8301 17.8 23.8 15.8301 23.8 13.4C23.8 10.9699 21.8301 9 19.4 9C16.9699 9 15 10.9699 15 13.4C15 15.8301 16.9699 17.8 19.4 17.8Z" stroke="#A22522" stroke-width="4" stroke-linecap="round" stroke-linejoin="round"/>
</svg>
