<svg width="48" height="46" viewBox="0 0 48 46" fill="none" xmlns="http://www.w3.org/2000/svg">
<path d="M32.8006 15.2002C36.3014 15.2002 39.6589 16.5909 42.1344 19.0664C44.6099 21.5419 46.0006 24.8993 46.0006 28.4002V43.8002H37.2006V28.4002C37.2006 27.2332 36.737 26.1141 35.9119 25.2889C35.0867 24.4638 33.9675 24.0002 32.8006 24.0002C31.6336 24.0002 30.5145 24.4638 29.6893 25.2889C28.8642 26.1141 28.4006 27.2332 28.4006 28.4002V43.8002H19.6006V28.4002C19.6006 24.8993 20.9913 21.5419 23.4668 19.0664C25.9423 16.5909 29.2997 15.2002 32.8006 15.2002V15.2002Z" stroke="#A22522" stroke-width="4" stroke-linecap="round" stroke-linejoin="round"/>
<path d="M2 17.4004H10.8V43.8004H2V17.4004Z" stroke="#A22522" stroke-width="4" stroke-linecap="round" stroke-linejoin="round"/>
<path d="M6.4 10.8C8.83005 10.8 10.8 8.83005 10.8 6.4C10.8 3.96995 8.83005 2 6.4 2C3.96995 2 2 3.96995 2 6.4C2 8.83005 3.96995 10.8 6.4 10.8Z" stroke="#A22522" stroke-width="4" stroke-linecap="round" stroke-linejoin="round"/>
</svg>
