<svg width="50" height="50" viewBox="0 0 50 50" fill="none" xmlns="http://www.w3.org/2000/svg">
<path d="M33.334 16.6665C36.6492 16.6665 39.8286 17.9835 42.1728 20.3277C44.517 22.6719 45.834 25.8513 45.834 29.1665V43.7498H37.5007V29.1665C37.5007 28.0614 37.0617 27.0016 36.2803 26.2202C35.4989 25.4388 34.4391 24.9998 33.334 24.9998C32.2289 24.9998 31.1691 25.4388 30.3877 26.2202C29.6063 27.0016 29.1673 28.0614 29.1673 29.1665V43.7498H20.834V29.1665C20.834 25.8513 22.1509 22.6719 24.4951 20.3277C26.8394 17.9835 30.0188 16.6665 33.334 16.6665V16.6665Z" stroke="#A22522" stroke-width="4.16667" stroke-linecap="round" stroke-linejoin="round"/>
<path d="M4.16699 18.75H12.5003V43.75H4.16699V18.75Z" stroke="#A22522" stroke-width="4.16667" stroke-linecap="round" stroke-linejoin="round"/>
<path d="M8.33366 12.4998C10.6348 12.4998 12.5003 10.6344 12.5003 8.33317C12.5003 6.03198 10.6348 4.1665 8.33366 4.1665C6.03247 4.1665 4.16699 6.03198 4.16699 8.33317C4.16699 10.6344 6.03247 12.4998 8.33366 12.4998Z" stroke="#A22522" stroke-width="4.16667" stroke-linecap="round" stroke-linejoin="round"/>
</svg>
