<svg width="153" height="106" viewBox="0 0 153 106" fill="none" xmlns="http://www.w3.org/2000/svg">
<path d="M51.25 92L29.875 91.5H21.625C12.2083 91.5 5.25 91.8332 0.75 92.5C0.333325 92 0.125 91.2918 0.125 90.375L0.25 89.375C4.58332 88.375 7.41667 86.8333 8.75 84.75C9.83333 83.0833 10.6667 79.9167 11.25 75.25C11.9167 70.5 12.25 61.375 12.25 47.875V22.625C12.25 11.2083 11.7083 5.45825 10.625 5.375C9.04167 5.125 6.54168 5 3.125 5C2.875 4.41675 2.75 3.75 2.75 3C2.75 2.25 2.875 1.625 3.125 1.125L15.125 1.5C22.7917 1.5 28.7083 1.16675 32.875 0.5C33.375 1.16675 33.625 1.83325 33.625 2.5L33.375 3.625C29.9583 4.54175 27.7083 5.70825 26.625 7.125C25.5417 8.45825 24.875 10.4167 24.625 13C23.625 23.25 23.125 34.375 23.125 46.375V70C23.125 77.8333 23.375 83.3333 23.875 86.5C26.875 86.8332 30.375 87 34.375 87C42.9583 87 51.4583 85.875 59.875 83.625C61.2083 81.7083 62.4167 79.1667 63.5 76C64.6667 72.75 65.375 70.7918 65.625 70.125C66.0418 70.0417 66.6668 70 67.5 70C68.3332 70 69.25 70.375 70.25 71.125C69.9168 72.875 69.375 76.5417 68.625 82.125C67.875 87.7083 67.4167 90.5833 67.25 90.75C66.1667 91.5832 60.8333 92 51.25 92Z" fill="#FBFBF2"/>
<path d="M91.3375 82.3496C91.3375 87.8996 88.1125 91.1996 81.6625 92.2496C79.0125 92.2496 76.775 91.3121 74.95 89.4371C73.15 87.5371 72.25 85.1746 72.25 82.3496C72.25 76.7496 75.4875 73.4371 81.9625 72.4121C84.5875 72.4121 86.8 73.3746 88.6 75.2996C90.425 77.2246 91.3375 79.5746 91.3375 82.3496ZM82.4875 90.6371C86.0875 90.6371 87.8875 88.3371 87.8875 83.7371C87.8875 81.1371 87.2875 78.8621 86.0875 76.9121C84.8875 74.9621 83.3 73.9871 81.325 73.9871C79.35 73.9871 77.9125 74.6246 77.0125 75.8996C76.1375 77.1496 75.7 78.9496 75.7 81.2996C75.7 83.6246 76.3125 85.7621 77.5375 87.7121C78.7625 89.6621 80.4125 90.6371 82.4875 90.6371ZM95.045 74.8871L93.7325 74.9621C93.6325 74.7871 93.5825 74.5621 93.5825 74.2871L93.62 73.9496C95.37 73.6496 96.67 73.2246 97.52 72.6746L97.97 72.4121C98.345 72.4121 98.77 72.7371 99.245 73.3871C99.72 74.0121 99.9825 74.7871 100.033 75.7121C101.458 74.8121 102.495 74.1996 103.145 73.8746C103.82 73.5496 104.982 73.0621 106.632 72.4121C108.457 72.7621 110.082 73.8871 111.507 75.7871C112.957 77.6621 113.683 79.8496 113.683 82.3496C113.683 83.7746 113.457 85.0621 113.007 86.2121C112.557 87.3371 111.957 88.2496 111.207 88.9496C110.457 89.6246 109.682 90.1996 108.882 90.6746C108.082 91.1496 107.258 91.4996 106.408 91.7246C104.958 92.0746 103.87 92.2496 103.145 92.2496C102.445 92.2496 101.345 92.0621 99.845 91.6871V93.7871C99.845 100.462 99.995 103.812 100.295 103.837C101.045 103.912 102.445 103.95 104.495 103.95C104.545 104.125 104.57 104.325 104.57 104.55C104.57 104.775 104.545 104.962 104.495 105.112L99.095 105C96.945 105 95.195 105.1 93.845 105.3C93.695 105.15 93.62 104.937 93.62 104.662L93.695 104.362C94.72 104.112 95.4075 103.762 95.7575 103.312C96.1325 102.862 96.37 102.287 96.47 101.587C96.72 99.8371 96.845 95.7371 96.845 89.2871V80.1371C96.845 78.1371 96.72 76.7621 96.47 76.0121C96.245 75.2621 95.77 74.8871 95.045 74.8871ZM99.845 88.5371C99.845 88.9121 100.557 89.3621 101.982 89.8871C103.407 90.3871 104.407 90.6371 104.982 90.6371C106.582 90.6371 107.907 89.9621 108.957 88.6121C110.007 87.2621 110.533 85.5496 110.533 83.4746C110.533 81.3746 109.92 79.4496 108.695 77.6996C107.47 75.9246 106.17 75.0371 104.795 75.0371C103.42 75.0371 101.795 75.8246 99.92 77.3996C99.87 79.4746 99.845 83.1871 99.845 88.5371ZM126.421 89.5496C128.471 89.5496 130.284 88.9996 131.859 87.8996C132.209 88.0246 132.409 88.2871 132.459 88.6871L128.409 91.5371C127.809 92.0121 126.471 92.2496 124.396 92.2496C122.321 92.2496 120.559 91.3246 119.109 89.4746C117.659 87.5996 116.934 85.2371 116.934 82.3871C116.934 79.5371 117.721 77.2871 119.296 75.6371C120.871 73.9871 122.746 72.9121 124.921 72.4121C126.821 72.4121 128.497 73.0496 129.947 74.3246C130.822 75.0746 131.434 76.0496 131.784 77.2496C131.859 77.5496 132.209 77.7121 132.834 77.7371C132.984 77.9121 133.059 78.0996 133.059 78.2996C133.059 78.4746 133.034 78.6621 132.984 78.8621C128.584 79.8871 124.259 80.5996 120.009 80.9996C120.009 84.1996 120.896 86.5996 122.671 88.1996C123.671 89.0996 124.921 89.5496 126.421 89.5496ZM128.784 78.1121C128.909 78.0371 128.971 77.9496 128.971 77.8496C128.971 77.7246 128.809 77.3746 128.484 76.7996C128.184 76.1996 127.647 75.5746 126.872 74.9246C126.097 74.2496 125.284 73.9121 124.434 73.9121C123.584 73.9121 122.959 74.0371 122.559 74.2871C121.159 75.2371 120.359 76.9621 120.159 79.4621C121.509 79.4621 123.046 79.3246 124.771 79.0496C126.496 78.7496 127.834 78.4371 128.784 78.1121ZM147.594 91.6121L141.744 91.4996C139.169 91.4996 137.207 91.5621 135.857 91.6871C135.657 91.4871 135.557 91.2371 135.557 90.9371V90.7871C136.007 90.3371 136.431 89.8246 136.831 89.2496C140.831 83.5496 144.106 78.5871 146.656 74.3621H143.507C140.907 74.3621 139.069 74.5246 137.994 74.8496L137.544 77.7371C137.419 77.8371 137.244 77.8871 137.019 77.8871C136.794 77.8871 136.582 77.8621 136.382 77.8121C136.307 77.0621 136.157 76.1246 135.932 74.9996C135.732 73.8746 135.632 73.2746 135.632 73.1996C135.632 72.9746 135.832 72.8621 136.232 72.8621L143.206 73.0121H144.781C147.431 73.0121 149.431 72.9371 150.781 72.7871C150.956 72.9871 151.044 73.3121 151.044 73.7621C150.519 74.2371 150.069 74.7496 149.694 75.2996L140.057 90.1496H142.531C143.856 90.1496 145.282 90.0371 146.807 89.8121C148.332 89.5871 149.406 89.3621 150.031 89.1371L151.044 86.5496C151.269 86.4746 151.444 86.4371 151.569 86.4371C151.694 86.4371 151.906 86.5121 152.206 86.6621C151.831 89.4121 151.644 90.8746 151.644 91.0496C151.644 91.2246 151.481 91.3621 151.156 91.4621C150.856 91.5621 149.669 91.6121 147.594 91.6121Z" fill="#FBFBF2"/>
<path d="M44.3373 54.8625L40.9623 54.75C39.2123 54.75 37.5623 54.85 36.0123 55.05C35.8623 54.85 35.7873 54.6375 35.7873 54.4125L35.8623 54.1125C36.9373 53.8625 37.6623 53.475 38.0373 52.95C38.3123 52.55 38.5248 52.075 38.6748 51.525C38.8248 50.95 38.8998 49.325 38.8998 46.65V43.05C38.8998 41.5 38.8248 40.425 38.6748 39.825C38.5498 39.225 38.3498 38.825 38.0748 38.625C37.7998 38.425 37.4373 38.3 36.9873 38.25L35.5998 38.1375C35.5248 38.0375 35.4873 37.875 35.4873 37.65L35.5998 37.1625C36.8998 36.8875 37.9498 36.6125 38.7498 36.3375C39.5748 36.0375 40.5373 35.6125 41.6373 35.0625C41.9123 35.0625 42.0998 35.2125 42.1998 35.5125C41.8998 37.2125 41.7498 41.2625 41.7498 47.6625C41.7498 48.8125 41.7873 50.0875 41.8623 51.4875C41.9623 52.8625 42.0873 53.5625 42.2373 53.5875C42.6123 53.6625 43.3123 53.7 44.3373 53.7C44.4123 53.875 44.4498 54.075 44.4498 54.3C44.4498 54.525 44.4123 54.7125 44.3373 54.8625ZM40.8123 30.7875C39.9123 30.1625 39.2748 29.3375 38.8998 28.3125C39.1998 27.9625 39.5998 27.6 40.0998 27.225C40.6248 26.825 41.0748 26.55 41.4498 26.4C42.3998 27.1 43.0123 27.9375 43.2873 28.9125C42.5873 29.8125 41.7623 30.4375 40.8123 30.7875ZM56.4641 54.8625L52.3391 54.75C50.1891 54.75 48.3266 54.85 46.7516 55.05C46.6266 54.9 46.5641 54.6875 46.5641 54.4125L46.6016 54.1125C47.7766 53.8875 48.5516 53.55 48.9266 53.1C49.3266 52.65 49.6141 51.8875 49.7891 50.8125C49.9891 49.7375 50.0891 45.8125 50.0891 39.0375V29.4375C50.0891 27.1625 49.8266 25.775 49.3016 25.275C49.0266 25 48.6766 24.8375 48.2516 24.7875L46.9016 24.6375C46.8266 24.5125 46.7891 24.3625 46.7891 24.1875C46.7891 23.9875 46.8266 23.825 46.9016 23.7C48.6766 23.375 50.0516 22.975 51.0266 22.5C51.6766 22.175 52.4141 21.7375 53.2391 21.1875C53.4891 21.1875 53.6891 21.3125 53.8391 21.5625C53.3141 24.8375 53.0516 30.7 53.0516 39.15V43.5375C53.0516 50.1125 53.2141 53.45 53.5391 53.55C53.9891 53.65 54.9641 53.7 56.4641 53.7C56.5141 53.875 56.5391 54.075 56.5391 54.3C56.5391 54.525 56.5141 54.7125 56.4641 54.8625ZM77.9453 45.6C77.9453 51.15 74.7203 54.45 68.2703 55.5C65.6203 55.5 63.3828 54.5625 61.5578 52.6875C59.7578 50.7875 58.8578 48.425 58.8578 45.6C58.8578 40 62.0953 36.6875 68.5703 35.6625C71.1953 35.6625 73.4078 36.625 75.2078 38.55C77.0328 40.475 77.9453 42.825 77.9453 45.6ZM69.0953 53.8875C72.6953 53.8875 74.4953 51.5875 74.4953 46.9875C74.4953 44.3875 73.8953 42.1125 72.6953 40.1625C71.4953 38.2125 69.9078 37.2375 67.9328 37.2375C65.9578 37.2375 64.5203 37.875 63.6203 39.15C62.7453 40.4 62.3078 42.2 62.3078 44.55C62.3078 46.875 62.9203 49.0125 64.1453 50.9625C65.3703 52.9125 67.0203 53.8875 69.0953 53.8875ZM97.7778 35.4C98.0028 35.45 98.1903 35.6 98.3403 35.85C98.1153 37.55 98.0028 40.35 98.0028 44.25L98.0403 49.6125C98.0403 51.8625 98.6028 52.9875 99.7278 52.9875L101.078 52.95C101.178 53.125 101.228 53.325 101.228 53.55L101.19 53.9625C99.9653 54.1625 99.0903 54.4 98.5653 54.675L97.5903 55.125C97.4653 55.2 97.2778 55.325 97.0278 55.5C96.4778 55.3 96.0153 54.8625 95.6403 54.1875C95.2653 53.4875 95.0528 52.7875 95.0028 52.0875C92.8778 53.4125 90.4403 54.55 87.6903 55.5C86.0903 55.5 84.8903 54.9125 84.0903 53.7375C83.3153 52.5375 82.9278 50.9125 82.9278 48.8625V41.7C82.9278 40 82.8528 38.925 82.7028 38.475C82.5528 38 82.1153 37.6875 81.3903 37.5375L80.1528 37.3875C80.0778 37.2375 80.0403 37.075 80.0403 36.9L80.1528 36.45C80.5778 36.375 81.5403 36.2125 83.0403 35.9625L85.7028 35.4C85.9028 35.45 86.0778 35.6 86.2278 35.85C86.0278 37.225 85.9278 40.8375 85.9278 46.6875C85.9278 50.7875 87.0278 52.8375 89.2278 52.8375C90.0028 52.8375 90.7778 52.7 91.5528 52.425C92.3528 52.15 92.9528 51.8875 93.3528 51.6375C93.7528 51.3625 94.2653 50.9875 94.8903 50.5125C94.9653 48.8625 95.0028 47.675 95.0028 46.95V42.4125C95.0028 40.8875 94.9278 39.825 94.7778 39.225C94.6528 38.625 94.4528 38.225 94.1778 38.025C93.9278 37.8 93.5778 37.6375 93.1278 37.5375L91.8903 37.3875L91.7778 36.9L91.8903 36.45C92.1403 36.4 92.5903 36.3375 93.2403 36.2625C93.9153 36.1875 94.8028 36.0375 95.9028 35.8125C97.0028 35.5875 97.6278 35.45 97.7778 35.4Z" fill="#FBFBF2"/>
</svg>
