<svg width="175" height="175" viewBox="0 0 175 175" fill="none" xmlns="http://www.w3.org/2000/svg">
<path d="M63.25 135L41.875 134.5H33.625C24.2083 134.5 17.25 134.833 12.75 135.5C12.3333 135 12.125 134.292 12.125 133.375L12.25 132.375C16.5833 131.375 19.4167 129.833 20.75 127.75C21.8333 126.083 22.6667 122.917 23.25 118.25C23.9167 113.5 24.25 104.375 24.25 90.875V65.625C24.25 54.2083 23.7083 48.4583 22.625 48.375C21.0417 48.125 18.5417 48 15.125 48C14.875 47.4167 14.75 46.75 14.75 46C14.75 45.25 14.875 44.625 15.125 44.125L27.125 44.5C34.7917 44.5 40.7083 44.1668 44.875 43.5C45.375 44.1668 45.625 44.8333 45.625 45.5L45.375 46.625C41.9583 47.5417 39.7083 48.7083 38.625 50.125C37.5417 51.4583 36.875 53.4167 36.625 56C35.625 66.25 35.125 77.375 35.125 89.375V113C35.125 120.833 35.375 126.333 35.875 129.5C38.875 129.833 42.375 130 46.375 130C54.9583 130 63.4583 128.875 71.875 126.625C73.2083 124.708 74.4167 122.167 75.5 119C76.6667 115.75 77.375 113.792 77.625 113.125C78.0417 113.042 78.6667 113 79.5 113C80.3333 113 81.25 113.375 82.25 114.125C81.9167 115.875 81.375 119.542 80.625 125.125C79.875 130.708 79.4167 133.583 79.25 133.75C78.1667 134.583 72.8333 135 63.25 135Z" fill="#FBFBF2"/>
<path d="M103.338 125.35C103.338 130.9 100.112 134.2 93.6625 135.25C91.0125 135.25 88.775 134.312 86.95 132.437C85.15 130.537 84.25 128.175 84.25 125.35C84.25 119.75 87.4875 116.437 93.9625 115.412C96.5875 115.412 98.8 116.375 100.6 118.3C102.425 120.225 103.338 122.575 103.338 125.35ZM94.4875 133.637C98.0875 133.637 99.8875 131.337 99.8875 126.737C99.8875 124.137 99.2875 121.862 98.0875 119.912C96.8875 117.962 95.3 116.987 93.325 116.987C91.35 116.987 89.9125 117.625 89.0125 118.9C88.1375 120.15 87.7 121.95 87.7 124.3C87.7 126.625 88.3125 128.762 89.5375 130.712C90.7625 132.662 92.4125 133.637 94.4875 133.637ZM107.045 117.887L105.732 117.962C105.632 117.787 105.582 117.562 105.582 117.287L105.62 116.95C107.37 116.65 108.67 116.225 109.52 115.675L109.97 115.412C110.345 115.412 110.77 115.737 111.245 116.387C111.72 117.012 111.983 117.787 112.033 118.712C113.458 117.812 114.495 117.2 115.145 116.875C115.82 116.55 116.982 116.062 118.632 115.412C120.458 115.762 122.083 116.887 123.507 118.787C124.958 120.662 125.683 122.85 125.683 125.35C125.683 126.775 125.458 128.062 125.007 129.212C124.557 130.337 123.957 131.25 123.207 131.95C122.457 132.625 121.682 133.2 120.882 133.675C120.083 134.15 119.257 134.5 118.408 134.725C116.958 135.075 115.87 135.25 115.145 135.25C114.445 135.25 113.345 135.062 111.845 134.687V136.787C111.845 143.462 111.995 146.812 112.295 146.837C113.045 146.912 114.445 146.95 116.495 146.95C116.545 147.125 116.57 147.325 116.57 147.55C116.57 147.775 116.545 147.962 116.495 148.112L111.095 148C108.945 148 107.195 148.1 105.845 148.3C105.695 148.15 105.62 147.937 105.62 147.662L105.695 147.362C106.72 147.112 107.407 146.762 107.757 146.312C108.132 145.862 108.37 145.287 108.47 144.587C108.72 142.837 108.845 138.737 108.845 132.287V123.137C108.845 121.137 108.72 119.762 108.47 119.012C108.245 118.262 107.77 117.887 107.045 117.887ZM111.845 131.537C111.845 131.912 112.557 132.362 113.982 132.887C115.407 133.387 116.407 133.637 116.982 133.637C118.582 133.637 119.907 132.962 120.957 131.612C122.007 130.262 122.533 128.55 122.533 126.475C122.533 124.375 121.92 122.45 120.695 120.7C119.47 118.925 118.17 118.037 116.795 118.037C115.42 118.037 113.795 118.825 111.92 120.4C111.87 122.475 111.845 126.187 111.845 131.537ZM138.421 132.55C140.471 132.55 142.284 132 143.859 130.9C144.209 131.025 144.409 131.287 144.459 131.687L140.409 134.537C139.809 135.012 138.472 135.25 136.396 135.25C134.321 135.25 132.559 134.325 131.109 132.475C129.659 130.6 128.934 128.237 128.934 125.387C128.934 122.537 129.721 120.287 131.296 118.637C132.871 116.987 134.746 115.912 136.921 115.412C138.821 115.412 140.497 116.05 141.947 117.325C142.822 118.075 143.434 119.05 143.784 120.25C143.859 120.55 144.209 120.712 144.834 120.737C144.984 120.912 145.059 121.1 145.059 121.3C145.059 121.475 145.034 121.662 144.984 121.862C140.584 122.887 136.259 123.6 132.009 124C132.009 127.2 132.896 129.6 134.671 131.2C135.671 132.1 136.921 132.55 138.421 132.55ZM140.784 121.112C140.909 121.037 140.971 120.95 140.971 120.85C140.971 120.725 140.809 120.375 140.484 119.8C140.184 119.2 139.647 118.575 138.872 117.925C138.097 117.25 137.284 116.912 136.434 116.912C135.584 116.912 134.959 117.037 134.559 117.287C133.159 118.237 132.359 119.962 132.159 122.462C133.509 122.462 135.047 122.325 136.771 122.05C138.496 121.75 139.834 121.437 140.784 121.112ZM159.594 134.612L153.744 134.5C151.169 134.5 149.207 134.562 147.857 134.687C147.657 134.487 147.557 134.237 147.557 133.937V133.787C148.007 133.337 148.431 132.825 148.831 132.25C152.831 126.55 156.106 121.587 158.656 117.362H155.507C152.907 117.362 151.069 117.525 149.994 117.85L149.544 120.737C149.419 120.837 149.244 120.887 149.019 120.887C148.794 120.887 148.581 120.862 148.382 120.812C148.307 120.062 148.157 119.125 147.932 118C147.732 116.875 147.632 116.275 147.632 116.2C147.632 115.975 147.832 115.862 148.232 115.862L155.206 116.012H156.781C159.431 116.012 161.431 115.937 162.781 115.787C162.956 115.987 163.044 116.312 163.044 116.762C162.519 117.237 162.069 117.75 161.694 118.3L152.057 133.15H154.531C155.856 133.15 157.282 133.037 158.807 132.812C160.332 132.587 161.406 132.362 162.031 132.137L163.044 129.55C163.269 129.475 163.444 129.437 163.569 129.437C163.694 129.437 163.906 129.512 164.206 129.662C163.831 132.412 163.644 133.875 163.644 134.05C163.644 134.225 163.481 134.362 163.156 134.462C162.856 134.562 161.669 134.612 159.594 134.612Z" fill="#FBFBF2"/>
<path d="M56.3373 97.8625L52.9623 97.75C51.2123 97.75 49.5623 97.85 48.0123 98.05C47.8623 97.85 47.7873 97.6375 47.7873 97.4125L47.8623 97.1125C48.9373 96.8625 49.6623 96.475 50.0373 95.95C50.3123 95.55 50.5248 95.075 50.6748 94.525C50.8248 93.95 50.8998 92.325 50.8998 89.65V86.05C50.8998 84.5 50.8248 83.425 50.6748 82.825C50.5498 82.225 50.3498 81.825 50.0748 81.625C49.7998 81.425 49.4373 81.3 48.9873 81.25L47.5998 81.1375C47.5248 81.0375 47.4873 80.875 47.4873 80.65L47.5998 80.1625C48.8998 79.8875 49.9498 79.6125 50.7498 79.3375C51.5748 79.0375 52.5373 78.6125 53.6373 78.0625C53.9123 78.0625 54.0998 78.2125 54.1998 78.5125C53.8998 80.2125 53.7498 84.2625 53.7498 90.6625C53.7498 91.8125 53.7873 93.0875 53.8623 94.4875C53.9623 95.8625 54.0873 96.5625 54.2373 96.5875C54.6123 96.6625 55.3123 96.7 56.3373 96.7C56.4123 96.875 56.4498 97.075 56.4498 97.3C56.4498 97.525 56.4123 97.7125 56.3373 97.8625ZM52.8123 73.7875C51.9123 73.1625 51.2748 72.3375 50.8998 71.3125C51.1998 70.9625 51.5998 70.6 52.0998 70.225C52.6248 69.825 53.0748 69.55 53.4498 69.4C54.3998 70.1 55.0123 70.9375 55.2873 71.9125C54.5873 72.8125 53.7623 73.4375 52.8123 73.7875ZM68.4641 97.8625L64.3391 97.75C62.1891 97.75 60.3266 97.85 58.7516 98.05C58.6266 97.9 58.5641 97.6875 58.5641 97.4125L58.6016 97.1125C59.7766 96.8875 60.5516 96.55 60.9266 96.1C61.3266 95.65 61.6141 94.8875 61.7891 93.8125C61.9891 92.7375 62.0891 88.8125 62.0891 82.0375V72.4375C62.0891 70.1625 61.8266 68.775 61.3016 68.275C61.0266 68 60.6766 67.8375 60.2516 67.7875L58.9016 67.6375C58.8266 67.5125 58.7891 67.3625 58.7891 67.1875C58.7891 66.9875 58.8266 66.825 58.9016 66.7C60.6766 66.375 62.0516 65.975 63.0266 65.5C63.6766 65.175 64.4141 64.7375 65.2391 64.1875C65.4891 64.1875 65.6891 64.3125 65.8391 64.5625C65.3141 67.8375 65.0516 73.7 65.0516 82.15V86.5375C65.0516 93.1125 65.2141 96.45 65.5391 96.55C65.9891 96.65 66.9641 96.7 68.4641 96.7C68.5141 96.875 68.5391 97.075 68.5391 97.3C68.5391 97.525 68.5141 97.7125 68.4641 97.8625ZM89.9453 88.6C89.9453 94.15 86.7203 97.45 80.2703 98.5C77.6203 98.5 75.3828 97.5625 73.5578 95.6875C71.7578 93.7875 70.8578 91.425 70.8578 88.6C70.8578 83 74.0953 79.6875 80.5703 78.6625C83.1953 78.6625 85.4078 79.625 87.2078 81.55C89.0328 83.475 89.9453 85.825 89.9453 88.6ZM81.0953 96.8875C84.6953 96.8875 86.4953 94.5875 86.4953 89.9875C86.4953 87.3875 85.8953 85.1125 84.6953 83.1625C83.4953 81.2125 81.9078 80.2375 79.9328 80.2375C77.9578 80.2375 76.5203 80.875 75.6203 82.15C74.7453 83.4 74.3078 85.2 74.3078 87.55C74.3078 89.875 74.9203 92.0125 76.1453 93.9625C77.3703 95.9125 79.0203 96.8875 81.0953 96.8875ZM109.778 78.4C110.003 78.45 110.19 78.6 110.34 78.85C110.115 80.55 110.003 83.35 110.003 87.25L110.04 92.6125C110.04 94.8625 110.603 95.9875 111.728 95.9875L113.078 95.95C113.178 96.125 113.228 96.325 113.228 96.55L113.19 96.9625C111.965 97.1625 111.09 97.4 110.565 97.675L109.59 98.125C109.465 98.2 109.278 98.325 109.028 98.5C108.478 98.3 108.015 97.8625 107.64 97.1875C107.265 96.4875 107.053 95.7875 107.003 95.0875C104.878 96.4125 102.44 97.55 99.6903 98.5C98.0903 98.5 96.8903 97.9125 96.0903 96.7375C95.3153 95.5375 94.9278 93.9125 94.9278 91.8625V84.7C94.9278 83 94.8528 81.925 94.7028 81.475C94.5528 81 94.1153 80.6875 93.3903 80.5375L92.1528 80.3875C92.0778 80.2375 92.0403 80.075 92.0403 79.9L92.1528 79.45C92.5778 79.375 93.5403 79.2125 95.0403 78.9625L97.7028 78.4C97.9028 78.45 98.0778 78.6 98.2278 78.85C98.0278 80.225 97.9278 83.8375 97.9278 89.6875C97.9278 93.7875 99.0278 95.8375 101.228 95.8375C102.003 95.8375 102.778 95.7 103.553 95.425C104.353 95.15 104.953 94.8875 105.353 94.6375C105.753 94.3625 106.265 93.9875 106.89 93.5125C106.965 91.8625 107.003 90.675 107.003 89.95V85.4125C107.003 83.8875 106.928 82.825 106.778 82.225C106.653 81.625 106.453 81.225 106.178 81.025C105.928 80.8 105.578 80.6375 105.128 80.5375L103.89 80.3875L103.778 79.9L103.89 79.45C104.14 79.4 104.59 79.3375 105.24 79.2625C105.915 79.1875 106.803 79.0375 107.903 78.8125C109.003 78.5875 109.628 78.45 109.778 78.4Z" fill="#FBFBF2"/>
</svg>
