<svg width="42" height="38" viewBox="0 0 42 38" fill="none" xmlns="http://www.w3.org/2000/svg">
<path d="M37.5 37.8729H4.16667C3.0616 37.8729 2.00179 37.3742 1.22039 36.4863C0.438987 35.5985 0 34.3944 0 33.1388V4.52818C0.0467347 3.30865 0.506269 2.15677 1.28266 1.31301C2.05906 0.469252 3.0923 -0.00115332 4.16667 2.12354e-06H37.5C38.6051 2.12354e-06 39.6649 0.498773 40.4463 1.38659C41.2277 2.27441 41.6667 3.47855 41.6667 4.73412V33.1388C41.6667 34.3944 41.2277 35.5985 40.4463 36.4863C39.6649 37.3742 38.6051 37.8729 37.5 37.8729ZM4.16667 9.15578V33.1388H37.5V9.15578L20.8333 21.7769L4.16667 9.15578ZM5.83334 4.73412L20.8333 16.096L35.8334 4.73412H5.83334Z" fill="#A22522"/>
</svg>
