<svg width="51" height="46" viewBox="0 0 51 46" fill="none" xmlns="http://www.w3.org/2000/svg">
<path d="M45.5471 46H5.06079C3.71858 46 2.43135 45.3942 1.48227 44.3159C0.533188 43.2375 0 41.775 0 40.25V5.49988C0.0567634 4.01865 0.614908 2.61958 1.55791 1.59476C2.50091 0.569948 3.75587 -0.00140081 5.06079 2.57922e-06H45.5471C46.8893 2.57922e-06 48.1765 0.605804 49.1256 1.68414C50.0747 2.76247 50.6079 4.22501 50.6079 5.75V40.25C50.6079 41.775 50.0747 43.2375 49.1256 44.3159C48.1765 45.3942 46.8893 46 45.5471 46ZM5.06079 11.1205V40.25H45.5471V11.1205L25.3039 26.45L5.06079 11.1205ZM7.0851 5.75L25.3039 19.55L43.5228 5.75H7.0851Z" fill="#A22522"/>
</svg>
