<svg width="75" height="60" viewBox="0 0 75 60" fill="none" xmlns="http://www.w3.org/2000/svg">
<path d="M57.5471 53H17.0608C15.7186 53 14.4314 52.3942 13.4823 51.3159C12.5332 50.2375 12 48.775 12 47.25V12.4999C12.0568 11.0186 12.6149 9.61958 13.5579 8.59476C14.5009 7.56995 15.7559 6.9986 17.0608 7H57.5471C58.8893 7 60.1765 7.6058 61.1256 8.68414C62.0747 9.76247 62.6079 11.225 62.6079 12.75V47.25C62.6079 48.775 62.0747 50.2375 61.1256 51.3159C60.1765 52.3942 58.8893 53 57.5471 53ZM17.0608 18.1205V47.25H57.5471V18.1205L37.3039 33.45L17.0608 18.1205ZM19.0851 12.75L37.3039 26.55L55.5228 12.75H19.0851Z" fill="#A22522"/>
</svg>
