<svg width="101" height="128" viewBox="0 0 101 128" fill="none" xmlns="http://www.w3.org/2000/svg">
<path d="M91.8182 37.5072V83.9488C88.3173 81.9275 84.2473 81.118 80.2394 81.6456C76.2315 82.1733 72.5097 84.0087 69.6512 86.8672C66.7928 89.7257 64.9574 93.4475 64.4298 97.4554C63.9022 101.463 64.7118 105.533 66.7331 109.034C68.7544 112.535 71.8744 115.271 75.6092 116.818C79.344 118.365 83.4848 118.636 87.3896 117.59C91.2943 116.544 94.7446 114.238 97.2055 111.031C99.6663 107.824 101 103.894 101 99.8517V7.35408C101.001 6.17548 100.719 5.01384 100.177 3.96728C99.6351 2.92071 98.8491 2.01994 97.8857 1.34104C96.9223 0.662132 95.8096 0.225027 94.6417 0.0666348C93.4738 -0.0917575 92.2849 0.0332141 91.1755 0.430994L32.4118 21.4206C30.9873 21.9314 29.7552 22.8697 28.8842 24.1072C28.0131 25.3448 27.5456 26.8212 27.5455 28.3345V93.1214C24.0449 91.1004 19.9753 90.2908 15.9678 90.8181C11.9603 91.3455 8.23868 93.1804 5.38015 96.0382C2.52162 98.8961 0.685868 102.617 0.157556 106.625C-0.370756 110.632 0.437894 114.702 2.45811 118.203C4.47832 121.704 7.59722 124.441 11.3312 125.988C15.0651 127.536 19.2055 127.809 23.1102 126.764C27.0149 125.72 30.4659 123.416 32.9279 120.21C35.3899 117.004 36.7254 113.076 36.7273 109.034V57.1838L91.8182 37.5163V37.5072ZM91.8182 27.7561L36.7273 47.4235V29.62L91.8182 9.94335V27.7469V27.7561ZM82.6364 90.6699C85.0715 90.6699 87.407 91.6372 89.1289 93.3592C90.8508 95.0811 91.8182 97.4165 91.8182 99.8517C91.8182 102.287 90.8508 104.622 89.1289 106.344C87.407 108.066 85.0715 109.034 82.6364 109.034C80.2012 109.034 77.8658 108.066 76.1438 106.344C74.4219 104.622 73.4546 102.287 73.4546 99.8517C73.4546 97.4165 74.4219 95.0811 76.1438 93.3592C77.8658 91.6372 80.2012 90.6699 82.6364 90.6699V90.6699ZM18.3637 99.8517C20.7988 99.8517 23.1343 100.819 24.8562 102.541C26.5781 104.263 27.5455 106.598 27.5455 109.034C27.5455 111.469 26.5781 113.804 24.8562 115.526C23.1343 117.248 20.7988 118.215 18.3637 118.215C15.9285 118.215 13.5931 117.248 11.8711 115.526C10.1492 113.804 9.18184 111.469 9.18184 109.034C9.18184 106.598 10.1492 104.263 11.8711 102.541C13.5931 100.819 15.9285 99.8517 18.3637 99.8517V99.8517Z" fill="#C08552"/>
</svg>
