<svg width="150" height="120" viewBox="0 0 150 120" fill="none" xmlns="http://www.w3.org/2000/svg">
<path d="M104.564 37.093V76.8308C101.569 75.1014 98.0862 74.4087 94.6569 74.8601C91.2275 75.3116 88.043 76.8821 85.5971 79.328C83.1513 81.7738 81.5809 84.9584 81.1294 88.3878C80.678 91.8171 81.3707 95.2996 83.1002 98.2952C84.8297 101.291 87.4994 103.632 90.695 104.955C93.8907 106.279 97.4339 106.511 100.775 105.616C104.116 104.721 107.068 102.748 109.174 100.004C111.28 97.2595 112.421 93.8971 112.421 90.4382V11.2925C112.422 10.2841 112.18 9.2901 111.717 8.3946C111.253 7.49911 110.58 6.72836 109.756 6.14746C108.932 5.56655 107.98 5.19254 106.98 5.05702C105.981 4.92149 104.964 5.02842 104.014 5.36878L53.7332 23.3286C52.5143 23.7656 51.4601 24.5685 50.7148 25.6274C49.9695 26.6863 49.5694 27.9496 49.5693 29.2445V84.6794C46.574 82.9501 43.0919 82.2574 39.6629 82.7086C36.2338 83.1598 33.0494 84.7298 30.6035 87.1752C28.1576 89.6205 26.5869 92.8045 26.1348 96.2334C25.6828 99.6624 26.3747 103.145 28.1033 106.14C29.8319 109.136 32.5006 111.478 35.6955 112.802C38.8905 114.127 42.4332 114.36 45.7743 113.466C49.1153 112.572 52.0681 110.601 54.1747 107.858C56.2814 105.115 57.4241 101.753 57.4257 98.2946V53.9294L104.564 37.1009V37.093ZM104.564 28.7495L57.4257 45.578V30.3444L104.564 13.508V28.7416V28.7495ZM96.7079 82.5817C98.7915 82.5817 100.79 83.4095 102.263 84.8828C103.737 86.3562 104.564 88.3545 104.564 90.4382C104.564 92.5218 103.737 94.5201 102.263 95.9935C100.79 97.4669 98.7915 98.2946 96.7079 98.2946C94.6242 98.2946 92.6259 97.4669 91.1525 95.9935C89.6792 94.5201 88.8514 92.5218 88.8514 90.4382C88.8514 88.3545 89.6792 86.3562 91.1525 84.8828C92.6259 83.4095 94.6242 82.5817 96.7079 82.5817V82.5817ZM41.7129 90.4382C43.7965 90.4382 45.7948 91.2659 47.2682 92.7393C48.7416 94.2126 49.5693 96.2109 49.5693 98.2946C49.5693 100.378 48.7416 102.377 47.2682 103.85C45.7948 105.323 43.7965 106.151 41.7129 106.151C39.6292 106.151 37.6309 105.323 36.1575 103.85C34.6842 102.377 33.8564 100.378 33.8564 98.2946C33.8564 96.2109 34.6842 94.2126 36.1575 92.7393C37.6309 91.2659 39.6292 90.4382 41.7129 90.4382V90.4382Z" fill="#FFC233"/>
</svg>
