<svg width="104" height="131" viewBox="0 0 104 131" fill="none" xmlns="http://www.w3.org/2000/svg">
<path d="M93.75 38.2963V85.7151C90.1755 83.6513 86.0198 82.8247 81.9276 83.3635C77.8354 83.9022 74.0353 85.7762 71.1167 88.6949C68.1981 91.6135 66.3241 95.4136 65.7854 99.5059C65.2467 103.598 66.0733 107.754 68.1372 111.328C70.201 114.903 73.3866 117.696 77.2 119.276C81.0134 120.855 85.2413 121.132 89.2282 120.064C93.2151 118.996 96.738 116.642 99.2507 113.367C101.763 110.092 103.125 106.08 103.125 101.953V7.50881C103.126 6.30541 102.838 5.11933 102.285 4.05075C101.731 2.98216 100.929 2.06244 99.9452 1.36925C98.9615 0.676063 97.8254 0.229762 96.633 0.0680368C95.4405 -0.093688 94.2266 0.0339129 93.0938 0.440063L33.0938 21.8713C31.6392 22.3928 30.3813 23.3509 29.4919 24.6144C28.6025 25.878 28.1251 27.3855 28.125 28.9307V95.0807C24.5508 93.0171 20.3956 92.1905 16.3038 92.7289C12.2119 93.2674 8.41202 95.1409 5.49334 98.0588C2.57467 100.977 0.700298 104.776 0.160871 108.868C-0.378556 112.96 0.447107 117.115 2.50983 120.69C4.57255 124.265 7.75707 127.059 11.5696 128.639C15.3821 130.22 19.6095 130.498 23.5964 129.432C27.5833 128.365 31.1069 126.012 33.6207 122.739C36.1345 119.466 37.4981 115.455 37.5 111.328V58.3869L93.75 38.3057V38.2963ZM93.75 28.3401L37.5 48.4213V30.2432L93.75 10.1526V28.3307V28.3401ZM84.375 92.5776C86.8614 92.5776 89.246 93.5653 91.0042 95.3234C92.7623 97.0816 93.75 99.4662 93.75 101.953C93.75 104.439 92.7623 106.824 91.0042 108.582C89.246 110.34 86.8614 111.328 84.375 111.328C81.8886 111.328 79.5041 110.34 77.7459 108.582C75.9877 106.824 75 104.439 75 101.953C75 99.4662 75.9877 97.0816 77.7459 95.3234C79.5041 93.5653 81.8886 92.5776 84.375 92.5776ZM18.75 101.953C21.2364 101.953 23.621 102.94 25.3791 104.698C27.1373 106.457 28.125 108.841 28.125 111.328C28.125 113.814 27.1373 116.199 25.3791 117.957C23.621 119.715 21.2364 120.703 18.75 120.703C16.2636 120.703 13.8791 119.715 12.1209 117.957C10.3627 116.199 9.37502 113.814 9.37502 111.328C9.37502 108.841 10.3627 106.457 12.1209 104.698C13.8791 102.94 16.2636 101.953 18.75 101.953Z" fill="#C08552"/>
</svg>
