<svg width="62" height="61" viewBox="0 0 62 61" fill="none" xmlns="http://www.w3.org/2000/svg">
<g clip-path="url(#clip0_507_191)">
<path d="M11.7062 10.7568C13.5856 12.2888 14.2975 12.1806 17.8456 11.9433L51.2955 9.93665C52.0074 9.93665 51.4151 9.22475 51.1759 9.10515L45.6193 5.09003C44.5619 4.25853 43.1381 3.32071 40.4176 3.54662L8.03657 5.91963C6.85006 6.02784 6.61276 6.62204 7.08737 7.09664L11.7062 10.7568ZM13.7128 18.5592V53.748C13.7128 55.6369 14.6525 56.3488 16.7787 56.2292L53.5413 54.103C55.6675 53.9834 55.9143 52.6887 55.9143 51.1472V16.1957C55.9143 14.6523 55.3201 13.8322 54.0159 13.9518L15.6036 16.1957C14.1798 16.3153 13.7147 17.0158 13.7147 18.5497L13.7128 18.5592ZM50.0008 20.4367C50.2381 21.5055 50.0008 22.5629 48.932 22.692L47.1627 23.0489V49.0229C45.6193 49.8544 44.2069 50.329 43.0298 50.329C41.1314 50.329 40.6568 49.7348 39.2425 47.9655L27.6547 29.7731V47.3732L31.3224 48.2047C31.3224 48.2047 31.3224 50.3309 28.3666 50.3309L20.2091 50.8055C19.9718 50.3309 20.2091 49.1444 21.0406 48.9166L23.1668 48.3224V25.0574L20.211 24.8201C19.9737 23.7513 20.5679 22.2193 22.2176 22.1016L30.9674 21.5074L43.0298 39.9371V23.6317L39.9544 23.2748C39.7171 21.9801 40.6568 21.0309 41.8433 20.9208L50.0008 20.4367ZM5.31805 2.72841L39.0052 0.247197C43.1381 -0.109703 44.2069 0.127597 46.8058 2.01651L57.564 9.57975C59.3333 10.8745 59.9275 11.2314 59.9275 12.6457V54.1049C59.9275 56.7057 58.9783 58.2378 55.6751 58.4751L16.5395 60.8386C14.0678 60.9582 12.8813 60.6013 11.5752 58.9497L3.65505 48.666C2.24074 46.7771 1.64844 45.3628 1.64844 43.7131V6.86314C1.64844 4.73692 2.59764 2.96761 5.31615 2.73031L5.31805 2.72841Z" fill="#FFC233"/>
</g>
<defs>
<clipPath id="clip0_507_191">
<rect width="60.7489" height="60.7489" fill="white" transform="translate(0.414062 0.109375)"/>
</clipPath>
</defs>
</svg>
