<svg width="150" height="120" viewBox="0 0 150 120" fill="none" xmlns="http://www.w3.org/2000/svg">
<path d="M116.438 100.438H34.5625C32.391 100.438 30.3085 99.5749 28.7731 98.0394C27.2376 96.504 26.375 94.4215 26.375 92.25V34.9375C26.375 32.766 27.2376 30.6835 28.7731 29.1481C30.3085 27.6126 32.391 26.75 34.5625 26.75H50.9375L59.125 14.4688H91.875L100.062 26.75H116.438C118.609 26.75 120.691 27.6126 122.227 29.1481C123.762 30.6835 124.625 32.766 124.625 34.9375V92.25C124.625 94.4215 123.762 96.504 122.227 98.0394C120.691 99.5749 118.609 100.438 116.438 100.438Z" stroke="#FFC233" stroke-width="8.03681" stroke-linecap="round" stroke-linejoin="round"/>
<path d="M75.5 79.9688C85.6741 79.9688 93.9219 71.721 93.9219 61.5469C93.9219 51.3728 85.6741 43.125 75.5 43.125C65.3259 43.125 57.0781 51.3728 57.0781 61.5469C57.0781 71.721 65.3259 79.9688 75.5 79.9688Z" stroke="#FFC233" stroke-width="8.03681" stroke-linecap="round" stroke-linejoin="round"/>
<path d="M75.4995 80.1319C85.8093 80.1319 94.167 71.7742 94.167 61.4644C94.167 51.1546 85.8093 42.7969 75.4995 42.7969C65.1898 42.7969 56.832 51.1546 56.832 61.4644C56.832 71.7742 65.1898 80.1319 75.4995 80.1319Z" stroke="#FFC233" stroke-width="2.41104" stroke-linecap="round" stroke-linejoin="round"/>
<path d="M75.4961 42.7969L82.6325 62.7672" stroke="#FFC233" stroke-width="2.41104" stroke-linecap="round" stroke-linejoin="round"/>
<path d="M59.3398 52.1289L80.1852 55.9402" stroke="#FFC233" stroke-width="2.41104" stroke-linecap="round" stroke-linejoin="round"/>
<path d="M59.3398 70.7997L73.0682 54.6406" stroke="#FFC233" stroke-width="2.41104" stroke-linecap="round" stroke-linejoin="round"/>
<path d="M75.4997 80.1344L68.3633 60.1641" stroke="#FFC233" stroke-width="2.41104" stroke-linecap="round" stroke-linejoin="round"/>
<path d="M91.6579 70.7976L70.8125 66.9863" stroke="#FFC233" stroke-width="2.41104" stroke-linecap="round" stroke-linejoin="round"/>
<path d="M91.6581 52.1289L77.9297 68.288" stroke="#FFC233" stroke-width="2.41104" stroke-linecap="round" stroke-linejoin="round"/>
</svg>
