<svg width="163" height="163" viewBox="0 0 163 163" fill="none" xmlns="http://www.w3.org/2000/svg">
<path d="M132.438 132.438H30.5625C27.8606 132.438 25.2694 131.364 23.3588 129.454C21.4483 127.543 20.375 124.952 20.375 122.25V50.9375C20.375 48.2356 21.4483 45.6444 23.3588 43.7339C25.2694 41.8233 27.8606 40.75 30.5625 40.75H50.9375L61.125 25.4688H101.875L112.062 40.75H132.438C135.139 40.75 137.731 41.8233 139.641 43.7339C141.552 45.6444 142.625 48.2356 142.625 50.9375V122.25C142.625 124.952 141.552 127.543 139.641 129.454C137.731 131.364 135.139 132.438 132.438 132.438Z" stroke="#C08552" stroke-width="10" stroke-linecap="round" stroke-linejoin="round"/>
<path d="M81.5 106.969C94.1594 106.969 104.422 96.7063 104.422 84.0469C104.422 71.3875 94.1594 61.125 81.5 61.125C68.8406 61.125 58.5781 71.3875 58.5781 84.0469C58.5781 96.7063 68.8406 106.969 81.5 106.969Z" stroke="#C08552" stroke-width="10" stroke-linecap="round" stroke-linejoin="round"/>
<path d="M81.5009 107.173C94.3291 107.173 104.728 96.774 104.728 83.9458C104.728 71.1176 94.3291 60.7183 81.5009 60.7183C68.6727 60.7183 58.2734 71.1176 58.2734 83.9458C58.2734 96.774 68.6727 107.173 81.5009 107.173Z" stroke="#C08552" stroke-width="3" stroke-linecap="round" stroke-linejoin="round"/>
<path d="M81.5 60.7183L90.3797 85.5668" stroke="#C08552" stroke-width="3" stroke-linecap="round" stroke-linejoin="round"/>
<path d="M61.3945 72.332L87.3319 77.0743" stroke="#C08552" stroke-width="3" stroke-linecap="round" stroke-linejoin="round"/>
<path d="M61.3945 95.5594L78.4764 75.4531" stroke="#C08552" stroke-width="3" stroke-linecap="round" stroke-linejoin="round"/>
<path d="M81.4998 107.174L72.6201 82.3252" stroke="#C08552" stroke-width="3" stroke-linecap="round" stroke-linejoin="round"/>
<path d="M101.607 95.5597L75.6699 90.8174" stroke="#C08552" stroke-width="3" stroke-linecap="round" stroke-linejoin="round"/>
<path d="M101.606 72.332L84.5244 92.4383" stroke="#C08552" stroke-width="3" stroke-linecap="round" stroke-linejoin="round"/>
</svg>
