<svg width="83" height="82" viewBox="0 0 83 82" fill="none" xmlns="http://www.w3.org/2000/svg">
<g clip-path="url(#clip0_341_225)">
<path d="M26.4592 26.5508C25.8211 26.5508 25.1558 26.5883 24.4733 26.6702L24.8691 27.8918C25.4668 27.8338 26.067 27.8064 26.6674 27.8099H26.8721L26.4626 26.5508H26.4592ZM34.3585 27.7724L34.2766 29.1372C34.9591 29.3659 35.6211 29.6081 36.283 29.8777L36.3717 28.4992C36.1841 28.3968 35.662 28.1443 34.3585 27.7724V27.7724ZM17.3384 28.5572C16.7921 28.8377 16.2539 29.1335 15.7244 29.4443L16.6798 30.898C17.2155 30.567 17.7308 30.2496 18.2699 29.9835L17.3384 28.5606V28.5572ZM27.1997 28.6322C26.4547 28.6194 25.7095 28.6502 24.9681 28.7244C23.4565 28.8609 21.8664 29.301 20.2592 30.004C15.4207 32.1127 10.4388 36.5486 7.18016 41.9809C3.92148 47.4097 2.77498 52.2175 2.40304 54.2751C2.27679 54.9644 2.23243 55.3431 2.23243 55.3431H18.577C18.577 55.3431 18.3825 54.456 18.2494 53.0296C18.1746 52.1992 18.137 51.3657 18.1368 50.5319C18.1368 48.6552 18.3245 46.427 18.9694 44.192C19.2925 43.0436 19.7423 41.9346 20.3104 40.8855C20.8905 39.8141 21.6105 38.7768 22.5147 37.835C23.4189 36.8932 24.5074 36.0436 25.8007 35.3236C26.6469 34.9141 28.1824 34.0781 30.3935 33.655C31.1306 33.5151 31.9393 33.4162 32.8264 33.3957C33.7136 33.3786 34.6759 33.4367 35.7098 33.6004C37.7776 33.9314 40.1388 34.6923 42.7901 36.1255C44.1141 36.8455 45.5131 37.7292 46.9803 38.8143C47.3557 38.5072 47.7003 38.2615 47.7003 38.2615C47.7003 38.2615 47.0315 37.5893 45.8338 36.6032C44.6396 35.6136 42.9232 34.3102 40.8281 33.0442C39.7258 32.3733 38.5891 31.7605 37.4227 31.2085C36.1744 30.6206 34.8872 30.119 33.5703 29.7071C32.2041 29.2833 30.8047 28.9751 29.3869 28.7858C28.6622 28.696 27.9332 28.6447 27.2031 28.6322H27.1997ZM34.3176 34.2624L34.2391 35.5693C34.9215 35.5898 35.604 35.6717 36.2864 35.815L36.3717 34.5354C35.6943 34.3963 35.0079 34.3051 34.3176 34.2624ZM29.479 34.7606C28.8593 34.9422 28.2518 35.1633 27.6603 35.4226L28.1346 36.8489C28.7147 36.5631 29.3159 36.3224 29.9329 36.1289L29.479 34.764V34.7606ZM8.9784 34.8425C8.44268 35.3577 7.92061 35.8764 7.44631 36.395L9.03982 37.7599C9.47317 37.2037 9.95089 36.6441 10.4457 36.1289L8.9784 34.8425V34.8425ZM23.7875 37.9067C23.3097 38.3434 22.8798 38.8177 22.5079 39.2954L23.5008 40.7798C23.8523 40.2645 24.2652 39.7902 24.7224 39.3125L23.7875 37.9067ZM27.1621 40.5921V55.3431H31.134V51.7842L34.5701 55.3431H40.4425L35.8326 50.6889C35.8326 50.6889 39.4496 50.3818 39.4496 45.707C39.4496 41.0323 35.0649 40.5921 35.0649 40.5921H27.1621V40.5921ZM45.2196 40.7013C42.3465 40.7013 41.3775 43.3048 41.3775 44.5469V55.3431H45.4073V52.7567H49.1949V55.3431H53.1053V44.5469C53.1053 41.4008 50.2458 40.7013 49.2529 40.7013H45.2196V40.7013ZM54.9445 40.7013V55.3397H59.1415V40.7013H54.9445ZM60.8579 40.7013V55.3431H70.6851V51.5556H65.0344V40.7013H60.8579ZM75.7317 40.7013C74.0768 40.7013 71.8657 42.0628 71.8657 44.6049V45.9117C71.8657 48.4573 74.0563 49.7573 75.7317 49.7573C80.386 49.7778 74.616 49.7573 78.9154 49.7573V51.576L72.0738 51.5965V55.3431H78.8369C80.2222 55.3431 82.6006 54.3297 82.6825 51.4976V50.0508C82.6825 47.6281 80.6999 46.1984 78.8369 46.1984H75.4656V44.465H82.1433V40.7013H75.7283H75.7317ZM20.1296 43.6767C19.8772 44.4211 19.6698 45.18 19.5085 45.9493L21.1805 47.2732C21.2658 46.4679 21.416 45.6627 21.6241 44.854L20.1296 43.6767ZM46.6459 44.1886H48.0347C49.1505 44.1886 49.1744 44.9939 49.1744 44.9939V48.5767H45.3868V44.9939C45.3868 44.9939 45.3868 44.1886 46.6494 44.1886H46.6459ZM31.134 44.2943H34.3176C34.3176 44.2943 35.2116 44.6253 35.2116 45.9663C35.2116 47.3142 34.2971 47.669 34.2971 47.669H31.134V44.2943ZM1.82297 44.5025C1.43056 45.3897 0.997208 46.4236 0.789062 46.9832L3.16738 47.8533C3.44036 47.1504 3.8703 46.1335 4.20129 45.3692L1.82297 44.5025V44.5025ZM19.198 51.2007C19.239 52.296 19.3447 53.1934 19.4505 53.811L21.9278 54.6982C21.7193 53.8118 21.5553 52.9156 21.4364 52.0128L19.198 51.2007V51.2007Z" fill="#FFC233"/>
</g>
<defs>
<clipPath id="clip0_341_225">
<rect width="81.8934" height="81.8934" fill="white" transform="translate(0.789062)"/>
</clipPath>
</defs>
</svg>
