<svg width="82" height="82" viewBox="0 0 82 82" fill="none" xmlns="http://www.w3.org/2000/svg">
<g clip-path="url(#clip0_437_187)">
<g clip-path="url(#clip1_437_187)">
<path d="M41.8508 33.5959C37.9625 33.5959 34.796 36.7624 34.796 40.6507C34.796 44.5389 37.9625 47.7054 41.8508 47.7054C45.739 47.7054 48.9055 44.5389 48.9055 40.6507C48.9055 36.7624 45.739 33.5959 41.8508 33.5959ZM22.1005 54.6711L20.5432 54.2855C8.95507 51.3489 2.30078 46.3805 2.30078 40.6383C2.30078 34.8961 8.95754 29.9277 20.5432 26.9911L22.1005 26.6055L22.538 28.1504C23.7136 32.1969 25.2165 36.141 27.0319 39.9437L27.3656 40.6383L27.0319 41.3453C25.2127 45.1463 23.7097 49.0908 22.538 53.1386L22.1005 54.6711ZM19.8239 30.5951C11.0166 33.067 5.61062 36.8638 5.61062 40.6383C5.61062 44.4129 11.0191 48.1948 19.8239 50.6815C20.9033 47.2522 22.2062 43.8972 23.7245 40.6383C22.2041 37.3803 20.9011 34.0252 19.8239 30.5951V30.5951ZM61.6011 54.6711L61.1635 53.1262C59.99 49.083 58.487 45.1428 56.6697 41.3453L56.336 40.6383L56.6697 39.9313C58.4889 36.1303 59.9919 32.1858 61.1635 28.138L61.6011 26.6055L63.1583 26.9911C74.7465 29.9277 81.4008 34.8961 81.4008 40.6383C81.4008 46.3805 74.744 51.3489 63.1583 54.2855L61.6011 54.6711ZM59.977 40.6383C61.5004 43.8951 62.8035 47.2503 63.8777 50.6815C72.6973 48.1973 78.0909 44.4129 78.0909 40.6383C78.0909 36.8638 72.6825 33.0818 63.8777 30.5951C62.7958 34.0236 61.4928 37.3783 59.977 40.6383Z" fill="#FFC233"/>
<path d="M19.7984 30.5815L19.3609 29.0366C16.1029 17.5523 17.0941 9.31353 22.0774 6.44121C26.9693 3.6208 34.8101 6.95536 43.0365 15.4018L44.1562 16.5487L43.0365 17.6957C40.1151 20.7351 37.4457 24.0071 35.0548 27.4793L34.6049 28.1097L33.8312 28.1739C29.6253 28.5059 25.4531 29.178 21.3557 30.1836L19.7984 30.5815ZM26.0547 8.73511C25.1673 8.73511 24.3812 8.91556 23.7237 9.30117C20.4534 11.1946 19.875 17.7599 22.1269 26.6167C25.6405 25.8307 29.2019 25.2758 32.7881 24.9556C34.8527 22.015 37.1104 19.2148 39.5462 16.5734C34.4096 11.5654 29.5425 8.73264 26.0547 8.73264V8.73511ZM57.6626 75.8342C57.6502 75.8342 57.6502 75.8342 57.6626 75.8342C52.9635 75.8342 46.9247 72.3068 40.6684 65.87L39.5487 64.7231L40.6684 63.5761C43.5898 60.5367 46.2591 57.2646 48.6501 53.7924L49.0876 53.1621L49.8613 53.0855C54.0727 52.7647 58.2498 52.0924 62.3492 51.0759L63.9065 50.6902L64.344 52.2352C67.602 63.7195 66.6107 71.9459 61.6274 74.8157C60.4226 75.5082 59.0519 75.8594 57.6626 75.8317V75.8342ZM44.1562 64.6984C49.2928 69.7064 54.1599 72.5391 57.6477 72.5391H57.6601C58.5351 72.5391 59.3212 72.3463 59.9787 71.9731C63.249 70.0796 63.8422 63.5143 61.5755 54.6576C58.0626 55.4444 54.5009 55.9952 50.9143 56.3063C48.8498 59.2509 46.5921 62.0552 44.1562 64.7008V64.6984ZM63.9065 30.5815L62.3492 30.1836C58.2469 29.1813 54.0709 28.5093 49.8613 28.1739L49.0876 28.1097L48.6501 27.4793C46.2591 24.0071 43.5898 20.7351 40.6684 17.6957L39.5487 16.5487L40.6684 15.4018C48.8948 6.95536 56.7356 3.6208 61.6274 6.44121C66.6107 9.31106 67.602 17.5523 64.344 29.0366L63.9065 30.5815ZM50.9168 24.9556C54.5031 25.2749 58.0645 25.8298 61.578 26.6167C63.8447 17.7599 63.2515 11.1922 59.9812 9.30117C56.7232 7.42255 50.5955 10.3048 44.1587 16.5759C46.5879 19.2229 48.8452 22.0227 50.9168 24.958V24.9556Z" fill="#FFC233"/>
<path d="M26.0547 75.8339C24.663 75.8586 23.2862 75.5125 22.0774 74.8179C17.0941 71.9481 16.1029 63.7192 19.3609 52.2373L19.7984 50.6924L21.3557 51.078C25.1673 52.0445 29.3645 52.7119 33.8312 53.0877L34.6049 53.1643L35.0424 53.7946C37.4334 57.2668 40.1027 60.5388 43.0241 63.5783L44.1439 64.7252L43.0241 65.8722C36.7802 72.309 30.7414 75.8363 26.0547 75.8363V75.8339ZM22.1294 54.6573C19.8626 63.514 20.4559 70.0818 23.7262 71.9728C26.9841 73.8267 33.0995 70.9692 39.5487 64.6981C37.1127 62.0525 34.8551 59.2481 32.7905 56.3036C29.2039 55.9934 25.6422 55.4425 22.1294 54.6548V54.6573ZM41.8524 56.7287C39.1358 56.7287 36.355 56.6126 33.5618 56.3802L32.7881 56.3159L32.3382 55.6732C30.7604 53.4062 29.2785 51.074 27.8962 48.6828C26.5111 46.2914 25.2271 43.8429 24.0475 41.3438L23.7138 40.6368L24.0475 39.9299C26.4107 34.9327 29.1837 30.1398 32.3382 25.6004L32.7881 24.9577L33.5618 24.8935C39.0791 24.4287 44.6258 24.4287 50.1431 24.8935L50.9168 24.9577L51.3667 25.6004C54.5252 30.1372 57.2984 34.9304 59.6574 39.9299L59.9911 40.6368L59.6574 41.3438C57.3032 46.3457 54.5297 51.1393 51.3667 55.6732L50.9168 56.3159L50.1431 56.3802C47.3856 56.611 44.6196 56.7272 41.8524 56.7287V56.7287ZM34.6173 53.1495C39.4844 53.5227 44.2205 53.5227 49.1 53.1495C51.8213 49.1646 54.2398 44.9811 56.3352 40.6344C54.2487 36.2804 51.8255 32.096 49.0876 28.1192C44.2714 27.746 39.4335 27.746 34.6173 28.1192C31.8775 32.0948 29.4542 36.2793 27.3697 40.6344C29.4657 44.9833 31.8885 49.167 34.6173 53.1495V53.1495Z" fill="#FFC233"/>
</g>
</g>
<defs>
<clipPath id="clip0_437_187">
<rect width="81.8934" height="81.8934" fill="white"/>
</clipPath>
<clipPath id="clip1_437_187">
<rect width="79.1" height="79.1" fill="white" transform="translate(2.30078 1.09961)"/>
</clipPath>
</defs>
</svg>
