<svg width="55" height="61" viewBox="0 0 55 61" fill="none" xmlns="http://www.w3.org/2000/svg">
<g clip-path="url(#clip0_507_201)">
<path d="M40.7276 22.0243C44.6403 24.8198 49.4336 26.4647 54.6104 26.4647V16.5081C53.6306 16.5083 52.6534 16.4061 51.6949 16.2031V24.0404C46.5184 24.0404 41.7258 22.3958 37.8123 19.6005V39.9191C37.8123 50.0836 29.568 58.3229 19.3991 58.3229C15.6048 58.3229 12.078 57.1764 9.14844 55.21C12.4921 58.6272 17.1551 60.747 22.3138 60.747C32.4836 60.747 40.728 52.5077 40.728 42.3428V22.0243H40.7276V22.0243ZM44.3244 11.9794C42.3247 9.79601 41.0117 6.97433 40.7276 3.85476V2.57422H37.9648C38.6603 6.53903 41.0324 9.92631 44.3242 11.9794H44.3244ZM15.5803 47.4103C14.4631 45.9463 13.8592 44.1552 13.8619 42.3136C13.8619 37.6649 17.6328 33.8955 22.2851 33.8955C23.1519 33.8951 24.0137 34.0281 24.8401 34.29V24.1108C23.8744 23.9786 22.8999 23.9222 21.9258 23.943V31.8659C21.0991 31.6038 20.2368 31.4709 19.3695 31.4716C14.7174 31.4716 10.9468 35.2406 10.9468 39.89C10.9468 43.1775 12.8315 46.0237 15.5803 47.4103Z" fill="#A78944"/>
<path d="M37.8141 19.6003C41.7278 22.3955 46.52 24.0402 51.6967 24.0402V16.2029C48.8071 15.5877 46.2492 14.0786 44.3259 11.9794C41.034 9.9261 38.662 6.53882 37.9666 2.57422H30.7096V42.3424C30.693 46.9785 26.9287 50.7324 22.2864 50.7324C19.5511 50.7324 17.1207 49.4292 15.5816 47.4101C12.8333 46.0237 10.9484 43.1773 10.9484 39.8902C10.9484 35.2412 14.719 31.4719 19.3711 31.4719C20.2624 31.4719 21.1215 31.6105 21.9274 31.8661V23.9432C11.9369 24.1495 3.90234 32.3083 3.90234 42.3426C3.90234 47.3516 5.90308 51.8925 9.15042 55.2104C12.08 57.1764 15.6066 58.3233 19.4011 58.3233C29.5702 58.3233 37.8143 50.0834 37.8143 39.9191V19.6005H37.8141V19.6003Z" fill="#FFC233"/>
<path d="M51.6979 16.2008V14.0821C49.0922 14.0861 46.538 13.3568 44.3272 11.9775C46.2841 14.1188 48.861 15.5955 51.6979 16.2012V16.2008ZM37.9676 2.57211C37.9013 2.19329 37.8505 1.81193 37.8151 1.42898V0.148438H27.7949V39.917C27.779 44.5528 24.0146 48.3066 19.3722 48.3066C18.0561 48.3086 16.7579 48.001 15.5827 47.4086C17.1217 49.4273 19.5521 50.7303 22.2875 50.7303C26.9295 50.7303 30.6943 46.9769 30.7106 42.3407V2.57232H37.9676V2.57211ZM21.9291 23.9411V21.6852C21.0918 21.5707 20.2476 21.5135 19.4025 21.5138C9.23233 21.5138 0.988281 29.7535 0.988281 39.917C0.988281 46.2891 4.22829 51.9048 9.15189 55.2081C5.90455 51.8904 3.90381 47.3493 3.90381 42.3405C3.90381 32.3064 11.9382 24.1476 21.9291 23.9413V23.9411Z" fill="#CEB57C"/>
</g>
<defs>
<clipPath id="clip0_507_201">
<rect width="53.6268" height="60.7489" fill="white" transform="translate(0.988281 0.148438)"/>
</clipPath>
</defs>
</svg>
