<svg width="61" height="61" viewBox="0 0 61 61" fill="none" xmlns="http://www.w3.org/2000/svg">
<path d="M52.6807 0H7.52582C5.52985 0 3.61562 0.792896 2.20426 2.20426C0.792896 3.61562 0 5.52985 0 7.52582V52.6807C0 54.6767 0.792896 56.5909 2.20426 58.0023C3.61562 59.4136 5.52985 60.2065 7.52582 60.2065H52.6807C54.6767 60.2065 56.5909 59.4136 58.0023 58.0023C59.4136 56.5909 60.2065 54.6767 60.2065 52.6807V7.52582C60.2065 5.52985 59.4136 3.61562 58.0023 2.20426C56.5909 0.792896 54.6767 0 52.6807 0V0ZM26.1898 45.6064C26.1898 46.5645 25.8093 47.4833 25.1318 48.1608C24.4543 48.8383 23.5355 49.2188 22.5774 49.2188H11.4392C10.4812 49.2188 9.56235 48.8383 8.8849 48.1608C8.20744 47.4833 7.82685 46.5645 7.82685 45.6064V11.4392C7.82685 9.44239 9.44239 7.82685 11.4392 7.82685H22.5774C24.571 7.82685 26.1898 9.44239 26.1898 11.4392V45.6064ZM52.3797 30.5548C52.3797 31.5129 51.9991 32.4317 51.3216 33.1092C50.6442 33.7866 49.7254 34.1672 48.7673 34.1672H37.6291C36.671 34.1672 35.7522 33.7866 35.0747 33.1092C34.3973 32.4317 34.0167 31.5129 34.0167 30.5548V11.4392C34.0167 9.44239 35.6356 7.82685 37.6291 7.82685H48.7673C50.7641 7.82685 52.3797 9.44239 52.3797 11.4392V30.5548V30.5548Z" fill="#FFC233"/>
</svg>
