<svg width="67" height="67" viewBox="0 0 67 67" fill="none" xmlns="http://www.w3.org/2000/svg">
<path d="M65.7801 13.7213C63.4783 14.7413 61.0055 15.4304 58.406 15.7419C61.0882 14.137 63.0949 11.611 64.0516 8.63526C61.5316 10.1321 58.7736 11.1857 55.8975 11.7503C53.9633 9.68518 51.4015 8.31639 48.6098 7.85644C45.818 7.39648 42.9525 7.8711 40.4581 9.20659C37.9637 10.5421 35.98 12.6637 34.815 15.2421C33.65 17.8206 33.3688 20.7115 34.0151 23.4661C28.909 23.2097 23.9137 21.8825 19.3537 19.5706C14.7936 17.2588 10.7706 14.0139 7.54577 10.0467C6.44311 11.9488 5.80908 14.1541 5.80908 16.5028C5.80785 18.6171 6.32852 20.699 7.3249 22.5639C8.32128 24.4287 9.76256 26.0188 11.5209 27.1931C9.4817 27.1282 7.48753 26.5772 5.70432 25.5859V25.7513C5.70412 28.7168 6.72989 31.591 8.60758 33.8862C10.4853 36.1814 13.0992 37.7564 16.0059 38.3437C14.1143 38.8557 12.131 38.9311 10.2059 38.5642C11.026 41.1158 12.6235 43.3471 14.7747 44.9457C16.9259 46.5443 19.5232 47.4301 22.2029 47.4793C17.654 51.0503 12.036 52.9873 6.2529 52.9788C5.22847 52.9791 4.20492 52.9192 3.1875 52.7996C9.05773 56.5739 15.8911 58.5771 22.87 58.5693C46.4945 58.5693 59.4094 39.0026 59.4094 22.0326C59.4094 21.4813 59.3957 20.9244 59.3708 20.3731C61.883 18.5564 64.0514 16.3067 65.7745 13.7296L65.7801 13.7213V13.7213Z" fill="#FFC233"/>
</svg>
