<svg width="100" height="100" viewBox="0 0 100 100" fill="none" xmlns="http://www.w3.org/2000/svg">
<g clip-path="url(#clip0_441_539)">
<path d="M82.9094 79.9969L65.0094 50L82.9094 20.0031L91.6687 50L82.9094 79.9969ZM43.325 77.0844L20.8344 54.9969H56.675L74.575 84.9938L43.325 77.0844ZM43.325 22.4906L74.575 14.5812L56.675 44.5781H20.4094C20.4094 45.0031 43.325 22.4906 43.325 22.4906ZM89.1594 0L48.3438 10.4156L42.0938 20.8312H29.9969L0 49.9969L29.9969 79.1625H42.0938L47.9187 89.5781L88.7562 99.9937L99.5781 60.4094L93.7531 49.9938L100.003 39.5781L89.1594 0Z" fill="#C08552"/>
</g>
<defs>
<clipPath id="clip0_441_539">
<rect width="100" height="100" fill="white"/>
</clipPath>
</defs>
</svg>
