<svg width="100" height="100" viewBox="0 0 100 100" fill="none" xmlns="http://www.w3.org/2000/svg">
<g clip-path="url(#clip0_441_541)">
<path d="M0.950317 34.8753C0.950317 34.8753 -1.48302 33.0962 1.43782 30.7295L8.25032 24.5712C8.25032 24.5712 10.1961 22.5004 12.2586 24.3045L75.0962 72.3962V95.4545C75.0962 95.4545 75.067 99.0795 70.4711 98.6795L0.946151 34.8712L0.950317 34.8753Z" fill="#C08552"/>
<path d="M17.1507 49.7378L0.950702 64.6211C0.950702 64.6211 -0.715965 65.8711 0.950702 68.1086L8.47153 75.0253C8.47153 75.0253 10.259 76.9628 12.8965 74.7545L30.0674 61.5961L17.1507 49.7378Z" fill="#C08552"/>
<path d="M45.584 49.8584L75.2924 26.9334L75.0966 3.99592C75.0966 3.99592 73.8257 -1.01241 69.5965 1.59592L30.0674 37.9584L45.584 49.8584Z" fill="#C08552"/>
<path d="M70.4665 98.7085C72.1915 100.492 74.2832 99.9085 74.2832 99.9085L97.4332 88.3794C100.396 86.3377 99.979 83.8044 99.979 83.8044V14.9502C99.979 11.9252 96.9165 10.8794 96.9165 10.8794L76.8499 1.1002C72.4665 -1.6373 69.5957 1.59604 69.5957 1.59604C69.5957 1.59604 73.2874 -1.09146 75.0957 3.99604V95.0377C75.0957 95.6627 74.9624 96.2752 74.6999 96.8294C74.1707 97.9085 73.0249 98.9127 70.2749 98.496L70.4665 98.7085Z" fill="#C08552"/>
</g>
<defs>
<clipPath id="clip0_441_541">
<rect width="100" height="100" fill="white"/>
</clipPath>
</defs>
</svg>
