<svg width="82" height="82" viewBox="0 0 82 82" fill="none" xmlns="http://www.w3.org/2000/svg">
<g clip-path="url(#clip0_341_245)">
<path d="M0.775776 28.4702C0.775776 28.4702 -1.21064 27.0178 1.17374 25.0858L6.73501 20.0585C6.73501 20.0585 8.32346 18.368 10.0072 19.8408L61.3035 59.0997V77.923C61.3035 77.923 61.2797 80.8822 57.528 80.5557L0.772375 28.4668L0.775776 28.4702Z" fill="#FFC233"/>
<path d="M14.0012 40.6016L0.776567 52.7513C0.776567 52.7513 -0.58399 53.7718 0.776567 55.5983L6.91608 61.2446C6.91608 61.2446 8.37528 62.8263 10.5284 61.0235L24.5455 50.2819L14.0012 40.6016Z" fill="#FFC233"/>
<path d="M37.2098 40.7022L61.4617 21.9877L61.3018 3.26307C61.3018 3.26307 60.2644 -0.825397 56.812 1.30387L24.543 30.9878L37.2098 40.7022V40.7022Z" fill="#FFC233"/>
<path d="M57.5234 80.5791C58.9316 82.0349 60.6391 81.5587 60.6391 81.5587L79.5372 72.1471C81.9556 70.4804 81.6155 68.4124 81.6155 68.4124V12.2044C81.6155 9.73495 79.1154 8.8812 79.1154 8.8812L62.7343 0.898132C59.1561 -1.33658 56.8125 1.3029 56.8125 1.3029C56.8125 1.3029 59.8261 -0.891 61.3023 3.2621V77.5825C61.3023 78.0927 61.1935 78.5927 60.9792 79.0451C60.5472 79.9261 59.6118 80.7458 57.3669 80.4057L57.5234 80.5791V80.5791Z" fill="#FFC233"/>
</g>
<defs>
<clipPath id="clip0_341_245">
<rect width="81.6334" height="81.6334" fill="white"/>
</clipPath>
</defs>
</svg>
