<svg width="141" height="140" viewBox="0 0 141 140" fill="none" xmlns="http://www.w3.org/2000/svg">
<path d="M24.1605 34.9997H129.16V23.333H24.1605C17.7438 23.333 12.4938 28.583 12.4938 34.9997V99.1663H0.827148V116.666H82.4938V99.1663H24.1605V34.9997ZM134.994 46.6663H99.9938C96.7855 46.6663 94.1605 49.2913 94.1605 52.4997V110.833C94.1605 114.041 96.7855 116.666 99.9938 116.666H134.994C138.202 116.666 140.827 114.041 140.827 110.833V52.4997C140.827 49.2913 138.202 46.6663 134.994 46.6663ZM129.16 99.1663H105.827V58.333H129.16V99.1663Z" fill="#C08552"/>
<path d="M39.935 67.964V63.74L56.959 54.1399V58.364L44.415 65.852L56.959 73.34V77.564L39.935 67.964ZM81.209 63.74V67.964L64.185 77.564V73.34L76.793 65.852L64.185 58.364V54.1399L81.209 63.74Z" fill="#C08552"/>
</svg>
