<svg width="120" height="120" viewBox="0 0 120 120" fill="none" xmlns="http://www.w3.org/2000/svg">
<path d="M20 30.0005H110V20.0005H20C14.5 20.0005 10 24.5005 10 30.0005V85.0005H0V100H70V85.0005H20V30.0005ZM115 40.0005H85C82.25 40.0005 80 42.2505 80 45.0005V95.0005C80 97.7505 82.25 100 85 100H115C117.75 100 120 97.7505 120 95.0005V45.0005C120 42.2505 117.75 40.0005 115 40.0005ZM110 85.0005H90V50.0005H110V85.0005Z" fill="#C08552"/>
<path d="M30.5698 58.9278V54.7038L47.5938 45.1038V49.3278L35.0498 56.8158L47.5938 64.3038V68.5278L30.5698 58.9278ZM71.8438 54.7038V58.9278L54.8198 68.5278V64.3038L67.4278 56.8158L54.8198 49.3278V45.1038L71.8438 54.7038Z" fill="#C08552"/>
</svg>
