<svg width="150" height="120" viewBox="0 0 150 120" fill="none" xmlns="http://www.w3.org/2000/svg">
<path d="M35 30H125V20H35C29.5 20 25 24.5 25 30V85H15V100H85V85H35V30ZM130 40H100C97.25 40 95 42.25 95 45V95C95 97.75 97.25 100 100 100H130C132.75 100 135 97.75 135 95V45C135 42.25 132.75 40 130 40ZM125 85H105V50H125V85Z" fill="#FFC233"/>
<path d="M45.5679 58.9288V54.7048L62.5919 45.1048V49.3288L50.0479 56.8168L62.5919 64.3048V68.5288L45.5679 58.9288ZM86.8419 54.7048V58.9288L69.8179 68.5288V64.3048L82.4259 56.8168L69.8179 49.3288V45.1048L86.8419 54.7048Z" fill="#FFC233"/>
</svg>
