<svg width="50" height="50" viewBox="0 0 50 50" fill="none" xmlns="http://www.w3.org/2000/svg">
<path d="M46.9582 13.3752C46.7107 12.3864 46.2067 11.4805 45.4971 10.7489C44.7874 10.0173 43.8973 9.48596 42.9166 9.2085C39.3332 8.3335 24.9999 8.3335 24.9999 8.3335C24.9999 8.3335 10.6666 8.3335 7.08322 9.29183C6.10249 9.5693 5.21234 10.1007 4.50269 10.8323C3.79305 11.5639 3.28903 12.4698 3.04156 13.4585C2.38575 17.0951 2.06496 20.7841 2.08322 24.4793C2.05985 28.2023 2.38065 31.9195 3.04156 35.5835C3.31439 36.5415 3.82969 37.413 4.53769 38.1137C5.24568 38.8144 6.12243 39.3206 7.08322 39.5835C10.6666 40.5418 24.9999 40.5418 24.9999 40.5418C24.9999 40.5418 39.3332 40.5418 42.9166 39.5835C43.8973 39.306 44.7874 38.7747 45.4971 38.0431C46.2067 37.3115 46.7107 36.4056 46.9582 35.4168C47.609 31.8076 47.9297 28.1467 47.9166 24.4793C47.9399 20.7563 47.6191 17.0391 46.9582 13.3752V13.3752Z" stroke="#A22522" stroke-width="4.16667" stroke-linecap="round" stroke-linejoin="round"/>
<path d="M20.3125 31.292L32.2917 24.4795L20.3125 17.667V31.292Z" stroke="#A22522" stroke-width="4.16667" stroke-linecap="round" stroke-linejoin="round"/>
</svg>
