<svg width="75" height="60" viewBox="0 0 75 60" fill="none" xmlns="http://www.w3.org/2000/svg">
<path d="M65.7649 15.4897C65.4464 14.217 64.7976 13.0509 63.8841 12.1092C62.9707 11.1674 61.8249 10.4835 60.5624 10.1263C55.95 9 37.5 9 37.5 9C37.5 9 19.0501 9 14.4376 10.2336C13.1752 10.5907 12.0294 11.2747 11.1159 12.2164C10.2024 13.1581 9.55366 14.3242 9.23511 15.5969C8.39095 20.278 7.97803 25.0265 8.00153 29.783C7.97144 34.5753 8.38439 39.3601 9.23511 44.0764C9.5863 45.3095 10.2496 46.4313 11.1609 47.3332C12.0723 48.2351 13.2008 48.8868 14.4376 49.2252C19.0501 50.4588 37.5 50.4588 37.5 50.4588C37.5 50.4588 55.95 50.4588 60.5624 49.2252C61.8249 48.868 62.9707 48.184 63.8841 47.2423C64.7976 46.3006 65.4464 45.1345 65.7649 43.8618C66.6025 39.2161 67.0154 34.5037 66.9985 29.783C67.0286 24.9907 66.6156 20.2059 65.7649 15.4897V15.4897Z" stroke="black" stroke-width="4.16667" stroke-linecap="round" stroke-linejoin="round"/>
<path d="M31.4648 38.5519L46.8845 29.7828L31.4648 21.0137V38.5519Z" stroke="black" stroke-width="4.16667" stroke-linecap="round" stroke-linejoin="round"/>
</svg>
