<svg width="65" height="47" viewBox="0 0 65 47" fill="none" xmlns="http://www.w3.org/2000/svg">
<path d="M60.7649 9.48966C60.4464 8.21696 59.7976 7.05087 58.8841 6.10916C57.9707 5.16744 56.8249 4.48346 55.5624 4.12631C50.95 3 32.5 3 32.5 3C32.5 3 14.0501 3 9.43756 4.23357C8.17515 4.59073 7.02935 5.27471 6.11589 6.21642C5.20243 7.15814 4.55366 8.32423 4.23511 9.59693C3.39095 14.278 2.97803 19.0265 3.00153 23.783C2.97144 28.5753 3.38439 33.3601 4.23511 38.0764C4.5863 39.3095 5.2496 40.4313 6.16094 41.3332C7.07227 42.2351 8.20083 42.8868 9.43756 43.2252C14.0501 44.4588 32.5 44.4588 32.5 44.4588C32.5 44.4588 50.95 44.4588 55.5624 43.2252C56.8249 42.868 57.9707 42.184 58.8841 41.2423C59.7976 40.3006 60.4464 39.1345 60.7649 37.8618C61.6025 33.2161 62.0154 28.5037 61.9985 23.783C62.0286 18.9907 61.6156 14.2059 60.7649 9.48966V9.48966Z" stroke="#A22522" stroke-width="4.16667" stroke-linecap="round" stroke-linejoin="round"/>
<path d="M26.4658 32.5523L41.8855 23.7833L26.4658 15.0142V32.5523Z" stroke="#A22522" stroke-width="4.16667" stroke-linecap="round" stroke-linejoin="round"/>
</svg>
